G04 EAGLE Gerber RS-274X export*
G75*
%MOMM*%
%FSLAX34Y34*%
%LPD*%
%INBottom Copper*%
%IPPOS*%
%AMOC8*
5,1,8,0,0,1.08239X$1,22.5*%
G01*
%ADD10C,2.775000*%
%ADD11C,1.879600*%
%ADD12R,1.508000X1.508000*%
%ADD13C,1.676400*%
%ADD14P,1.632244X8X292.500000*%
%ADD15C,1.508000*%
%ADD16C,1.108000*%
%ADD17C,3.516000*%
%ADD18C,1.778000*%
%ADD19C,3.556000*%
%ADD20C,0.508000*%
%ADD21C,0.756400*%
%ADD22C,0.152400*%

G36*
X1262917Y480032D02*
X1262917Y480032D01*
X1262949Y480037D01*
X1263045Y480043D01*
X1271716Y481545D01*
X1271718Y481545D01*
X1271719Y481545D01*
X1271859Y481586D01*
X1271861Y481587D01*
X1271862Y481587D01*
X1271880Y481593D01*
X1277329Y483876D01*
X1277410Y483927D01*
X1277494Y483972D01*
X1277514Y483992D01*
X1277537Y484006D01*
X1277598Y484080D01*
X1277664Y484150D01*
X1277676Y484175D01*
X1277693Y484197D01*
X1277727Y484286D01*
X1277767Y484373D01*
X1277771Y484401D01*
X1277780Y484427D01*
X1277784Y484522D01*
X1277795Y484617D01*
X1277789Y484645D01*
X1277790Y484672D01*
X1277763Y484764D01*
X1277742Y484858D01*
X1277728Y484882D01*
X1277720Y484908D01*
X1277665Y484987D01*
X1277616Y485069D01*
X1277595Y485087D01*
X1277579Y485110D01*
X1277502Y485167D01*
X1277429Y485229D01*
X1277403Y485239D01*
X1277381Y485256D01*
X1277290Y485285D01*
X1277201Y485321D01*
X1277166Y485325D01*
X1277147Y485331D01*
X1277114Y485330D01*
X1277034Y485339D01*
X1268033Y485339D01*
X1259704Y488789D01*
X1253329Y495164D01*
X1249879Y503493D01*
X1249879Y512507D01*
X1253329Y520836D01*
X1259704Y527211D01*
X1268033Y530661D01*
X1277047Y530661D01*
X1285376Y527211D01*
X1291751Y520836D01*
X1295201Y512507D01*
X1295201Y503461D01*
X1295210Y503404D01*
X1295209Y503346D01*
X1295230Y503283D01*
X1295240Y503218D01*
X1295267Y503167D01*
X1295285Y503112D01*
X1295325Y503059D01*
X1295356Y503000D01*
X1295397Y502961D01*
X1295432Y502914D01*
X1295486Y502877D01*
X1295534Y502831D01*
X1295586Y502807D01*
X1295633Y502774D01*
X1295697Y502755D01*
X1295757Y502727D01*
X1295814Y502721D01*
X1295870Y502705D01*
X1295936Y502708D01*
X1296001Y502700D01*
X1296058Y502713D01*
X1296115Y502715D01*
X1296177Y502738D01*
X1296242Y502753D01*
X1296291Y502782D01*
X1296345Y502803D01*
X1296396Y502845D01*
X1296453Y502879D01*
X1296490Y502923D01*
X1296535Y502959D01*
X1296592Y503042D01*
X1296613Y503066D01*
X1296618Y503079D01*
X1296631Y503097D01*
X1297550Y504788D01*
X1297551Y504789D01*
X1297552Y504791D01*
X1297614Y504946D01*
X1299985Y513421D01*
X1299988Y513453D01*
X1300009Y513547D01*
X1300453Y517812D01*
X1300451Y517840D01*
X1300457Y517891D01*
X1300457Y972245D01*
X1300446Y972310D01*
X1300446Y972376D01*
X1300423Y972456D01*
X1300417Y972488D01*
X1300408Y972505D01*
X1300399Y972537D01*
X1300098Y973263D01*
X1300098Y1034233D01*
X1300096Y1034245D01*
X1300097Y1034254D01*
X1300091Y1034280D01*
X1300093Y1034319D01*
X1300061Y1034464D01*
X1300059Y1034476D01*
X1300057Y1034479D01*
X1300056Y1034483D01*
X1299994Y1034663D01*
X1300097Y1036426D01*
X1300095Y1036443D01*
X1300098Y1036470D01*
X1300098Y1038265D01*
X1300103Y1038276D01*
X1300112Y1038360D01*
X1300120Y1038392D01*
X1300118Y1038411D01*
X1300122Y1038442D01*
X1300126Y1040402D01*
X1300121Y1040434D01*
X1300116Y1040529D01*
X1298928Y1047626D01*
X1298927Y1047627D01*
X1298927Y1047629D01*
X1298881Y1047790D01*
X1296143Y1054444D01*
X1296143Y1054445D01*
X1296142Y1054447D01*
X1296061Y1054593D01*
X1291912Y1060472D01*
X1291911Y1060473D01*
X1291910Y1060474D01*
X1291799Y1060599D01*
X1286445Y1065406D01*
X1286444Y1065407D01*
X1286443Y1065408D01*
X1286306Y1065505D01*
X1280017Y1069001D01*
X1280016Y1069002D01*
X1280015Y1069002D01*
X1279860Y1069067D01*
X1272951Y1071075D01*
X1272919Y1071079D01*
X1272825Y1071101D01*
X1269414Y1071493D01*
X1269384Y1071492D01*
X1269327Y1071498D01*
X-30300Y1071498D01*
X-30316Y1071496D01*
X-30342Y1071497D01*
X-34216Y1071280D01*
X-34247Y1071273D01*
X-34343Y1071262D01*
X-41896Y1069538D01*
X-41897Y1069537D01*
X-41898Y1069537D01*
X-42057Y1069481D01*
X-49037Y1066120D01*
X-49038Y1066119D01*
X-49039Y1066119D01*
X-49173Y1066034D01*
X-49177Y1066032D01*
X-49178Y1066031D01*
X-49181Y1066029D01*
X-50579Y1064915D01*
X-50590Y1064902D01*
X-50605Y1064893D01*
X-50672Y1064811D01*
X-50744Y1064732D01*
X-50751Y1064717D01*
X-50761Y1064704D01*
X-50800Y1064604D01*
X-50842Y1064507D01*
X-50843Y1064490D01*
X-50850Y1064474D01*
X-50854Y1064368D01*
X-50863Y1064262D01*
X-50859Y1064245D01*
X-50860Y1064228D01*
X-50830Y1064126D01*
X-50805Y1064023D01*
X-50796Y1064008D01*
X-50791Y1063992D01*
X-50731Y1063905D01*
X-50674Y1063815D01*
X-50661Y1063804D01*
X-50651Y1063790D01*
X-50566Y1063726D01*
X-50483Y1063659D01*
X-50467Y1063653D01*
X-50454Y1063643D01*
X-50352Y1063610D01*
X-50253Y1063573D01*
X-50236Y1063572D01*
X-50220Y1063567D01*
X-50113Y1063568D01*
X-50007Y1063564D01*
X-49991Y1063569D01*
X-49974Y1063569D01*
X-49813Y1063616D01*
X-42607Y1066601D01*
X-33593Y1066601D01*
X-25264Y1063151D01*
X-18889Y1056776D01*
X-15439Y1048447D01*
X-15439Y1039433D01*
X-18889Y1031104D01*
X-25264Y1024729D01*
X-33593Y1021279D01*
X-42607Y1021279D01*
X-50936Y1024729D01*
X-57311Y1031104D01*
X-60761Y1039433D01*
X-60761Y1048447D01*
X-57776Y1055653D01*
X-57772Y1055669D01*
X-57764Y1055684D01*
X-57744Y1055789D01*
X-57720Y1055892D01*
X-57722Y1055909D01*
X-57718Y1055926D01*
X-57733Y1056031D01*
X-57743Y1056137D01*
X-57750Y1056153D01*
X-57752Y1056169D01*
X-57800Y1056265D01*
X-57843Y1056362D01*
X-57855Y1056374D01*
X-57862Y1056390D01*
X-57937Y1056465D01*
X-58010Y1056543D01*
X-58024Y1056551D01*
X-58036Y1056563D01*
X-58131Y1056610D01*
X-58225Y1056662D01*
X-58242Y1056665D01*
X-58257Y1056672D01*
X-58362Y1056686D01*
X-58467Y1056705D01*
X-58484Y1056703D01*
X-58501Y1056705D01*
X-58605Y1056685D01*
X-58710Y1056670D01*
X-58726Y1056662D01*
X-58742Y1056659D01*
X-58835Y1056606D01*
X-58930Y1056558D01*
X-58942Y1056546D01*
X-58956Y1056538D01*
X-59075Y1056419D01*
X-60189Y1055021D01*
X-60190Y1055020D01*
X-60191Y1055019D01*
X-60280Y1054877D01*
X-63641Y1047897D01*
X-63642Y1047895D01*
X-63643Y1047894D01*
X-63698Y1047736D01*
X-65422Y1040183D01*
X-65424Y1040151D01*
X-65440Y1040056D01*
X-65657Y1036182D01*
X-65655Y1036166D01*
X-65658Y1036140D01*
X-65658Y970723D01*
X-65854Y970250D01*
X-65869Y970186D01*
X-65894Y970125D01*
X-65903Y970042D01*
X-65910Y970010D01*
X-65909Y969991D01*
X-65912Y969958D01*
X-65912Y969504D01*
X-66002Y969286D01*
X-66017Y969222D01*
X-66042Y969162D01*
X-66051Y969078D01*
X-66059Y969046D01*
X-66057Y969027D01*
X-66060Y968995D01*
X-66271Y514283D01*
X-66268Y514263D01*
X-66268Y514257D01*
X-66270Y514241D01*
X-66269Y514237D01*
X-66269Y514230D01*
X-66005Y510447D01*
X-65998Y510416D01*
X-65986Y510321D01*
X-64193Y502932D01*
X-64193Y502931D01*
X-64193Y502930D01*
X-64135Y502772D01*
X-60743Y495968D01*
X-60742Y495967D01*
X-60742Y495966D01*
X-60650Y495825D01*
X-55829Y489947D01*
X-55828Y489946D01*
X-55827Y489945D01*
X-55707Y489828D01*
X-49698Y485170D01*
X-49697Y485170D01*
X-49696Y485169D01*
X-49552Y485082D01*
X-42658Y481878D01*
X-42656Y481878D01*
X-42655Y481877D01*
X-42496Y481824D01*
X-35061Y480236D01*
X-35029Y480234D01*
X-34934Y480220D01*
X-31156Y480060D01*
X-31143Y480062D01*
X-31124Y480060D01*
X-31023Y480060D01*
X-31019Y480060D01*
X-31012Y480060D01*
X-29042Y480087D01*
X-29019Y480078D01*
X-28926Y480068D01*
X-28894Y480061D01*
X-28878Y480063D01*
X-28852Y480060D01*
X1256053Y480036D01*
X1256097Y480044D01*
X1256142Y480042D01*
X1256278Y480073D01*
X1256295Y480076D01*
X1256299Y480078D01*
X1256306Y480080D01*
X1256449Y480130D01*
X1258174Y480037D01*
X1258190Y480039D01*
X1258215Y480036D01*
X1260016Y480036D01*
X1260038Y480034D01*
X1260070Y480026D01*
X1260090Y480028D01*
X1260124Y480025D01*
X1262917Y480032D01*
G37*
%LPC*%
G36*
X350607Y671829D02*
X350607Y671829D01*
X346779Y673415D01*
X343850Y676344D01*
X342264Y680172D01*
X342264Y684316D01*
X343850Y688144D01*
X346779Y691073D01*
X350607Y692659D01*
X354751Y692659D01*
X358579Y691073D01*
X361508Y688144D01*
X362073Y686779D01*
X362135Y686679D01*
X362195Y686579D01*
X362200Y686575D01*
X362203Y686570D01*
X362294Y686495D01*
X362382Y686419D01*
X362388Y686417D01*
X362393Y686413D01*
X362501Y686371D01*
X362610Y686327D01*
X362618Y686326D01*
X362622Y686325D01*
X362640Y686324D01*
X362777Y686309D01*
X503066Y686309D01*
X503156Y686323D01*
X503247Y686331D01*
X503277Y686343D01*
X503309Y686348D01*
X503390Y686391D01*
X503474Y686427D01*
X503506Y686453D01*
X503526Y686464D01*
X503540Y686477D01*
X503541Y686478D01*
X503552Y686489D01*
X503605Y686532D01*
X519511Y702438D01*
X526091Y702438D01*
X526187Y702453D01*
X526284Y702463D01*
X526308Y702473D01*
X526333Y702477D01*
X526419Y702523D01*
X526508Y702563D01*
X526528Y702580D01*
X526551Y702593D01*
X526618Y702663D01*
X526689Y702729D01*
X526702Y702752D01*
X526720Y702771D01*
X526761Y702859D01*
X526808Y702945D01*
X526813Y702970D01*
X526824Y702994D01*
X526834Y703091D01*
X526852Y703187D01*
X526848Y703213D01*
X526851Y703238D01*
X526830Y703334D01*
X526816Y703430D01*
X526804Y703453D01*
X526799Y703479D01*
X526749Y703562D01*
X526704Y703649D01*
X526686Y703668D01*
X526672Y703690D01*
X526598Y703753D01*
X526529Y703821D01*
X526500Y703837D01*
X526485Y703850D01*
X526455Y703862D01*
X526382Y703902D01*
X519657Y706688D01*
X514283Y712062D01*
X511374Y719084D01*
X511374Y726684D01*
X514283Y733706D01*
X519657Y739080D01*
X526679Y741989D01*
X534279Y741989D01*
X541301Y739080D01*
X546675Y733706D01*
X549584Y726684D01*
X549584Y719084D01*
X546675Y712062D01*
X541301Y706688D01*
X534576Y703902D01*
X534493Y703851D01*
X534407Y703805D01*
X534389Y703786D01*
X534367Y703773D01*
X534305Y703698D01*
X534238Y703627D01*
X534227Y703603D01*
X534210Y703583D01*
X534175Y703492D01*
X534134Y703404D01*
X534131Y703378D01*
X534122Y703354D01*
X534118Y703256D01*
X534107Y703160D01*
X534113Y703134D01*
X534112Y703108D01*
X534139Y703014D01*
X534159Y702919D01*
X534173Y702897D01*
X534180Y702872D01*
X534236Y702792D01*
X534286Y702708D01*
X534305Y702691D01*
X534320Y702670D01*
X534399Y702611D01*
X534473Y702548D01*
X534497Y702538D01*
X534518Y702523D01*
X534610Y702493D01*
X534701Y702456D01*
X534733Y702453D01*
X534752Y702447D01*
X534785Y702447D01*
X534867Y702438D01*
X541434Y702438D01*
X541524Y702452D01*
X541615Y702460D01*
X541645Y702472D01*
X541677Y702477D01*
X541757Y702520D01*
X541841Y702556D01*
X541873Y702582D01*
X541894Y702593D01*
X541916Y702616D01*
X541972Y702661D01*
X548190Y708879D01*
X548243Y708953D01*
X548303Y709022D01*
X548315Y709052D01*
X548334Y709078D01*
X548361Y709165D01*
X548395Y709250D01*
X548399Y709291D01*
X548406Y709314D01*
X548405Y709346D01*
X548413Y709417D01*
X548413Y710858D01*
X551522Y713967D01*
X555918Y713967D01*
X559027Y710858D01*
X559027Y706462D01*
X555918Y703353D01*
X554477Y703353D01*
X554387Y703339D01*
X554296Y703331D01*
X554266Y703319D01*
X554234Y703314D01*
X554154Y703271D01*
X554070Y703235D01*
X554038Y703209D01*
X554017Y703198D01*
X553995Y703175D01*
X553939Y703130D01*
X545117Y694308D01*
X537521Y694308D01*
X537450Y694297D01*
X537379Y694295D01*
X537330Y694277D01*
X537278Y694269D01*
X537215Y694235D01*
X537148Y694210D01*
X537107Y694178D01*
X537061Y694153D01*
X537012Y694101D01*
X536956Y694057D01*
X536928Y694013D01*
X536892Y693975D01*
X536862Y693910D01*
X536823Y693850D01*
X536810Y693799D01*
X536788Y693752D01*
X536780Y693681D01*
X536763Y693611D01*
X536767Y693559D01*
X536761Y693508D01*
X536776Y693437D01*
X536782Y693366D01*
X536802Y693318D01*
X536813Y693267D01*
X536850Y693206D01*
X536878Y693140D01*
X536923Y693084D01*
X536939Y693056D01*
X536957Y693041D01*
X536983Y693009D01*
X539943Y690049D01*
X541529Y686221D01*
X541529Y682077D01*
X539943Y678249D01*
X537014Y675320D01*
X533186Y673734D01*
X529042Y673734D01*
X525214Y675320D01*
X522285Y678249D01*
X520699Y682077D01*
X520699Y686221D01*
X522285Y690049D01*
X525245Y693009D01*
X525287Y693067D01*
X525336Y693119D01*
X525358Y693166D01*
X525389Y693208D01*
X525410Y693277D01*
X525440Y693342D01*
X525446Y693394D01*
X525461Y693444D01*
X525459Y693515D01*
X525467Y693586D01*
X525456Y693637D01*
X525455Y693689D01*
X525430Y693757D01*
X525415Y693827D01*
X525388Y693872D01*
X525370Y693920D01*
X525325Y693976D01*
X525289Y694038D01*
X525249Y694072D01*
X525216Y694112D01*
X525156Y694151D01*
X525102Y694198D01*
X525053Y694217D01*
X525010Y694245D01*
X524940Y694263D01*
X524874Y694290D01*
X524802Y694298D01*
X524771Y694306D01*
X524748Y694304D01*
X524707Y694308D01*
X523193Y694308D01*
X523103Y694294D01*
X523012Y694286D01*
X522983Y694274D01*
X522951Y694269D01*
X522870Y694226D01*
X522786Y694190D01*
X522754Y694164D01*
X522733Y694153D01*
X522711Y694130D01*
X522655Y694085D01*
X506749Y678179D01*
X362777Y678179D01*
X362662Y678160D01*
X362546Y678143D01*
X362540Y678141D01*
X362534Y678140D01*
X362431Y678085D01*
X362327Y678032D01*
X362322Y678027D01*
X362317Y678024D01*
X362237Y677940D01*
X362154Y677856D01*
X362151Y677850D01*
X362147Y677846D01*
X362139Y677829D01*
X362073Y677709D01*
X361508Y676344D01*
X358579Y673415D01*
X354751Y671829D01*
X350607Y671829D01*
G37*
%LPD*%
%LPC*%
G36*
X363562Y695733D02*
X363562Y695733D01*
X360453Y698842D01*
X360453Y703238D01*
X361481Y704266D01*
X361538Y704345D01*
X361600Y704420D01*
X361609Y704444D01*
X361625Y704466D01*
X361653Y704559D01*
X361688Y704650D01*
X361689Y704676D01*
X361697Y704701D01*
X361694Y704798D01*
X361699Y704895D01*
X361691Y704920D01*
X361691Y704947D01*
X361657Y705038D01*
X361630Y705132D01*
X361615Y705153D01*
X361606Y705178D01*
X361545Y705254D01*
X361490Y705334D01*
X361469Y705349D01*
X361452Y705370D01*
X361371Y705422D01*
X361292Y705480D01*
X361268Y705488D01*
X361246Y705503D01*
X361151Y705526D01*
X361059Y705557D01*
X361032Y705556D01*
X361007Y705563D01*
X360910Y705555D01*
X360813Y705554D01*
X360781Y705545D01*
X360762Y705544D01*
X360731Y705531D01*
X360651Y705507D01*
X356479Y703779D01*
X348879Y703779D01*
X341857Y706688D01*
X336483Y712062D01*
X333574Y719084D01*
X333574Y726684D01*
X336483Y733706D01*
X341857Y739080D01*
X348879Y741989D01*
X356479Y741989D01*
X363501Y739080D01*
X368875Y733706D01*
X371784Y726684D01*
X371784Y719084D01*
X368875Y712062D01*
X364459Y707646D01*
X364418Y707588D01*
X364368Y707536D01*
X364346Y707489D01*
X364316Y707447D01*
X364295Y707378D01*
X364265Y707313D01*
X364259Y707261D01*
X364244Y707211D01*
X364245Y707140D01*
X364237Y707069D01*
X364249Y707018D01*
X364250Y706966D01*
X364275Y706898D01*
X364290Y706828D01*
X364316Y706783D01*
X364334Y706735D01*
X364379Y706679D01*
X364416Y706617D01*
X364455Y706583D01*
X364488Y706543D01*
X364548Y706504D01*
X364603Y706457D01*
X364651Y706438D01*
X364695Y706410D01*
X364764Y706392D01*
X364831Y706365D01*
X364902Y706357D01*
X364933Y706349D01*
X364957Y706351D01*
X364998Y706347D01*
X367958Y706347D01*
X370755Y703550D01*
X370829Y703497D01*
X370899Y703437D01*
X370929Y703425D01*
X370955Y703406D01*
X371042Y703379D01*
X371127Y703345D01*
X371168Y703341D01*
X371190Y703334D01*
X371222Y703335D01*
X371293Y703327D01*
X494847Y703327D01*
X494937Y703341D01*
X495028Y703349D01*
X495057Y703361D01*
X495089Y703366D01*
X495170Y703409D01*
X495254Y703445D01*
X495286Y703471D01*
X495307Y703482D01*
X495329Y703505D01*
X495385Y703550D01*
X498182Y706347D01*
X502578Y706347D01*
X505687Y703238D01*
X505687Y698842D01*
X502578Y695733D01*
X498182Y695733D01*
X495385Y698530D01*
X495311Y698583D01*
X495241Y698643D01*
X495211Y698655D01*
X495185Y698674D01*
X495098Y698701D01*
X495013Y698735D01*
X494972Y698739D01*
X494950Y698746D01*
X494918Y698745D01*
X494847Y698753D01*
X371293Y698753D01*
X371203Y698739D01*
X371112Y698731D01*
X371083Y698719D01*
X371051Y698714D01*
X370970Y698671D01*
X370886Y698635D01*
X370854Y698609D01*
X370833Y698598D01*
X370811Y698575D01*
X370755Y698530D01*
X367958Y695733D01*
X363562Y695733D01*
G37*
%LPD*%
%LPC*%
G36*
X-42607Y485339D02*
X-42607Y485339D01*
X-50936Y488789D01*
X-57311Y495164D01*
X-60761Y503493D01*
X-60761Y512507D01*
X-57311Y520836D01*
X-50936Y527211D01*
X-42607Y530661D01*
X-33593Y530661D01*
X-25264Y527211D01*
X-18889Y520836D01*
X-15439Y512507D01*
X-15439Y503493D01*
X-18889Y495164D01*
X-25264Y488789D01*
X-33593Y485339D01*
X-42607Y485339D01*
G37*
%LPD*%
%LPC*%
G36*
X1268033Y1021279D02*
X1268033Y1021279D01*
X1259704Y1024729D01*
X1253329Y1031104D01*
X1249879Y1039433D01*
X1249879Y1048447D01*
X1253329Y1056776D01*
X1259704Y1063151D01*
X1268033Y1066601D01*
X1277047Y1066601D01*
X1285376Y1063151D01*
X1291751Y1056776D01*
X1295201Y1048447D01*
X1295201Y1039433D01*
X1291751Y1031104D01*
X1285376Y1024729D01*
X1277047Y1021279D01*
X1268033Y1021279D01*
G37*
%LPD*%
%LPC*%
G36*
X202730Y906490D02*
X202730Y906490D01*
X202695Y906501D01*
X202610Y906535D01*
X202569Y906539D01*
X202546Y906546D01*
X202514Y906545D01*
X202443Y906553D01*
X201002Y906553D01*
X197893Y909662D01*
X197893Y914058D01*
X201002Y917167D01*
X205398Y917167D01*
X207723Y914842D01*
X207797Y914789D01*
X207866Y914730D01*
X207896Y914717D01*
X207922Y914699D01*
X208009Y914672D01*
X208094Y914638D01*
X208135Y914633D01*
X208157Y914626D01*
X208190Y914627D01*
X208261Y914619D01*
X220626Y914619D01*
X220696Y914631D01*
X220768Y914633D01*
X220817Y914651D01*
X220868Y914659D01*
X220932Y914693D01*
X220999Y914717D01*
X221040Y914750D01*
X221086Y914774D01*
X221135Y914826D01*
X221191Y914871D01*
X221219Y914915D01*
X221255Y914952D01*
X221285Y915017D01*
X221324Y915078D01*
X221337Y915128D01*
X221359Y915175D01*
X221367Y915247D01*
X221384Y915316D01*
X221380Y915368D01*
X221386Y915420D01*
X221371Y915490D01*
X221365Y915561D01*
X221345Y915609D01*
X221334Y915660D01*
X221297Y915722D01*
X221269Y915788D01*
X221224Y915844D01*
X221207Y915871D01*
X221190Y915887D01*
X221164Y915919D01*
X220118Y916964D01*
X220118Y921361D01*
X222915Y924158D01*
X222968Y924232D01*
X223028Y924301D01*
X223040Y924331D01*
X223059Y924357D01*
X223086Y924444D01*
X223120Y924529D01*
X223124Y924570D01*
X223131Y924592D01*
X223130Y924625D01*
X223138Y924696D01*
X223138Y929012D01*
X223124Y929103D01*
X223116Y929193D01*
X223104Y929223D01*
X223099Y929255D01*
X223056Y929336D01*
X223020Y929420D01*
X222994Y929452D01*
X222983Y929473D01*
X222960Y929495D01*
X222915Y929551D01*
X220911Y931555D01*
X220816Y931623D01*
X220722Y931693D01*
X220716Y931695D01*
X220711Y931699D01*
X220600Y931733D01*
X220488Y931769D01*
X220482Y931769D01*
X220476Y931771D01*
X220359Y931768D01*
X220242Y931767D01*
X220235Y931765D01*
X220230Y931765D01*
X220213Y931758D01*
X220081Y931720D01*
X217703Y930735D01*
X214097Y930735D01*
X210765Y932115D01*
X208215Y934665D01*
X206835Y937997D01*
X206835Y941603D01*
X208215Y944935D01*
X210765Y947485D01*
X214097Y948865D01*
X217703Y948865D01*
X221035Y947485D01*
X223585Y944935D01*
X224965Y941603D01*
X224965Y937997D01*
X223980Y935619D01*
X223953Y935505D01*
X223924Y935392D01*
X223925Y935385D01*
X223924Y935379D01*
X223935Y935263D01*
X223944Y935146D01*
X223946Y935141D01*
X223947Y935134D01*
X223994Y935027D01*
X224040Y934920D01*
X224045Y934914D01*
X224047Y934910D01*
X224059Y934896D01*
X224145Y934789D01*
X226149Y932785D01*
X227712Y931222D01*
X227712Y924696D01*
X227726Y924606D01*
X227734Y924515D01*
X227746Y924485D01*
X227751Y924453D01*
X227794Y924373D01*
X227830Y924289D01*
X227856Y924256D01*
X227867Y924236D01*
X227890Y924214D01*
X227935Y924158D01*
X230732Y921361D01*
X230732Y916964D01*
X229686Y915919D01*
X229644Y915861D01*
X229595Y915809D01*
X229573Y915761D01*
X229543Y915719D01*
X229521Y915651D01*
X229491Y915585D01*
X229486Y915534D01*
X229470Y915484D01*
X229472Y915412D01*
X229464Y915341D01*
X229475Y915290D01*
X229477Y915238D01*
X229501Y915171D01*
X229516Y915101D01*
X229543Y915056D01*
X229561Y915007D01*
X229606Y914951D01*
X229643Y914890D01*
X229682Y914856D01*
X229715Y914815D01*
X229775Y914776D01*
X229830Y914730D01*
X229878Y914710D01*
X229922Y914682D01*
X229991Y914665D01*
X230058Y914638D01*
X230129Y914630D01*
X230160Y914622D01*
X230183Y914624D01*
X230224Y914619D01*
X238640Y914619D01*
X238730Y914634D01*
X238821Y914641D01*
X238850Y914654D01*
X238882Y914659D01*
X238963Y914702D01*
X239047Y914737D01*
X239079Y914763D01*
X239100Y914774D01*
X239122Y914797D01*
X239178Y914842D01*
X247880Y923545D01*
X311432Y923545D01*
X311452Y923548D01*
X311471Y923546D01*
X311573Y923568D01*
X311675Y923584D01*
X311692Y923594D01*
X311712Y923598D01*
X311801Y923651D01*
X311892Y923700D01*
X311906Y923714D01*
X311923Y923724D01*
X311990Y923803D01*
X312062Y923878D01*
X312070Y923896D01*
X312083Y923911D01*
X312122Y924007D01*
X312165Y924101D01*
X312167Y924121D01*
X312175Y924139D01*
X312182Y924207D01*
X315302Y927327D01*
X319698Y927327D01*
X322807Y924218D01*
X322807Y919822D01*
X319698Y916713D01*
X318257Y916713D01*
X318167Y916699D01*
X318076Y916691D01*
X318046Y916679D01*
X318014Y916674D01*
X317934Y916631D01*
X317850Y916595D01*
X317818Y916569D01*
X317797Y916558D01*
X317775Y916535D01*
X317719Y916490D01*
X316644Y915415D01*
X251563Y915415D01*
X251473Y915401D01*
X251382Y915393D01*
X251352Y915381D01*
X251320Y915376D01*
X251240Y915333D01*
X251156Y915297D01*
X251124Y915271D01*
X251103Y915260D01*
X251081Y915237D01*
X251025Y915192D01*
X242322Y906490D01*
X202730Y906490D01*
G37*
%LPD*%
%LPC*%
G36*
X529560Y1004315D02*
X529560Y1004315D01*
X522465Y1007254D01*
X517034Y1012685D01*
X514095Y1019780D01*
X514095Y1027460D01*
X517034Y1034555D01*
X522465Y1039986D01*
X529560Y1042925D01*
X537240Y1042925D01*
X544335Y1039986D01*
X549766Y1034555D01*
X552705Y1027460D01*
X552705Y1019780D01*
X549766Y1012685D01*
X544335Y1007254D01*
X537240Y1004315D01*
X529560Y1004315D01*
G37*
%LPD*%
%LPC*%
G36*
X1083693Y709429D02*
X1083693Y709429D01*
X1076671Y712338D01*
X1071297Y717712D01*
X1068389Y724734D01*
X1068389Y732334D01*
X1071297Y739356D01*
X1076671Y744730D01*
X1083693Y747639D01*
X1091294Y747639D01*
X1098315Y744730D01*
X1103690Y739356D01*
X1106598Y732334D01*
X1106598Y724734D01*
X1103690Y717712D01*
X1098315Y712338D01*
X1091294Y709429D01*
X1083693Y709429D01*
G37*
%LPD*%
%LPC*%
G36*
X1210693Y709429D02*
X1210693Y709429D01*
X1203671Y712338D01*
X1198297Y717712D01*
X1195389Y724734D01*
X1195389Y732334D01*
X1198297Y739356D01*
X1203671Y744730D01*
X1210693Y747639D01*
X1218294Y747639D01*
X1225315Y744730D01*
X1230690Y739356D01*
X1233598Y732334D01*
X1233598Y724734D01*
X1230690Y717712D01*
X1225315Y712338D01*
X1218294Y709429D01*
X1210693Y709429D01*
G37*
%LPD*%
%LPC*%
G36*
X348879Y499309D02*
X348879Y499309D01*
X341857Y502218D01*
X336483Y507592D01*
X333574Y514614D01*
X333574Y522214D01*
X336483Y529236D01*
X341857Y534610D01*
X348879Y537519D01*
X356479Y537519D01*
X363501Y534610D01*
X368875Y529236D01*
X371784Y522214D01*
X371784Y514614D01*
X368875Y507592D01*
X363501Y502218D01*
X356479Y499309D01*
X348879Y499309D01*
G37*
%LPD*%
%LPC*%
G36*
X54112Y511247D02*
X54112Y511247D01*
X47090Y514156D01*
X41716Y519530D01*
X38807Y526552D01*
X38807Y534152D01*
X41716Y541174D01*
X47090Y546548D01*
X54112Y549457D01*
X61712Y549457D01*
X68734Y546548D01*
X74108Y541174D01*
X77017Y534152D01*
X77017Y526552D01*
X74108Y519530D01*
X68734Y514156D01*
X61712Y511247D01*
X54112Y511247D01*
G37*
%LPD*%
%LPC*%
G36*
X777877Y698634D02*
X777877Y698634D01*
X770855Y701543D01*
X765481Y706917D01*
X762573Y713939D01*
X762573Y721539D01*
X765481Y728561D01*
X770855Y733935D01*
X777877Y736844D01*
X785478Y736844D01*
X792499Y733935D01*
X797874Y728561D01*
X800782Y721539D01*
X800782Y713939D01*
X797874Y706917D01*
X792499Y701543D01*
X785478Y698634D01*
X777877Y698634D01*
G37*
%LPD*%
%LPC*%
G36*
X1010676Y504643D02*
X1010676Y504643D01*
X1003654Y507552D01*
X998280Y512926D01*
X995371Y519948D01*
X995371Y527548D01*
X998280Y534570D01*
X1003654Y539944D01*
X1010676Y542853D01*
X1018276Y542853D01*
X1025298Y539944D01*
X1030672Y534570D01*
X1033581Y527548D01*
X1033581Y519948D01*
X1030672Y512926D01*
X1025298Y507552D01*
X1018276Y504643D01*
X1010676Y504643D01*
G37*
%LPD*%
%LPC*%
G36*
X1010676Y707843D02*
X1010676Y707843D01*
X1003654Y710752D01*
X998280Y716126D01*
X995371Y723148D01*
X995371Y730748D01*
X998280Y737770D01*
X1003654Y743144D01*
X1010676Y746053D01*
X1018276Y746053D01*
X1025298Y743144D01*
X1030672Y737770D01*
X1033581Y730748D01*
X1033581Y723148D01*
X1030672Y716126D01*
X1025298Y710752D01*
X1018276Y707843D01*
X1010676Y707843D01*
G37*
%LPD*%
%LPC*%
G36*
X777504Y530805D02*
X777504Y530805D01*
X770482Y533714D01*
X765108Y539088D01*
X762199Y546110D01*
X762199Y553710D01*
X765108Y560732D01*
X770482Y566106D01*
X777504Y569015D01*
X785104Y569015D01*
X792126Y566106D01*
X797500Y560732D01*
X800409Y553710D01*
X800409Y546110D01*
X797500Y539088D01*
X792126Y533714D01*
X785104Y530805D01*
X777504Y530805D01*
G37*
%LPD*%
%LPC*%
G36*
X1210693Y506229D02*
X1210693Y506229D01*
X1203671Y509138D01*
X1198297Y514512D01*
X1195389Y521534D01*
X1195389Y529134D01*
X1198297Y536156D01*
X1203671Y541530D01*
X1210693Y544439D01*
X1218294Y544439D01*
X1225315Y541530D01*
X1230690Y536156D01*
X1233598Y529134D01*
X1233598Y521534D01*
X1230690Y514512D01*
X1225315Y509138D01*
X1218294Y506229D01*
X1210693Y506229D01*
G37*
%LPD*%
%LPC*%
G36*
X527314Y499309D02*
X527314Y499309D01*
X520292Y502218D01*
X514918Y507592D01*
X512009Y514614D01*
X512009Y522214D01*
X514918Y529236D01*
X520292Y534610D01*
X527314Y537519D01*
X534914Y537519D01*
X541936Y534610D01*
X547310Y529236D01*
X550219Y522214D01*
X550219Y514614D01*
X547310Y507592D01*
X541936Y502218D01*
X534914Y499309D01*
X527314Y499309D01*
G37*
%LPD*%
%LPC*%
G36*
X1083693Y506229D02*
X1083693Y506229D01*
X1076671Y509138D01*
X1071297Y514512D01*
X1068389Y521534D01*
X1068389Y529134D01*
X1071297Y536156D01*
X1076671Y541530D01*
X1083693Y544439D01*
X1091294Y544439D01*
X1098315Y541530D01*
X1103690Y536156D01*
X1106598Y529134D01*
X1106598Y521534D01*
X1103690Y514512D01*
X1098315Y509138D01*
X1091294Y506229D01*
X1083693Y506229D01*
G37*
%LPD*%
%LPC*%
G36*
X112497Y930735D02*
X112497Y930735D01*
X109165Y932115D01*
X106615Y934665D01*
X105235Y937997D01*
X105235Y941603D01*
X106615Y944935D01*
X109165Y947485D01*
X112497Y948865D01*
X116103Y948865D01*
X119435Y947485D01*
X120394Y946526D01*
X120452Y946484D01*
X120504Y946435D01*
X120551Y946413D01*
X120593Y946382D01*
X120662Y946361D01*
X120727Y946331D01*
X120779Y946325D01*
X120829Y946310D01*
X120900Y946312D01*
X120971Y946304D01*
X121022Y946315D01*
X121074Y946316D01*
X121142Y946341D01*
X121212Y946356D01*
X121257Y946383D01*
X121305Y946401D01*
X121361Y946446D01*
X121423Y946482D01*
X121457Y946522D01*
X121497Y946554D01*
X121536Y946615D01*
X121583Y946669D01*
X121602Y946717D01*
X121630Y946761D01*
X121648Y946831D01*
X121675Y946897D01*
X121683Y946969D01*
X121691Y947000D01*
X121689Y947023D01*
X121693Y947064D01*
X121693Y948348D01*
X124490Y951145D01*
X124543Y951219D01*
X124603Y951289D01*
X124615Y951319D01*
X124634Y951345D01*
X124661Y951432D01*
X124695Y951517D01*
X124699Y951558D01*
X124706Y951580D01*
X124705Y951612D01*
X124713Y951683D01*
X124713Y972367D01*
X124699Y972457D01*
X124691Y972548D01*
X124679Y972577D01*
X124674Y972609D01*
X124631Y972690D01*
X124595Y972774D01*
X124569Y972806D01*
X124558Y972827D01*
X124535Y972849D01*
X124490Y972905D01*
X121693Y975702D01*
X121693Y980098D01*
X124802Y983207D01*
X129198Y983207D01*
X132307Y980098D01*
X132307Y975702D01*
X129510Y972905D01*
X129457Y972831D01*
X129397Y972761D01*
X129385Y972731D01*
X129366Y972705D01*
X129339Y972618D01*
X129305Y972533D01*
X129301Y972492D01*
X129294Y972470D01*
X129295Y972438D01*
X129287Y972367D01*
X129287Y951683D01*
X129301Y951593D01*
X129309Y951502D01*
X129321Y951473D01*
X129326Y951441D01*
X129369Y951360D01*
X129405Y951276D01*
X129431Y951244D01*
X129442Y951223D01*
X129465Y951201D01*
X129510Y951145D01*
X132307Y948348D01*
X132307Y947064D01*
X132318Y946993D01*
X132320Y946922D01*
X132338Y946873D01*
X132346Y946821D01*
X132380Y946758D01*
X132405Y946691D01*
X132437Y946650D01*
X132462Y946604D01*
X132514Y946555D01*
X132558Y946499D01*
X132602Y946470D01*
X132640Y946435D01*
X132705Y946404D01*
X132765Y946366D01*
X132816Y946353D01*
X132863Y946331D01*
X132934Y946323D01*
X133004Y946305D01*
X133056Y946310D01*
X133107Y946304D01*
X133178Y946319D01*
X133249Y946325D01*
X133297Y946345D01*
X133348Y946356D01*
X133409Y946393D01*
X133475Y946421D01*
X133531Y946466D01*
X133559Y946482D01*
X133574Y946500D01*
X133606Y946526D01*
X134565Y947485D01*
X137897Y948865D01*
X141503Y948865D01*
X144835Y947485D01*
X147385Y944935D01*
X148765Y941603D01*
X148765Y937997D01*
X147385Y934665D01*
X144835Y932115D01*
X141503Y930735D01*
X137897Y930735D01*
X134565Y932115D01*
X132015Y934665D01*
X130635Y937997D01*
X130635Y940443D01*
X130624Y940513D01*
X130622Y940585D01*
X130604Y940634D01*
X130596Y940685D01*
X130562Y940749D01*
X130537Y940816D01*
X130505Y940857D01*
X130480Y940903D01*
X130429Y940952D01*
X130384Y941008D01*
X130340Y941036D01*
X130302Y941072D01*
X130237Y941102D01*
X130177Y941141D01*
X130126Y941154D01*
X130079Y941176D01*
X130008Y941184D01*
X129938Y941201D01*
X129886Y941197D01*
X129835Y941203D01*
X129764Y941188D01*
X129693Y941182D01*
X129645Y941162D01*
X129594Y941151D01*
X129533Y941114D01*
X129467Y941086D01*
X129411Y941041D01*
X129383Y941024D01*
X129368Y941007D01*
X129336Y940981D01*
X129198Y940843D01*
X124802Y940843D01*
X124664Y940981D01*
X124606Y941023D01*
X124554Y941072D01*
X124507Y941094D01*
X124465Y941124D01*
X124396Y941146D01*
X124331Y941176D01*
X124279Y941181D01*
X124229Y941197D01*
X124158Y941195D01*
X124087Y941203D01*
X124036Y941192D01*
X123984Y941190D01*
X123916Y941166D01*
X123846Y941151D01*
X123801Y941124D01*
X123753Y941106D01*
X123697Y941061D01*
X123635Y941024D01*
X123601Y940985D01*
X123561Y940952D01*
X123522Y940892D01*
X123475Y940837D01*
X123456Y940789D01*
X123428Y940745D01*
X123410Y940676D01*
X123383Y940609D01*
X123375Y940538D01*
X123367Y940507D01*
X123369Y940484D01*
X123365Y940443D01*
X123365Y937997D01*
X121985Y934665D01*
X119435Y932115D01*
X116103Y930735D01*
X112497Y930735D01*
G37*
%LPD*%
%LPC*%
G36*
X1043517Y985340D02*
X1043517Y985340D01*
X1037857Y987685D01*
X1033525Y992017D01*
X1031180Y997677D01*
X1031180Y1003803D01*
X1033525Y1009463D01*
X1037857Y1013795D01*
X1043517Y1016140D01*
X1049643Y1016140D01*
X1055303Y1013795D01*
X1059635Y1009463D01*
X1061980Y1003803D01*
X1061980Y997677D01*
X1059635Y992017D01*
X1055303Y987685D01*
X1049643Y985340D01*
X1043517Y985340D01*
G37*
%LPD*%
%LPC*%
G36*
X1043517Y774340D02*
X1043517Y774340D01*
X1037857Y776685D01*
X1033525Y781017D01*
X1031180Y786677D01*
X1031180Y792803D01*
X1033525Y798463D01*
X1037857Y802795D01*
X1043517Y805140D01*
X1049643Y805140D01*
X1055303Y802795D01*
X1059635Y798463D01*
X1061980Y792803D01*
X1061980Y786677D01*
X1059635Y781017D01*
X1055303Y776685D01*
X1049643Y774340D01*
X1043517Y774340D01*
G37*
%LPD*%
%LPC*%
G36*
X350607Y570229D02*
X350607Y570229D01*
X346779Y571815D01*
X343850Y574744D01*
X342264Y578572D01*
X342264Y582716D01*
X343850Y586544D01*
X346779Y589473D01*
X350607Y591059D01*
X354751Y591059D01*
X358567Y589478D01*
X358680Y589451D01*
X358794Y589423D01*
X358800Y589423D01*
X358806Y589422D01*
X358923Y589433D01*
X359039Y589442D01*
X359045Y589444D01*
X359051Y589445D01*
X359159Y589493D01*
X359266Y589538D01*
X359271Y589543D01*
X359276Y589545D01*
X359290Y589558D01*
X359397Y589643D01*
X365945Y596192D01*
X365998Y596266D01*
X366058Y596335D01*
X366070Y596365D01*
X366089Y596391D01*
X366116Y596478D01*
X366150Y596563D01*
X366154Y596604D01*
X366161Y596627D01*
X366160Y596659D01*
X366168Y596730D01*
X366168Y600686D01*
X368965Y603483D01*
X369018Y603557D01*
X369078Y603626D01*
X369090Y603656D01*
X369109Y603682D01*
X369136Y603769D01*
X369170Y603854D01*
X369174Y603895D01*
X369181Y603917D01*
X369180Y603950D01*
X369188Y604021D01*
X369188Y637404D01*
X369174Y637494D01*
X369166Y637585D01*
X369154Y637615D01*
X369149Y637647D01*
X369106Y637727D01*
X369070Y637811D01*
X369044Y637844D01*
X369033Y637864D01*
X369010Y637886D01*
X368965Y637942D01*
X367756Y639152D01*
X367756Y643548D01*
X370864Y646657D01*
X375261Y646657D01*
X378369Y643548D01*
X378369Y639152D01*
X375261Y636043D01*
X374523Y636043D01*
X374503Y636040D01*
X374484Y636042D01*
X374382Y636020D01*
X374280Y636004D01*
X374263Y635994D01*
X374243Y635990D01*
X374154Y635937D01*
X374063Y635888D01*
X374049Y635874D01*
X374032Y635864D01*
X373965Y635785D01*
X373893Y635710D01*
X373885Y635692D01*
X373872Y635677D01*
X373833Y635581D01*
X373790Y635487D01*
X373788Y635467D01*
X373780Y635449D01*
X373762Y635282D01*
X373762Y604021D01*
X373776Y603931D01*
X373784Y603840D01*
X373796Y603810D01*
X373801Y603778D01*
X373844Y603698D01*
X373880Y603614D01*
X373906Y603582D01*
X373917Y603561D01*
X373940Y603539D01*
X373985Y603483D01*
X376782Y600686D01*
X376782Y596289D01*
X373673Y593181D01*
X369718Y593181D01*
X369627Y593166D01*
X369537Y593159D01*
X369507Y593146D01*
X369475Y593141D01*
X369394Y593098D01*
X369310Y593063D01*
X369278Y593037D01*
X369257Y593026D01*
X369235Y593003D01*
X369179Y592958D01*
X362236Y586015D01*
X362168Y585921D01*
X362098Y585826D01*
X362096Y585820D01*
X362092Y585815D01*
X362058Y585704D01*
X362022Y585592D01*
X362022Y585586D01*
X362020Y585580D01*
X362023Y585463D01*
X362024Y585346D01*
X362026Y585339D01*
X362026Y585334D01*
X362033Y585316D01*
X362071Y585185D01*
X363094Y582716D01*
X363094Y578572D01*
X361508Y574744D01*
X358579Y571815D01*
X354751Y570229D01*
X350607Y570229D01*
G37*
%LPD*%
%LPC*%
G36*
X529042Y572134D02*
X529042Y572134D01*
X525214Y573720D01*
X522285Y576649D01*
X520699Y580477D01*
X520699Y584621D01*
X521294Y586057D01*
X521321Y586171D01*
X521350Y586284D01*
X521349Y586291D01*
X521350Y586297D01*
X521339Y586413D01*
X521330Y586530D01*
X521328Y586535D01*
X521327Y586542D01*
X521280Y586649D01*
X521234Y586756D01*
X521229Y586762D01*
X521227Y586766D01*
X521215Y586780D01*
X521129Y586887D01*
X486483Y621533D01*
X486409Y621586D01*
X486340Y621645D01*
X486310Y621658D01*
X486284Y621676D01*
X486197Y621703D01*
X486112Y621737D01*
X486071Y621742D01*
X486048Y621749D01*
X486016Y621748D01*
X485945Y621756D01*
X481989Y621756D01*
X478881Y624864D01*
X478881Y629261D01*
X481989Y632369D01*
X486386Y632369D01*
X489494Y629261D01*
X489494Y625305D01*
X489509Y625215D01*
X489516Y625124D01*
X489529Y625094D01*
X489534Y625062D01*
X489577Y624982D01*
X489612Y624898D01*
X489638Y624866D01*
X489649Y624845D01*
X489672Y624823D01*
X489717Y624767D01*
X523622Y590862D01*
X523638Y590850D01*
X523650Y590835D01*
X523738Y590779D01*
X523822Y590719D01*
X523841Y590713D01*
X523857Y590702D01*
X523958Y590677D01*
X524057Y590646D01*
X524077Y590647D01*
X524096Y590642D01*
X524199Y590650D01*
X524303Y590653D01*
X524321Y590659D01*
X524341Y590661D01*
X524436Y590701D01*
X524534Y590737D01*
X524549Y590750D01*
X524567Y590757D01*
X524698Y590862D01*
X525214Y591378D01*
X529042Y592964D01*
X533186Y592964D01*
X537014Y591378D01*
X539943Y588449D01*
X541529Y584621D01*
X541529Y580477D01*
X539943Y576649D01*
X537014Y573720D01*
X533186Y572134D01*
X529042Y572134D01*
G37*
%LPD*%
%LPC*%
G36*
X223862Y853213D02*
X223862Y853213D01*
X220753Y856322D01*
X220753Y860718D01*
X223862Y863827D01*
X227817Y863827D01*
X227908Y863841D01*
X227998Y863849D01*
X228028Y863861D01*
X228060Y863866D01*
X228141Y863909D01*
X228225Y863945D01*
X228257Y863971D01*
X228278Y863982D01*
X228300Y864005D01*
X228356Y864050D01*
X253053Y888747D01*
X313972Y888747D01*
X313992Y888750D01*
X314011Y888748D01*
X314113Y888770D01*
X314215Y888786D01*
X314232Y888796D01*
X314252Y888800D01*
X314341Y888853D01*
X314432Y888902D01*
X314446Y888916D01*
X314463Y888926D01*
X314530Y889005D01*
X314602Y889080D01*
X314610Y889098D01*
X314623Y889113D01*
X314662Y889209D01*
X314705Y889303D01*
X314707Y889323D01*
X314715Y889341D01*
X314733Y889508D01*
X314733Y891198D01*
X317842Y894307D01*
X322238Y894307D01*
X325347Y891198D01*
X325347Y886802D01*
X322238Y883693D01*
X317842Y883693D01*
X317585Y883950D01*
X317511Y884003D01*
X317441Y884063D01*
X317411Y884075D01*
X317385Y884094D01*
X317298Y884121D01*
X317213Y884155D01*
X317172Y884159D01*
X317150Y884166D01*
X317118Y884165D01*
X317047Y884173D01*
X255263Y884173D01*
X255172Y884159D01*
X255082Y884151D01*
X255052Y884139D01*
X255020Y884134D01*
X254939Y884091D01*
X254855Y884055D01*
X254823Y884029D01*
X254802Y884018D01*
X254780Y883995D01*
X254724Y883950D01*
X231590Y860816D01*
X231537Y860742D01*
X231477Y860672D01*
X231465Y860642D01*
X231446Y860616D01*
X231419Y860529D01*
X231385Y860444D01*
X231381Y860403D01*
X231374Y860381D01*
X231375Y860349D01*
X231367Y860277D01*
X231367Y856322D01*
X228258Y853213D01*
X223862Y853213D01*
G37*
%LPD*%
%LPC*%
G36*
X681062Y916713D02*
X681062Y916713D01*
X677953Y919822D01*
X677953Y924218D01*
X681062Y927327D01*
X685458Y927327D01*
X686477Y926308D01*
X686551Y926255D01*
X686621Y926195D01*
X686651Y926183D01*
X686677Y926164D01*
X686764Y926137D01*
X686849Y926103D01*
X686890Y926099D01*
X686912Y926092D01*
X686944Y926093D01*
X687015Y926085D01*
X737925Y926085D01*
X738015Y926099D01*
X738106Y926107D01*
X738135Y926119D01*
X738167Y926124D01*
X738248Y926167D01*
X738332Y926203D01*
X738364Y926229D01*
X738385Y926240D01*
X738407Y926263D01*
X738463Y926308D01*
X739482Y927327D01*
X743878Y927327D01*
X746987Y924218D01*
X746987Y919822D01*
X743878Y916713D01*
X739482Y916713D01*
X738463Y917732D01*
X738389Y917785D01*
X738319Y917845D01*
X738289Y917857D01*
X738263Y917876D01*
X738176Y917903D01*
X738091Y917937D01*
X738050Y917941D01*
X738028Y917948D01*
X737996Y917947D01*
X737925Y917955D01*
X687015Y917955D01*
X686925Y917941D01*
X686834Y917933D01*
X686805Y917921D01*
X686773Y917916D01*
X686692Y917873D01*
X686608Y917837D01*
X686576Y917811D01*
X686555Y917800D01*
X686533Y917777D01*
X686477Y917732D01*
X685458Y916713D01*
X681062Y916713D01*
G37*
%LPD*%
%LPC*%
G36*
X759802Y573813D02*
X759802Y573813D01*
X756693Y576922D01*
X756693Y581318D01*
X757362Y581987D01*
X757374Y582003D01*
X757390Y582016D01*
X757446Y582103D01*
X757506Y582187D01*
X757512Y582206D01*
X757523Y582223D01*
X757548Y582323D01*
X757578Y582422D01*
X757578Y582442D01*
X757583Y582461D01*
X757575Y582564D01*
X757572Y582668D01*
X757565Y582687D01*
X757563Y582706D01*
X757523Y582801D01*
X757487Y582899D01*
X757475Y582915D01*
X757467Y582933D01*
X757362Y583064D01*
X698256Y642170D01*
X698182Y642223D01*
X698112Y642283D01*
X698082Y642295D01*
X698056Y642314D01*
X697969Y642341D01*
X697884Y642375D01*
X697843Y642379D01*
X697821Y642386D01*
X697789Y642385D01*
X697717Y642393D01*
X693762Y642393D01*
X690653Y645502D01*
X690653Y649898D01*
X693762Y653007D01*
X698158Y653007D01*
X701267Y649898D01*
X701267Y645943D01*
X701281Y645852D01*
X701289Y645762D01*
X701301Y645732D01*
X701306Y645700D01*
X701349Y645619D01*
X701385Y645535D01*
X701411Y645503D01*
X701422Y645482D01*
X701445Y645460D01*
X701490Y645404D01*
X762244Y584650D01*
X762318Y584597D01*
X762388Y584537D01*
X762418Y584525D01*
X762444Y584506D01*
X762531Y584479D01*
X762616Y584445D01*
X762657Y584441D01*
X762679Y584434D01*
X762711Y584435D01*
X762782Y584427D01*
X764198Y584427D01*
X767307Y581318D01*
X767307Y576922D01*
X764198Y573813D01*
X759802Y573813D01*
G37*
%LPD*%
%LPC*%
G36*
X223862Y876073D02*
X223862Y876073D01*
X220753Y879182D01*
X220753Y883578D01*
X223862Y886687D01*
X227817Y886687D01*
X227908Y886701D01*
X227998Y886709D01*
X228028Y886721D01*
X228060Y886726D01*
X228141Y886769D01*
X228225Y886805D01*
X228257Y886831D01*
X228278Y886842D01*
X228300Y886865D01*
X228356Y886910D01*
X250513Y909067D01*
X304347Y909067D01*
X304437Y909081D01*
X304528Y909089D01*
X304557Y909101D01*
X304589Y909106D01*
X304670Y909149D01*
X304754Y909185D01*
X304786Y909211D01*
X304807Y909222D01*
X304829Y909245D01*
X304885Y909290D01*
X307682Y912087D01*
X312078Y912087D01*
X315187Y908978D01*
X315187Y904582D01*
X312078Y901473D01*
X307682Y901473D01*
X304885Y904270D01*
X304811Y904323D01*
X304741Y904383D01*
X304711Y904395D01*
X304685Y904414D01*
X304598Y904441D01*
X304513Y904475D01*
X304472Y904479D01*
X304450Y904486D01*
X304418Y904485D01*
X304347Y904493D01*
X252723Y904493D01*
X252632Y904479D01*
X252542Y904471D01*
X252512Y904459D01*
X252480Y904454D01*
X252399Y904411D01*
X252315Y904375D01*
X252283Y904349D01*
X252262Y904338D01*
X252240Y904315D01*
X252184Y904270D01*
X231590Y883676D01*
X231537Y883602D01*
X231477Y883532D01*
X231465Y883502D01*
X231446Y883476D01*
X231419Y883389D01*
X231385Y883304D01*
X231381Y883263D01*
X231374Y883241D01*
X231375Y883209D01*
X231367Y883137D01*
X231367Y879182D01*
X228258Y876073D01*
X223862Y876073D01*
G37*
%LPD*%
%LPC*%
G36*
X427062Y749073D02*
X427062Y749073D01*
X423953Y752182D01*
X423953Y753597D01*
X423939Y753688D01*
X423931Y753778D01*
X423919Y753808D01*
X423914Y753840D01*
X423871Y753921D01*
X423835Y754005D01*
X423809Y754037D01*
X423798Y754058D01*
X423775Y754080D01*
X423730Y754136D01*
X398711Y779155D01*
X398617Y779223D01*
X398522Y779293D01*
X398516Y779295D01*
X398511Y779299D01*
X398400Y779333D01*
X398288Y779369D01*
X398282Y779369D01*
X398276Y779371D01*
X398159Y779368D01*
X398042Y779367D01*
X398035Y779365D01*
X398030Y779365D01*
X398013Y779358D01*
X397881Y779320D01*
X395503Y778335D01*
X391897Y778335D01*
X388565Y779715D01*
X386015Y782265D01*
X384635Y785597D01*
X384635Y789203D01*
X386015Y792535D01*
X388565Y795085D01*
X391897Y796465D01*
X395503Y796465D01*
X398835Y795085D01*
X401385Y792535D01*
X402765Y789203D01*
X402765Y785597D01*
X401780Y783219D01*
X401753Y783105D01*
X401724Y782992D01*
X401725Y782985D01*
X401724Y782979D01*
X401735Y782863D01*
X401744Y782746D01*
X401746Y782741D01*
X401747Y782734D01*
X401794Y782627D01*
X401840Y782520D01*
X401845Y782514D01*
X401847Y782510D01*
X401859Y782496D01*
X401945Y782389D01*
X425316Y759018D01*
X425332Y759006D01*
X425345Y758990D01*
X425432Y758934D01*
X425516Y758874D01*
X425535Y758868D01*
X425552Y758857D01*
X425652Y758832D01*
X425751Y758802D01*
X425771Y758802D01*
X425790Y758797D01*
X425893Y758805D01*
X425997Y758808D01*
X426016Y758815D01*
X426036Y758817D01*
X426130Y758857D01*
X426228Y758893D01*
X426244Y758905D01*
X426262Y758913D01*
X426393Y759018D01*
X427062Y759687D01*
X431458Y759687D01*
X434567Y756578D01*
X434567Y752182D01*
X431458Y749073D01*
X427062Y749073D01*
G37*
%LPD*%
%LPC*%
G36*
X161314Y893218D02*
X161314Y893218D01*
X158206Y896327D01*
X158206Y900723D01*
X161003Y903520D01*
X161047Y903582D01*
X161076Y903613D01*
X161082Y903624D01*
X161115Y903664D01*
X161128Y903694D01*
X161146Y903720D01*
X161173Y903807D01*
X161207Y903892D01*
X161212Y903933D01*
X161219Y903955D01*
X161218Y903987D01*
X161226Y904058D01*
X161226Y931085D01*
X161207Y931199D01*
X161190Y931315D01*
X161187Y931321D01*
X161186Y931327D01*
X161132Y931430D01*
X161078Y931535D01*
X161074Y931539D01*
X161071Y931545D01*
X160987Y931624D01*
X160903Y931707D01*
X160896Y931711D01*
X160893Y931714D01*
X160876Y931722D01*
X160756Y931788D01*
X159965Y932115D01*
X157415Y934665D01*
X156035Y937997D01*
X156035Y941603D01*
X157415Y944935D01*
X159965Y947485D01*
X163297Y948865D01*
X166903Y948865D01*
X170235Y947485D01*
X172785Y944935D01*
X174165Y941603D01*
X174165Y937997D01*
X172785Y934665D01*
X170235Y932115D01*
X166903Y930735D01*
X166560Y930735D01*
X166541Y930732D01*
X166521Y930734D01*
X166420Y930712D01*
X166318Y930696D01*
X166300Y930686D01*
X166281Y930682D01*
X166192Y930629D01*
X166100Y930580D01*
X166087Y930566D01*
X166070Y930556D01*
X166002Y930477D01*
X165931Y930402D01*
X165923Y930384D01*
X165910Y930369D01*
X165871Y930273D01*
X165827Y930179D01*
X165825Y930159D01*
X165818Y930141D01*
X165799Y929974D01*
X165799Y904058D01*
X165814Y903968D01*
X165821Y903877D01*
X165834Y903848D01*
X165839Y903816D01*
X165882Y903735D01*
X165917Y903651D01*
X165943Y903619D01*
X165954Y903598D01*
X165977Y903576D01*
X165990Y903560D01*
X165996Y903550D01*
X166003Y903544D01*
X166022Y903520D01*
X168819Y900723D01*
X168819Y896327D01*
X165711Y893218D01*
X161314Y893218D01*
G37*
%LPD*%
%LPC*%
G36*
X391502Y708433D02*
X391502Y708433D01*
X388393Y711542D01*
X388393Y715938D01*
X391502Y719047D01*
X395898Y719047D01*
X398695Y716250D01*
X398769Y716197D01*
X398839Y716137D01*
X398869Y716125D01*
X398895Y716106D01*
X398982Y716079D01*
X399067Y716045D01*
X399108Y716041D01*
X399130Y716034D01*
X399162Y716035D01*
X399233Y716027D01*
X461827Y716027D01*
X461917Y716041D01*
X462008Y716049D01*
X462037Y716061D01*
X462069Y716066D01*
X462150Y716109D01*
X462234Y716145D01*
X462266Y716171D01*
X462287Y716182D01*
X462309Y716205D01*
X462365Y716250D01*
X465162Y719047D01*
X469558Y719047D01*
X472667Y715938D01*
X472667Y711542D01*
X469558Y708433D01*
X465162Y708433D01*
X462365Y711230D01*
X462291Y711283D01*
X462221Y711343D01*
X462191Y711355D01*
X462165Y711374D01*
X462078Y711401D01*
X461993Y711435D01*
X461952Y711439D01*
X461930Y711446D01*
X461898Y711445D01*
X461827Y711453D01*
X399233Y711453D01*
X399143Y711439D01*
X399052Y711431D01*
X399023Y711419D01*
X398991Y711414D01*
X398910Y711371D01*
X398826Y711335D01*
X398794Y711309D01*
X398773Y711298D01*
X398765Y711290D01*
X398749Y711274D01*
X398695Y711230D01*
X395898Y708433D01*
X391502Y708433D01*
G37*
%LPD*%
%LPC*%
G36*
X495642Y916713D02*
X495642Y916713D01*
X492533Y919822D01*
X492533Y924218D01*
X495642Y927327D01*
X500038Y927327D01*
X501057Y926308D01*
X501131Y926255D01*
X501201Y926195D01*
X501231Y926183D01*
X501257Y926164D01*
X501344Y926137D01*
X501429Y926103D01*
X501470Y926099D01*
X501492Y926092D01*
X501524Y926093D01*
X501595Y926085D01*
X537265Y926085D01*
X537355Y926099D01*
X537446Y926107D01*
X537475Y926119D01*
X537507Y926124D01*
X537588Y926167D01*
X537672Y926203D01*
X537704Y926229D01*
X537725Y926240D01*
X537747Y926263D01*
X537803Y926308D01*
X538822Y927327D01*
X543218Y927327D01*
X546327Y924218D01*
X546327Y919822D01*
X543218Y916713D01*
X538822Y916713D01*
X537803Y917732D01*
X537729Y917785D01*
X537659Y917845D01*
X537629Y917857D01*
X537603Y917876D01*
X537516Y917903D01*
X537431Y917937D01*
X537390Y917941D01*
X537368Y917948D01*
X537336Y917947D01*
X537265Y917955D01*
X501595Y917955D01*
X501505Y917941D01*
X501414Y917933D01*
X501385Y917921D01*
X501353Y917916D01*
X501272Y917873D01*
X501188Y917837D01*
X501156Y917811D01*
X501135Y917800D01*
X501113Y917777D01*
X501057Y917732D01*
X500038Y916713D01*
X495642Y916713D01*
G37*
%LPD*%
%LPC*%
G36*
X651179Y600582D02*
X651179Y600582D01*
X647164Y602245D01*
X644092Y605318D01*
X642429Y609332D01*
X642429Y613678D01*
X644092Y617692D01*
X647164Y620765D01*
X651179Y622428D01*
X655524Y622428D01*
X659539Y620765D01*
X662611Y617692D01*
X664274Y613678D01*
X664274Y609332D01*
X662611Y605318D01*
X659539Y602245D01*
X655524Y600582D01*
X651179Y600582D01*
G37*
%LPD*%
%LPC*%
G36*
X208139Y722629D02*
X208139Y722629D01*
X204125Y724292D01*
X201052Y727365D01*
X199389Y731379D01*
X199389Y735725D01*
X201052Y739739D01*
X204125Y742812D01*
X208139Y744475D01*
X212485Y744475D01*
X216499Y742812D01*
X219572Y739739D01*
X221235Y735725D01*
X221235Y731379D01*
X219572Y727365D01*
X216499Y724292D01*
X212485Y722629D01*
X208139Y722629D01*
G37*
%LPD*%
%LPC*%
G36*
X719187Y1007617D02*
X719187Y1007617D01*
X715173Y1009280D01*
X712100Y1012353D01*
X710437Y1016367D01*
X710437Y1020713D01*
X712100Y1024727D01*
X715173Y1027800D01*
X719187Y1029463D01*
X723533Y1029463D01*
X727547Y1027800D01*
X730620Y1024727D01*
X732283Y1020713D01*
X732283Y1016367D01*
X730620Y1012353D01*
X727547Y1009280D01*
X723533Y1007617D01*
X719187Y1007617D01*
G37*
%LPD*%
%LPC*%
G36*
X719187Y982217D02*
X719187Y982217D01*
X715173Y983880D01*
X712100Y986953D01*
X710437Y990967D01*
X710437Y995313D01*
X712100Y999327D01*
X715173Y1002400D01*
X719187Y1004063D01*
X723533Y1004063D01*
X727547Y1002400D01*
X730620Y999327D01*
X732283Y995313D01*
X732283Y990967D01*
X730620Y986953D01*
X727547Y983880D01*
X723533Y982217D01*
X719187Y982217D01*
G37*
%LPD*%
%LPC*%
G36*
X719187Y860297D02*
X719187Y860297D01*
X715173Y861960D01*
X712100Y865033D01*
X710437Y869047D01*
X710437Y873393D01*
X712100Y877407D01*
X715173Y880480D01*
X719187Y882143D01*
X723533Y882143D01*
X727547Y880480D01*
X730620Y877407D01*
X732283Y873393D01*
X732283Y869047D01*
X730620Y865033D01*
X727547Y861960D01*
X723533Y860297D01*
X719187Y860297D01*
G37*
%LPD*%
%LPC*%
G36*
X182739Y722629D02*
X182739Y722629D01*
X178725Y724292D01*
X175652Y727365D01*
X173989Y731379D01*
X173989Y735725D01*
X175652Y739739D01*
X178725Y742812D01*
X182739Y744475D01*
X187085Y744475D01*
X191099Y742812D01*
X194172Y739739D01*
X195835Y735725D01*
X195835Y731379D01*
X194172Y727365D01*
X191099Y724292D01*
X187085Y722629D01*
X182739Y722629D01*
G37*
%LPD*%
%LPC*%
G36*
X651179Y676782D02*
X651179Y676782D01*
X647164Y678445D01*
X644092Y681518D01*
X642429Y685532D01*
X642429Y689878D01*
X644092Y693892D01*
X647164Y696965D01*
X651179Y698628D01*
X655524Y698628D01*
X659539Y696965D01*
X662611Y693892D01*
X664274Y689878D01*
X664274Y685532D01*
X662611Y681518D01*
X659539Y678445D01*
X655524Y676782D01*
X651179Y676782D01*
G37*
%LPD*%
%LPC*%
G36*
X157339Y722629D02*
X157339Y722629D01*
X153325Y724292D01*
X150252Y727365D01*
X148589Y731379D01*
X148589Y735725D01*
X150252Y739739D01*
X153325Y742812D01*
X157339Y744475D01*
X161685Y744475D01*
X165699Y742812D01*
X168772Y739739D01*
X170435Y735725D01*
X170435Y731379D01*
X168772Y727365D01*
X165699Y724292D01*
X161685Y722629D01*
X157339Y722629D01*
G37*
%LPD*%
%LPC*%
G36*
X1217027Y677417D02*
X1217027Y677417D01*
X1213013Y679080D01*
X1209940Y682153D01*
X1208277Y686167D01*
X1208277Y690513D01*
X1209940Y694527D01*
X1213013Y697600D01*
X1217027Y699263D01*
X1221373Y699263D01*
X1225387Y697600D01*
X1228460Y694527D01*
X1230123Y690513D01*
X1230123Y686167D01*
X1228460Y682153D01*
X1225387Y679080D01*
X1221373Y677417D01*
X1217027Y677417D01*
G37*
%LPD*%
%LPC*%
G36*
X1090027Y677417D02*
X1090027Y677417D01*
X1086013Y679080D01*
X1082940Y682153D01*
X1081277Y686167D01*
X1081277Y690513D01*
X1082940Y694527D01*
X1086013Y697600D01*
X1090027Y699263D01*
X1094373Y699263D01*
X1098387Y697600D01*
X1101460Y694527D01*
X1103123Y690513D01*
X1103123Y686167D01*
X1101460Y682153D01*
X1098387Y679080D01*
X1094373Y677417D01*
X1090027Y677417D01*
G37*
%LPD*%
%LPC*%
G36*
X719187Y931417D02*
X719187Y931417D01*
X715173Y933080D01*
X712100Y936153D01*
X710437Y940167D01*
X710437Y944513D01*
X712100Y948527D01*
X715173Y951600D01*
X719187Y953263D01*
X723533Y953263D01*
X727547Y951600D01*
X730620Y948527D01*
X732283Y944513D01*
X732283Y940167D01*
X730620Y936153D01*
X727547Y933080D01*
X723533Y931417D01*
X719187Y931417D01*
G37*
%LPD*%
%LPC*%
G36*
X1090027Y550417D02*
X1090027Y550417D01*
X1086013Y552080D01*
X1082940Y555153D01*
X1081277Y559167D01*
X1081277Y563513D01*
X1082940Y567527D01*
X1086013Y570600D01*
X1090027Y572263D01*
X1094373Y572263D01*
X1098387Y570600D01*
X1101460Y567527D01*
X1103123Y563513D01*
X1103123Y559167D01*
X1101460Y555153D01*
X1098387Y552080D01*
X1094373Y550417D01*
X1090027Y550417D01*
G37*
%LPD*%
%LPC*%
G36*
X651179Y549782D02*
X651179Y549782D01*
X647164Y551445D01*
X644092Y554518D01*
X642429Y558532D01*
X642429Y562878D01*
X644092Y566892D01*
X647164Y569965D01*
X651179Y571628D01*
X655524Y571628D01*
X659539Y569965D01*
X662611Y566892D01*
X664274Y562878D01*
X664274Y558532D01*
X662611Y554518D01*
X659539Y551445D01*
X655524Y549782D01*
X651179Y549782D01*
G37*
%LPD*%
%LPC*%
G36*
X106539Y722629D02*
X106539Y722629D01*
X102525Y724292D01*
X99452Y727365D01*
X97789Y731379D01*
X97789Y735725D01*
X99452Y739739D01*
X102525Y742812D01*
X106539Y744475D01*
X110885Y744475D01*
X114899Y742812D01*
X117972Y739739D01*
X119635Y735725D01*
X119635Y731379D01*
X117972Y727365D01*
X114899Y724292D01*
X110885Y722629D01*
X106539Y722629D01*
G37*
%LPD*%
%LPC*%
G36*
X261987Y1038097D02*
X261987Y1038097D01*
X257973Y1039760D01*
X254900Y1042833D01*
X253237Y1046847D01*
X253237Y1051193D01*
X254900Y1055207D01*
X257973Y1058280D01*
X261987Y1059943D01*
X266333Y1059943D01*
X270347Y1058280D01*
X273420Y1055207D01*
X275083Y1051193D01*
X275083Y1046847D01*
X273420Y1042833D01*
X270347Y1039760D01*
X266333Y1038097D01*
X261987Y1038097D01*
G37*
%LPD*%
%LPC*%
G36*
X188327Y1038097D02*
X188327Y1038097D01*
X184313Y1039760D01*
X181240Y1042833D01*
X179577Y1046847D01*
X179577Y1051193D01*
X181240Y1055207D01*
X184313Y1058280D01*
X188327Y1059943D01*
X192673Y1059943D01*
X196687Y1058280D01*
X199760Y1055207D01*
X201423Y1051193D01*
X201423Y1046847D01*
X199760Y1042833D01*
X196687Y1039760D01*
X192673Y1038097D01*
X188327Y1038097D01*
G37*
%LPD*%
%LPC*%
G36*
X1217027Y550417D02*
X1217027Y550417D01*
X1213013Y552080D01*
X1209940Y555153D01*
X1208277Y559167D01*
X1208277Y563513D01*
X1209940Y567527D01*
X1213013Y570600D01*
X1217027Y572263D01*
X1221373Y572263D01*
X1225387Y570600D01*
X1228460Y567527D01*
X1230123Y563513D01*
X1230123Y559167D01*
X1228460Y555153D01*
X1225387Y552080D01*
X1221373Y550417D01*
X1217027Y550417D01*
G37*
%LPD*%
%LPC*%
G36*
X287387Y1038097D02*
X287387Y1038097D01*
X283373Y1039760D01*
X280300Y1042833D01*
X278637Y1046847D01*
X278637Y1051193D01*
X280300Y1055207D01*
X283373Y1058280D01*
X287387Y1059943D01*
X291733Y1059943D01*
X295747Y1058280D01*
X298820Y1055207D01*
X300483Y1051193D01*
X300483Y1046847D01*
X298820Y1042833D01*
X295747Y1039760D01*
X291733Y1038097D01*
X287387Y1038097D01*
G37*
%LPD*%
%LPC*%
G36*
X1217027Y626617D02*
X1217027Y626617D01*
X1213013Y628280D01*
X1209940Y631353D01*
X1208277Y635367D01*
X1208277Y639713D01*
X1209940Y643727D01*
X1213013Y646800D01*
X1217027Y648463D01*
X1221373Y648463D01*
X1225387Y646800D01*
X1228460Y643727D01*
X1230123Y639713D01*
X1230123Y635367D01*
X1228460Y631353D01*
X1225387Y628280D01*
X1221373Y626617D01*
X1217027Y626617D01*
G37*
%LPD*%
%LPC*%
G36*
X651179Y625982D02*
X651179Y625982D01*
X647164Y627645D01*
X644092Y630718D01*
X642429Y634732D01*
X642429Y639078D01*
X644092Y643092D01*
X647164Y646165D01*
X651179Y647828D01*
X655524Y647828D01*
X659539Y646165D01*
X662611Y643092D01*
X664274Y639078D01*
X664274Y634732D01*
X662611Y630718D01*
X659539Y627645D01*
X655524Y625982D01*
X651179Y625982D01*
G37*
%LPD*%
%LPC*%
G36*
X1217027Y575817D02*
X1217027Y575817D01*
X1213013Y577480D01*
X1209940Y580553D01*
X1208277Y584567D01*
X1208277Y588913D01*
X1209940Y592927D01*
X1213013Y596000D01*
X1217027Y597663D01*
X1221373Y597663D01*
X1225387Y596000D01*
X1228460Y592927D01*
X1230123Y588913D01*
X1230123Y584567D01*
X1228460Y580553D01*
X1225387Y577480D01*
X1221373Y575817D01*
X1217027Y575817D01*
G37*
%LPD*%
%LPC*%
G36*
X162927Y1038097D02*
X162927Y1038097D01*
X158913Y1039760D01*
X155840Y1042833D01*
X154177Y1046847D01*
X154177Y1051193D01*
X155840Y1055207D01*
X158913Y1058280D01*
X162927Y1059943D01*
X167273Y1059943D01*
X171287Y1058280D01*
X174360Y1055207D01*
X176023Y1051193D01*
X176023Y1046847D01*
X174360Y1042833D01*
X171287Y1039760D01*
X167273Y1038097D01*
X162927Y1038097D01*
G37*
%LPD*%
%LPC*%
G36*
X137527Y1038097D02*
X137527Y1038097D01*
X133513Y1039760D01*
X130440Y1042833D01*
X128777Y1046847D01*
X128777Y1051193D01*
X130440Y1055207D01*
X133513Y1058280D01*
X137527Y1059943D01*
X141873Y1059943D01*
X145887Y1058280D01*
X148960Y1055207D01*
X150623Y1051193D01*
X150623Y1046847D01*
X148960Y1042833D01*
X145887Y1039760D01*
X141873Y1038097D01*
X137527Y1038097D01*
G37*
%LPD*%
%LPC*%
G36*
X1090027Y575817D02*
X1090027Y575817D01*
X1086013Y577480D01*
X1082940Y580553D01*
X1081277Y584567D01*
X1081277Y588913D01*
X1082940Y592927D01*
X1086013Y596000D01*
X1090027Y597663D01*
X1094373Y597663D01*
X1098387Y596000D01*
X1101460Y592927D01*
X1103123Y588913D01*
X1103123Y584567D01*
X1101460Y580553D01*
X1098387Y577480D01*
X1094373Y575817D01*
X1090027Y575817D01*
G37*
%LPD*%
%LPC*%
G36*
X651179Y575182D02*
X651179Y575182D01*
X647164Y576845D01*
X644092Y579918D01*
X642429Y583932D01*
X642429Y588278D01*
X644092Y592292D01*
X647164Y595365D01*
X651179Y597028D01*
X655524Y597028D01*
X659539Y595365D01*
X662611Y592292D01*
X664274Y588278D01*
X664274Y583932D01*
X662611Y579918D01*
X659539Y576845D01*
X655524Y575182D01*
X651179Y575182D01*
G37*
%LPD*%
%LPC*%
G36*
X35927Y1038097D02*
X35927Y1038097D01*
X31913Y1039760D01*
X28840Y1042833D01*
X27177Y1046847D01*
X27177Y1051193D01*
X28840Y1055207D01*
X31913Y1058280D01*
X35927Y1059943D01*
X40273Y1059943D01*
X44287Y1058280D01*
X47360Y1055207D01*
X49023Y1051193D01*
X49023Y1046847D01*
X47360Y1042833D01*
X44287Y1039760D01*
X40273Y1038097D01*
X35927Y1038097D01*
G37*
%LPD*%
%LPC*%
G36*
X86727Y1038097D02*
X86727Y1038097D01*
X82713Y1039760D01*
X79640Y1042833D01*
X77977Y1046847D01*
X77977Y1051193D01*
X79640Y1055207D01*
X82713Y1058280D01*
X86727Y1059943D01*
X91073Y1059943D01*
X95087Y1058280D01*
X98160Y1055207D01*
X99823Y1051193D01*
X99823Y1046847D01*
X98160Y1042833D01*
X95087Y1039760D01*
X91073Y1038097D01*
X86727Y1038097D01*
G37*
%LPD*%
%LPC*%
G36*
X61327Y1038097D02*
X61327Y1038097D01*
X57313Y1039760D01*
X54240Y1042833D01*
X52577Y1046847D01*
X52577Y1051193D01*
X54240Y1055207D01*
X57313Y1058280D01*
X61327Y1059943D01*
X65673Y1059943D01*
X69687Y1058280D01*
X72760Y1055207D01*
X74423Y1051193D01*
X74423Y1046847D01*
X72760Y1042833D01*
X69687Y1039760D01*
X65673Y1038097D01*
X61327Y1038097D01*
G37*
%LPD*%
%LPC*%
G36*
X719187Y784097D02*
X719187Y784097D01*
X715173Y785760D01*
X712100Y788833D01*
X710437Y792847D01*
X710437Y797193D01*
X712100Y801207D01*
X715173Y804280D01*
X719187Y805943D01*
X723533Y805943D01*
X727547Y804280D01*
X730620Y801207D01*
X732283Y797193D01*
X732283Y792847D01*
X730620Y788833D01*
X727547Y785760D01*
X723533Y784097D01*
X719187Y784097D01*
G37*
%LPD*%
%LPC*%
G36*
X651179Y702182D02*
X651179Y702182D01*
X647164Y703845D01*
X644092Y706918D01*
X642429Y710932D01*
X642429Y715278D01*
X644092Y719292D01*
X647164Y722365D01*
X651179Y724028D01*
X655524Y724028D01*
X659539Y722365D01*
X662611Y719292D01*
X664274Y715278D01*
X664274Y710932D01*
X662611Y706918D01*
X659539Y703845D01*
X655524Y702182D01*
X651179Y702182D01*
G37*
%LPD*%
%LPC*%
G36*
X1090027Y601217D02*
X1090027Y601217D01*
X1086013Y602880D01*
X1082940Y605953D01*
X1081277Y609967D01*
X1081277Y614313D01*
X1082940Y618327D01*
X1086013Y621400D01*
X1090027Y623063D01*
X1094373Y623063D01*
X1098387Y621400D01*
X1101460Y618327D01*
X1103123Y614313D01*
X1103123Y609967D01*
X1101460Y605953D01*
X1098387Y602880D01*
X1094373Y601217D01*
X1090027Y601217D01*
G37*
%LPD*%
%LPC*%
G36*
X1217027Y601217D02*
X1217027Y601217D01*
X1213013Y602880D01*
X1209940Y605953D01*
X1208277Y609967D01*
X1208277Y614313D01*
X1209940Y618327D01*
X1213013Y621400D01*
X1217027Y623063D01*
X1221373Y623063D01*
X1225387Y621400D01*
X1228460Y618327D01*
X1230123Y614313D01*
X1230123Y609967D01*
X1228460Y605953D01*
X1225387Y602880D01*
X1221373Y601217D01*
X1217027Y601217D01*
G37*
%LPD*%
%LPC*%
G36*
X719187Y834897D02*
X719187Y834897D01*
X715173Y836560D01*
X712100Y839633D01*
X710437Y843647D01*
X710437Y847993D01*
X712100Y852007D01*
X715173Y855080D01*
X719187Y856743D01*
X723533Y856743D01*
X727547Y855080D01*
X730620Y852007D01*
X732283Y847993D01*
X732283Y843647D01*
X730620Y839633D01*
X727547Y836560D01*
X723533Y834897D01*
X719187Y834897D01*
G37*
%LPD*%
%LPC*%
G36*
X1090027Y652017D02*
X1090027Y652017D01*
X1086013Y653680D01*
X1082940Y656753D01*
X1081277Y660767D01*
X1081277Y665113D01*
X1082940Y669127D01*
X1086013Y672200D01*
X1090027Y673863D01*
X1094373Y673863D01*
X1098387Y672200D01*
X1101460Y669127D01*
X1103123Y665113D01*
X1103123Y660767D01*
X1101460Y656753D01*
X1098387Y653680D01*
X1094373Y652017D01*
X1090027Y652017D01*
G37*
%LPD*%
%LPC*%
G36*
X642987Y1030477D02*
X642987Y1030477D01*
X638973Y1032140D01*
X635900Y1035213D01*
X634237Y1039227D01*
X634237Y1043573D01*
X635900Y1047587D01*
X638973Y1050660D01*
X642987Y1052323D01*
X647333Y1052323D01*
X651347Y1050660D01*
X654420Y1047587D01*
X656083Y1043573D01*
X656083Y1039227D01*
X654420Y1035213D01*
X651347Y1032140D01*
X647333Y1030477D01*
X642987Y1030477D01*
G37*
%LPD*%
%LPC*%
G36*
X1217027Y652017D02*
X1217027Y652017D01*
X1213013Y653680D01*
X1209940Y656753D01*
X1208277Y660767D01*
X1208277Y665113D01*
X1209940Y669127D01*
X1213013Y672200D01*
X1217027Y673863D01*
X1221373Y673863D01*
X1225387Y672200D01*
X1228460Y669127D01*
X1230123Y665113D01*
X1230123Y660767D01*
X1228460Y656753D01*
X1225387Y653680D01*
X1221373Y652017D01*
X1217027Y652017D01*
G37*
%LPD*%
%LPC*%
G36*
X529042Y546734D02*
X529042Y546734D01*
X525214Y548320D01*
X522285Y551249D01*
X520699Y555077D01*
X520699Y559221D01*
X522285Y563049D01*
X525214Y565978D01*
X529042Y567564D01*
X533186Y567564D01*
X537014Y565978D01*
X539943Y563049D01*
X541529Y559221D01*
X541529Y555077D01*
X539943Y551249D01*
X537014Y548320D01*
X533186Y546734D01*
X529042Y546734D01*
G37*
%LPD*%
%LPC*%
G36*
X529042Y648334D02*
X529042Y648334D01*
X525214Y649920D01*
X522285Y652849D01*
X520699Y656677D01*
X520699Y660821D01*
X522285Y664649D01*
X525214Y667578D01*
X529042Y669164D01*
X533186Y669164D01*
X537014Y667578D01*
X539943Y664649D01*
X541529Y660821D01*
X541529Y656677D01*
X539943Y652849D01*
X537014Y649920D01*
X533186Y648334D01*
X529042Y648334D01*
G37*
%LPD*%
%LPC*%
G36*
X350607Y544829D02*
X350607Y544829D01*
X346779Y546415D01*
X343850Y549344D01*
X342264Y553172D01*
X342264Y557316D01*
X343850Y561144D01*
X346779Y564073D01*
X350607Y565659D01*
X354751Y565659D01*
X358579Y564073D01*
X361508Y561144D01*
X363094Y557316D01*
X363094Y553172D01*
X361508Y549344D01*
X358579Y546415D01*
X354751Y544829D01*
X350607Y544829D01*
G37*
%LPD*%
%LPC*%
G36*
X529042Y622934D02*
X529042Y622934D01*
X525214Y624520D01*
X522285Y627449D01*
X520699Y631277D01*
X520699Y635421D01*
X522285Y639249D01*
X525214Y642178D01*
X529042Y643764D01*
X533186Y643764D01*
X537014Y642178D01*
X539943Y639249D01*
X541529Y635421D01*
X541529Y631277D01*
X539943Y627449D01*
X537014Y624520D01*
X533186Y622934D01*
X529042Y622934D01*
G37*
%LPD*%
%LPC*%
G36*
X350607Y595629D02*
X350607Y595629D01*
X346779Y597215D01*
X343850Y600144D01*
X342264Y603972D01*
X342264Y608116D01*
X343850Y611944D01*
X346779Y614873D01*
X350607Y616459D01*
X354751Y616459D01*
X358579Y614873D01*
X361508Y611944D01*
X363094Y608116D01*
X363094Y603972D01*
X361508Y600144D01*
X358579Y597215D01*
X354751Y595629D01*
X350607Y595629D01*
G37*
%LPD*%
%LPC*%
G36*
X529042Y597534D02*
X529042Y597534D01*
X525214Y599120D01*
X522285Y602049D01*
X520699Y605877D01*
X520699Y610021D01*
X522285Y613849D01*
X525214Y616778D01*
X529042Y618364D01*
X533186Y618364D01*
X537014Y616778D01*
X539943Y613849D01*
X541529Y610021D01*
X541529Y605877D01*
X539943Y602049D01*
X537014Y599120D01*
X533186Y597534D01*
X529042Y597534D01*
G37*
%LPD*%
%LPC*%
G36*
X350607Y646429D02*
X350607Y646429D01*
X346779Y648015D01*
X343850Y650944D01*
X342264Y654772D01*
X342264Y658916D01*
X343850Y662744D01*
X346779Y665673D01*
X350607Y667259D01*
X354751Y667259D01*
X358579Y665673D01*
X361508Y662744D01*
X363094Y658916D01*
X363094Y654772D01*
X361508Y650944D01*
X358579Y648015D01*
X354751Y646429D01*
X350607Y646429D01*
G37*
%LPD*%
%LPC*%
G36*
X885505Y550671D02*
X885505Y550671D01*
X881864Y552179D01*
X879077Y554966D01*
X877569Y558607D01*
X877569Y562549D01*
X879077Y566190D01*
X881864Y568977D01*
X885505Y570485D01*
X889447Y570485D01*
X893088Y568977D01*
X895875Y566190D01*
X897383Y562549D01*
X897383Y558607D01*
X895875Y554966D01*
X893088Y552179D01*
X889447Y550671D01*
X885505Y550671D01*
G37*
%LPD*%
%LPC*%
G36*
X885505Y626871D02*
X885505Y626871D01*
X881864Y628379D01*
X879077Y631166D01*
X877569Y634807D01*
X877569Y638749D01*
X879077Y642390D01*
X881864Y645177D01*
X885505Y646685D01*
X889447Y646685D01*
X893088Y645177D01*
X895875Y642390D01*
X897383Y638749D01*
X897383Y634807D01*
X895875Y631166D01*
X893088Y628379D01*
X889447Y626871D01*
X885505Y626871D01*
G37*
%LPD*%
%LPC*%
G36*
X885505Y677671D02*
X885505Y677671D01*
X881864Y679179D01*
X879077Y681966D01*
X877569Y685607D01*
X877569Y689549D01*
X879077Y693190D01*
X881864Y695977D01*
X885505Y697485D01*
X889447Y697485D01*
X893088Y695977D01*
X895875Y693190D01*
X897383Y689549D01*
X897383Y685607D01*
X895875Y681966D01*
X893088Y679179D01*
X889447Y677671D01*
X885505Y677671D01*
G37*
%LPD*%
%LPC*%
G36*
X885505Y703071D02*
X885505Y703071D01*
X881864Y704579D01*
X879077Y707366D01*
X877569Y711007D01*
X877569Y714949D01*
X879077Y718590D01*
X881864Y721377D01*
X885505Y722885D01*
X889447Y722885D01*
X893088Y721377D01*
X895875Y718590D01*
X897383Y714949D01*
X897383Y711007D01*
X895875Y707366D01*
X893088Y704579D01*
X889447Y703071D01*
X885505Y703071D01*
G37*
%LPD*%
%LPC*%
G36*
X885505Y525271D02*
X885505Y525271D01*
X881864Y526779D01*
X879077Y529566D01*
X877569Y533207D01*
X877569Y537149D01*
X879077Y540790D01*
X881864Y543577D01*
X885505Y545085D01*
X889447Y545085D01*
X893088Y543577D01*
X895875Y540790D01*
X897383Y537149D01*
X897383Y533207D01*
X895875Y529566D01*
X893088Y526779D01*
X889447Y525271D01*
X885505Y525271D01*
G37*
%LPD*%
%LPC*%
G36*
X885505Y576071D02*
X885505Y576071D01*
X881864Y577579D01*
X879077Y580366D01*
X877569Y584007D01*
X877569Y587949D01*
X879077Y591590D01*
X881864Y594377D01*
X885505Y595885D01*
X889447Y595885D01*
X893088Y594377D01*
X895875Y591590D01*
X897383Y587949D01*
X897383Y584007D01*
X895875Y580366D01*
X893088Y577579D01*
X889447Y576071D01*
X885505Y576071D01*
G37*
%LPD*%
%LPC*%
G36*
X544129Y777493D02*
X544129Y777493D01*
X540488Y779001D01*
X537701Y781788D01*
X536193Y785429D01*
X536193Y789371D01*
X537701Y793012D01*
X540488Y795799D01*
X544129Y797307D01*
X548071Y797307D01*
X551712Y795799D01*
X554499Y793012D01*
X556007Y789371D01*
X556007Y785429D01*
X554499Y781788D01*
X551712Y779001D01*
X548071Y777493D01*
X544129Y777493D01*
G37*
%LPD*%
%LPC*%
G36*
X885505Y601471D02*
X885505Y601471D01*
X881864Y602979D01*
X879077Y605766D01*
X877569Y609407D01*
X877569Y613349D01*
X879077Y616990D01*
X881864Y619777D01*
X885505Y621285D01*
X889447Y621285D01*
X893088Y619777D01*
X895875Y616990D01*
X897383Y613349D01*
X897383Y609407D01*
X895875Y605766D01*
X893088Y602979D01*
X889447Y601471D01*
X885505Y601471D01*
G37*
%LPD*%
%LPC*%
G36*
X447382Y586513D02*
X447382Y586513D01*
X444273Y589622D01*
X444273Y594018D01*
X447070Y596815D01*
X447123Y596889D01*
X447183Y596959D01*
X447195Y596989D01*
X447214Y597015D01*
X447241Y597102D01*
X447275Y597187D01*
X447279Y597228D01*
X447286Y597250D01*
X447285Y597282D01*
X447293Y597353D01*
X447293Y621847D01*
X447279Y621937D01*
X447271Y622028D01*
X447259Y622057D01*
X447254Y622089D01*
X447211Y622170D01*
X447175Y622254D01*
X447149Y622286D01*
X447138Y622307D01*
X447115Y622329D01*
X447070Y622385D01*
X444273Y625182D01*
X444273Y629578D01*
X447382Y632687D01*
X451778Y632687D01*
X454887Y629578D01*
X454887Y625182D01*
X452090Y622385D01*
X452037Y622311D01*
X451977Y622241D01*
X451965Y622211D01*
X451946Y622185D01*
X451919Y622098D01*
X451885Y622013D01*
X451881Y621972D01*
X451874Y621950D01*
X451875Y621918D01*
X451867Y621847D01*
X451867Y597353D01*
X451881Y597263D01*
X451889Y597172D01*
X451901Y597143D01*
X451906Y597111D01*
X451949Y597030D01*
X451985Y596946D01*
X452011Y596914D01*
X452022Y596893D01*
X452045Y596871D01*
X452090Y596815D01*
X454887Y594018D01*
X454887Y589622D01*
X451778Y586513D01*
X447382Y586513D01*
G37*
%LPD*%
%LPC*%
G36*
X186745Y930735D02*
X186745Y930735D01*
X181435Y936045D01*
X181435Y943555D01*
X186745Y948865D01*
X194255Y948865D01*
X199565Y943555D01*
X199565Y936045D01*
X194255Y930735D01*
X186745Y930735D01*
G37*
%LPD*%
%LPC*%
G36*
X85145Y879935D02*
X85145Y879935D01*
X79835Y885245D01*
X79835Y892755D01*
X85145Y898065D01*
X92655Y898065D01*
X97965Y892755D01*
X97965Y885245D01*
X92655Y879935D01*
X85145Y879935D01*
G37*
%LPD*%
%LPC*%
G36*
X491545Y778335D02*
X491545Y778335D01*
X486235Y783645D01*
X486235Y791155D01*
X491545Y796465D01*
X499055Y796465D01*
X504365Y791155D01*
X504365Y783645D01*
X499055Y778335D01*
X491545Y778335D01*
G37*
%LPD*%
%LPC*%
G36*
X328002Y667793D02*
X328002Y667793D01*
X324893Y670902D01*
X324893Y674857D01*
X324879Y674948D01*
X324871Y675038D01*
X324859Y675068D01*
X324854Y675100D01*
X324811Y675181D01*
X324775Y675265D01*
X324749Y675297D01*
X324738Y675318D01*
X324715Y675340D01*
X324670Y675396D01*
X312176Y687890D01*
X312102Y687943D01*
X312032Y688003D01*
X312002Y688015D01*
X311976Y688034D01*
X311889Y688061D01*
X311804Y688095D01*
X311763Y688099D01*
X311741Y688106D01*
X311709Y688105D01*
X311637Y688113D01*
X307682Y688113D01*
X304573Y691222D01*
X304573Y695618D01*
X307682Y698727D01*
X312078Y698727D01*
X315187Y695618D01*
X315187Y691663D01*
X315201Y691572D01*
X315209Y691482D01*
X315221Y691452D01*
X315226Y691420D01*
X315250Y691376D01*
X315250Y691372D01*
X315261Y691355D01*
X315269Y691339D01*
X315305Y691255D01*
X315331Y691223D01*
X315342Y691202D01*
X315365Y691180D01*
X315366Y691178D01*
X315377Y691161D01*
X315388Y691152D01*
X315410Y691124D01*
X327904Y678630D01*
X327978Y678577D01*
X328048Y678517D01*
X328078Y678505D01*
X328104Y678486D01*
X328191Y678459D01*
X328276Y678425D01*
X328317Y678421D01*
X328339Y678414D01*
X328371Y678415D01*
X328443Y678407D01*
X332398Y678407D01*
X335507Y675298D01*
X335507Y670902D01*
X332398Y667793D01*
X328002Y667793D01*
G37*
%LPD*%
%LPC*%
G36*
X484123Y1025143D02*
X484123Y1025143D01*
X484123Y1043916D01*
X486573Y1043593D01*
X489146Y1042904D01*
X491607Y1041884D01*
X493914Y1040552D01*
X496027Y1038931D01*
X497911Y1037047D01*
X499532Y1034934D01*
X500864Y1032627D01*
X501884Y1030166D01*
X502573Y1027593D01*
X502896Y1025143D01*
X484123Y1025143D01*
G37*
%LPD*%
%LPC*%
G36*
X462304Y1025143D02*
X462304Y1025143D01*
X462627Y1027593D01*
X463316Y1030166D01*
X464336Y1032627D01*
X465668Y1034934D01*
X467289Y1037047D01*
X469173Y1038931D01*
X471286Y1040552D01*
X473593Y1041884D01*
X476054Y1042904D01*
X478627Y1043593D01*
X481077Y1043916D01*
X481077Y1025143D01*
X462304Y1025143D01*
G37*
%LPD*%
%LPC*%
G36*
X484123Y1022097D02*
X484123Y1022097D01*
X502896Y1022097D01*
X502573Y1019647D01*
X501884Y1017074D01*
X500864Y1014613D01*
X499532Y1012306D01*
X497911Y1010193D01*
X496027Y1008309D01*
X493914Y1006688D01*
X491607Y1005356D01*
X489146Y1004336D01*
X486573Y1003647D01*
X484123Y1003324D01*
X484123Y1022097D01*
G37*
%LPD*%
%LPC*%
G36*
X478627Y1003647D02*
X478627Y1003647D01*
X476054Y1004336D01*
X473593Y1005356D01*
X471286Y1006688D01*
X469173Y1008309D01*
X467289Y1010193D01*
X465668Y1012306D01*
X464336Y1014613D01*
X463316Y1017074D01*
X462627Y1019647D01*
X462304Y1022097D01*
X481077Y1022097D01*
X481077Y1003324D01*
X478627Y1003647D01*
G37*
%LPD*%
%LPC*%
G36*
X429997Y900735D02*
X429997Y900735D01*
X426665Y902115D01*
X424115Y904665D01*
X422735Y907997D01*
X422735Y911603D01*
X424115Y914935D01*
X426665Y917485D01*
X429997Y918865D01*
X433603Y918865D01*
X436935Y917485D01*
X439485Y914935D01*
X440865Y911603D01*
X440865Y907997D01*
X439485Y904665D01*
X436935Y902115D01*
X433603Y900735D01*
X429997Y900735D01*
G37*
%LPD*%
%LPC*%
G36*
X541997Y864535D02*
X541997Y864535D01*
X538665Y865915D01*
X536115Y868465D01*
X534735Y871797D01*
X534735Y875403D01*
X536115Y878735D01*
X538665Y881285D01*
X541997Y882665D01*
X545603Y882665D01*
X548935Y881285D01*
X551485Y878735D01*
X552865Y875403D01*
X552865Y871797D01*
X551485Y868465D01*
X548935Y865915D01*
X545603Y864535D01*
X541997Y864535D01*
G37*
%LPD*%
%LPC*%
G36*
X455397Y900735D02*
X455397Y900735D01*
X452065Y902115D01*
X449515Y904665D01*
X448135Y907997D01*
X448135Y911603D01*
X449515Y914935D01*
X452065Y917485D01*
X455397Y918865D01*
X459003Y918865D01*
X462335Y917485D01*
X464885Y914935D01*
X466265Y911603D01*
X466265Y907997D01*
X464885Y904665D01*
X462335Y902115D01*
X459003Y900735D01*
X455397Y900735D01*
G37*
%LPD*%
%LPC*%
G36*
X541997Y844535D02*
X541997Y844535D01*
X538665Y845915D01*
X536115Y848465D01*
X534735Y851797D01*
X534735Y855403D01*
X536115Y858735D01*
X538665Y861285D01*
X541997Y862665D01*
X545603Y862665D01*
X548935Y861285D01*
X551485Y858735D01*
X552865Y855403D01*
X552865Y851797D01*
X551485Y848465D01*
X548935Y845915D01*
X545603Y844535D01*
X541997Y844535D01*
G37*
%LPD*%
%LPC*%
G36*
X518897Y930735D02*
X518897Y930735D01*
X515565Y932115D01*
X513015Y934665D01*
X511635Y937997D01*
X511635Y941603D01*
X513015Y944935D01*
X515565Y947485D01*
X518897Y948865D01*
X522503Y948865D01*
X525835Y947485D01*
X528385Y944935D01*
X529765Y941603D01*
X529765Y937997D01*
X528385Y934665D01*
X525835Y932115D01*
X522503Y930735D01*
X518897Y930735D01*
G37*
%LPD*%
%LPC*%
G36*
X366497Y930735D02*
X366497Y930735D01*
X363165Y932115D01*
X360615Y934665D01*
X359235Y937997D01*
X359235Y941603D01*
X360615Y944935D01*
X363165Y947485D01*
X366497Y948865D01*
X370103Y948865D01*
X373435Y947485D01*
X375985Y944935D01*
X377365Y941603D01*
X377365Y937997D01*
X375985Y934665D01*
X373435Y932115D01*
X370103Y930735D01*
X366497Y930735D01*
G37*
%LPD*%
%LPC*%
G36*
X480797Y900735D02*
X480797Y900735D01*
X477465Y902115D01*
X474915Y904665D01*
X473535Y907997D01*
X473535Y911603D01*
X474915Y914935D01*
X477465Y917485D01*
X480797Y918865D01*
X484403Y918865D01*
X487735Y917485D01*
X490285Y914935D01*
X491665Y911603D01*
X491665Y907997D01*
X490285Y904665D01*
X487735Y902115D01*
X484403Y900735D01*
X480797Y900735D01*
G37*
%LPD*%
%LPC*%
G36*
X87097Y829135D02*
X87097Y829135D01*
X83765Y830515D01*
X81215Y833065D01*
X79835Y836397D01*
X79835Y840003D01*
X81215Y843335D01*
X83765Y845885D01*
X87097Y847265D01*
X90703Y847265D01*
X94035Y845885D01*
X96585Y843335D01*
X97965Y840003D01*
X97965Y836397D01*
X96585Y833065D01*
X94035Y830515D01*
X90703Y829135D01*
X87097Y829135D01*
G37*
%LPD*%
%LPC*%
G36*
X442697Y930735D02*
X442697Y930735D01*
X439365Y932115D01*
X436815Y934665D01*
X435435Y937997D01*
X435435Y941603D01*
X436815Y944935D01*
X439365Y947485D01*
X442697Y948865D01*
X446303Y948865D01*
X449635Y947485D01*
X452185Y944935D01*
X453565Y941603D01*
X453565Y937997D01*
X452185Y934665D01*
X449635Y932115D01*
X446303Y930735D01*
X442697Y930735D01*
G37*
%LPD*%
%LPC*%
G36*
X493497Y930735D02*
X493497Y930735D01*
X490165Y932115D01*
X487615Y934665D01*
X486235Y937997D01*
X486235Y941603D01*
X487615Y944935D01*
X490165Y947485D01*
X493497Y948865D01*
X497103Y948865D01*
X500435Y947485D01*
X502985Y944935D01*
X504365Y941603D01*
X504365Y937997D01*
X502985Y934665D01*
X500435Y932115D01*
X497103Y930735D01*
X493497Y930735D01*
G37*
%LPD*%
%LPC*%
G36*
X10897Y930735D02*
X10897Y930735D01*
X7565Y932115D01*
X5015Y934665D01*
X3635Y937997D01*
X3635Y941603D01*
X5015Y944935D01*
X7565Y947485D01*
X10897Y948865D01*
X14503Y948865D01*
X17835Y947485D01*
X20385Y944935D01*
X21765Y941603D01*
X21765Y937997D01*
X20385Y934665D01*
X17835Y932115D01*
X14503Y930735D01*
X10897Y930735D01*
G37*
%LPD*%
%LPC*%
G36*
X87097Y905335D02*
X87097Y905335D01*
X83765Y906715D01*
X81215Y909265D01*
X79835Y912597D01*
X79835Y916203D01*
X81215Y919535D01*
X83765Y922085D01*
X87097Y923465D01*
X90703Y923465D01*
X94035Y922085D01*
X96585Y919535D01*
X97965Y916203D01*
X97965Y912597D01*
X96585Y909265D01*
X94035Y906715D01*
X90703Y905335D01*
X87097Y905335D01*
G37*
%LPD*%
%LPC*%
G36*
X518897Y803735D02*
X518897Y803735D01*
X515565Y805115D01*
X513015Y807665D01*
X511635Y810997D01*
X511635Y814603D01*
X513015Y817935D01*
X515565Y820485D01*
X518897Y821865D01*
X522503Y821865D01*
X525835Y820485D01*
X528385Y817935D01*
X529765Y814603D01*
X529765Y810997D01*
X528385Y807665D01*
X525835Y805115D01*
X522503Y803735D01*
X518897Y803735D01*
G37*
%LPD*%
%LPC*%
G36*
X87097Y803735D02*
X87097Y803735D01*
X83765Y805115D01*
X81215Y807665D01*
X79835Y810997D01*
X79835Y814603D01*
X81215Y817935D01*
X83765Y820485D01*
X87097Y821865D01*
X90703Y821865D01*
X94035Y820485D01*
X96585Y817935D01*
X97965Y814603D01*
X97965Y810997D01*
X96585Y807665D01*
X94035Y805115D01*
X90703Y803735D01*
X87097Y803735D01*
G37*
%LPD*%
%LPC*%
G36*
X468097Y930735D02*
X468097Y930735D01*
X464765Y932115D01*
X462215Y934665D01*
X460835Y937997D01*
X460835Y941603D01*
X462215Y944935D01*
X464765Y947485D01*
X468097Y948865D01*
X471703Y948865D01*
X475035Y947485D01*
X477585Y944935D01*
X478965Y941603D01*
X478965Y937997D01*
X477585Y934665D01*
X475035Y932115D01*
X471703Y930735D01*
X468097Y930735D01*
G37*
%LPD*%
%LPC*%
G36*
X-14503Y930735D02*
X-14503Y930735D01*
X-17835Y932115D01*
X-20385Y934665D01*
X-21765Y937997D01*
X-21765Y941603D01*
X-20385Y944935D01*
X-17835Y947485D01*
X-14503Y948865D01*
X-10897Y948865D01*
X-7565Y947485D01*
X-5015Y944935D01*
X-3635Y941603D01*
X-3635Y937997D01*
X-5015Y934665D01*
X-7565Y932115D01*
X-10897Y930735D01*
X-14503Y930735D01*
G37*
%LPD*%
%LPC*%
G36*
X-39903Y930735D02*
X-39903Y930735D01*
X-43235Y932115D01*
X-45785Y934665D01*
X-47165Y937997D01*
X-47165Y941603D01*
X-45785Y944935D01*
X-43235Y947485D01*
X-39903Y948865D01*
X-36297Y948865D01*
X-32965Y947485D01*
X-30415Y944935D01*
X-29035Y941603D01*
X-29035Y937997D01*
X-30415Y934665D01*
X-32965Y932115D01*
X-36297Y930735D01*
X-39903Y930735D01*
G37*
%LPD*%
%LPC*%
G36*
X87097Y930735D02*
X87097Y930735D01*
X83765Y932115D01*
X81215Y934665D01*
X79835Y937997D01*
X79835Y941603D01*
X81215Y944935D01*
X83765Y947485D01*
X87097Y948865D01*
X90703Y948865D01*
X94035Y947485D01*
X96585Y944935D01*
X97965Y941603D01*
X97965Y937997D01*
X96585Y934665D01*
X94035Y932115D01*
X90703Y930735D01*
X87097Y930735D01*
G37*
%LPD*%
%LPC*%
G36*
X61697Y930735D02*
X61697Y930735D01*
X58365Y932115D01*
X55815Y934665D01*
X54435Y937997D01*
X54435Y941603D01*
X55815Y944935D01*
X58365Y947485D01*
X61697Y948865D01*
X65303Y948865D01*
X68635Y947485D01*
X71185Y944935D01*
X72565Y941603D01*
X72565Y937997D01*
X71185Y934665D01*
X68635Y932115D01*
X65303Y930735D01*
X61697Y930735D01*
G37*
%LPD*%
%LPC*%
G36*
X36297Y930735D02*
X36297Y930735D01*
X32965Y932115D01*
X30415Y934665D01*
X29035Y937997D01*
X29035Y941603D01*
X30415Y944935D01*
X32965Y947485D01*
X36297Y948865D01*
X39903Y948865D01*
X43235Y947485D01*
X45785Y944935D01*
X47165Y941603D01*
X47165Y937997D01*
X45785Y934665D01*
X43235Y932115D01*
X39903Y930735D01*
X36297Y930735D01*
G37*
%LPD*%
%LPC*%
G36*
X239497Y930735D02*
X239497Y930735D01*
X236165Y932115D01*
X233615Y934665D01*
X232235Y937997D01*
X232235Y941603D01*
X233615Y944935D01*
X236165Y947485D01*
X239497Y948865D01*
X243103Y948865D01*
X246435Y947485D01*
X248985Y944935D01*
X250365Y941603D01*
X250365Y937997D01*
X248985Y934665D01*
X246435Y932115D01*
X243103Y930735D01*
X239497Y930735D01*
G37*
%LPD*%
%LPC*%
G36*
X417297Y930735D02*
X417297Y930735D01*
X413965Y932115D01*
X411415Y934665D01*
X410035Y937997D01*
X410035Y941603D01*
X411415Y944935D01*
X413965Y947485D01*
X417297Y948865D01*
X420903Y948865D01*
X424235Y947485D01*
X426785Y944935D01*
X428165Y941603D01*
X428165Y937997D01*
X426785Y934665D01*
X424235Y932115D01*
X420903Y930735D01*
X417297Y930735D01*
G37*
%LPD*%
%LPC*%
G36*
X264897Y930735D02*
X264897Y930735D01*
X261565Y932115D01*
X259015Y934665D01*
X257635Y937997D01*
X257635Y941603D01*
X259015Y944935D01*
X261565Y947485D01*
X264897Y948865D01*
X268503Y948865D01*
X271835Y947485D01*
X274385Y944935D01*
X275765Y941603D01*
X275765Y937997D01*
X274385Y934665D01*
X271835Y932115D01*
X268503Y930735D01*
X264897Y930735D01*
G37*
%LPD*%
%LPC*%
G36*
X315697Y778335D02*
X315697Y778335D01*
X312365Y779715D01*
X309815Y782265D01*
X308435Y785597D01*
X308435Y789203D01*
X309815Y792535D01*
X312365Y795085D01*
X315697Y796465D01*
X319303Y796465D01*
X322635Y795085D01*
X325185Y792535D01*
X326565Y789203D01*
X326565Y785597D01*
X325185Y782265D01*
X322635Y779715D01*
X319303Y778335D01*
X315697Y778335D01*
G37*
%LPD*%
%LPC*%
G36*
X290297Y930735D02*
X290297Y930735D01*
X286965Y932115D01*
X284415Y934665D01*
X283035Y937997D01*
X283035Y941603D01*
X284415Y944935D01*
X286965Y947485D01*
X290297Y948865D01*
X293903Y948865D01*
X297235Y947485D01*
X299785Y944935D01*
X301165Y941603D01*
X301165Y937997D01*
X299785Y934665D01*
X297235Y932115D01*
X293903Y930735D01*
X290297Y930735D01*
G37*
%LPD*%
%LPC*%
G36*
X315697Y930735D02*
X315697Y930735D01*
X312365Y932115D01*
X309815Y934665D01*
X308435Y937997D01*
X308435Y941603D01*
X309815Y944935D01*
X312365Y947485D01*
X315697Y948865D01*
X319303Y948865D01*
X322635Y947485D01*
X325185Y944935D01*
X326565Y941603D01*
X326565Y937997D01*
X325185Y934665D01*
X322635Y932115D01*
X319303Y930735D01*
X315697Y930735D01*
G37*
%LPD*%
%LPC*%
G36*
X137897Y778335D02*
X137897Y778335D01*
X134565Y779715D01*
X132015Y782265D01*
X130635Y785597D01*
X130635Y789203D01*
X132015Y792535D01*
X134565Y795085D01*
X137897Y796465D01*
X141503Y796465D01*
X144835Y795085D01*
X147385Y792535D01*
X148765Y789203D01*
X148765Y785597D01*
X147385Y782265D01*
X144835Y779715D01*
X141503Y778335D01*
X137897Y778335D01*
G37*
%LPD*%
%LPC*%
G36*
X163297Y778335D02*
X163297Y778335D01*
X159965Y779715D01*
X157415Y782265D01*
X156035Y785597D01*
X156035Y789203D01*
X157415Y792535D01*
X159965Y795085D01*
X163297Y796465D01*
X166903Y796465D01*
X170235Y795085D01*
X172785Y792535D01*
X174165Y789203D01*
X174165Y785597D01*
X172785Y782265D01*
X170235Y779715D01*
X166903Y778335D01*
X163297Y778335D01*
G37*
%LPD*%
%LPC*%
G36*
X214097Y778335D02*
X214097Y778335D01*
X210765Y779715D01*
X208215Y782265D01*
X206835Y785597D01*
X206835Y789203D01*
X208215Y792535D01*
X210765Y795085D01*
X214097Y796465D01*
X217703Y796465D01*
X221035Y795085D01*
X223585Y792535D01*
X224965Y789203D01*
X224965Y785597D01*
X223585Y782265D01*
X221035Y779715D01*
X217703Y778335D01*
X214097Y778335D01*
G37*
%LPD*%
%LPC*%
G36*
X112497Y778335D02*
X112497Y778335D01*
X109165Y779715D01*
X106615Y782265D01*
X105235Y785597D01*
X105235Y789203D01*
X106615Y792535D01*
X109165Y795085D01*
X112497Y796465D01*
X116103Y796465D01*
X119435Y795085D01*
X121985Y792535D01*
X123365Y789203D01*
X123365Y785597D01*
X121985Y782265D01*
X119435Y779715D01*
X116103Y778335D01*
X112497Y778335D01*
G37*
%LPD*%
%LPC*%
G36*
X36297Y778335D02*
X36297Y778335D01*
X32965Y779715D01*
X30415Y782265D01*
X29035Y785597D01*
X29035Y789203D01*
X30415Y792535D01*
X32965Y795085D01*
X36297Y796465D01*
X39903Y796465D01*
X43235Y795085D01*
X45785Y792535D01*
X47165Y789203D01*
X47165Y785597D01*
X45785Y782265D01*
X43235Y779715D01*
X39903Y778335D01*
X36297Y778335D01*
G37*
%LPD*%
%LPC*%
G36*
X10897Y778335D02*
X10897Y778335D01*
X7565Y779715D01*
X5015Y782265D01*
X3635Y785597D01*
X3635Y789203D01*
X5015Y792535D01*
X7565Y795085D01*
X10897Y796465D01*
X14503Y796465D01*
X17835Y795085D01*
X20385Y792535D01*
X21765Y789203D01*
X21765Y785597D01*
X20385Y782265D01*
X17835Y779715D01*
X14503Y778335D01*
X10897Y778335D01*
G37*
%LPD*%
%LPC*%
G36*
X-14503Y778335D02*
X-14503Y778335D01*
X-17835Y779715D01*
X-20385Y782265D01*
X-21765Y785597D01*
X-21765Y789203D01*
X-20385Y792535D01*
X-17835Y795085D01*
X-14503Y796465D01*
X-10897Y796465D01*
X-7565Y795085D01*
X-5015Y792535D01*
X-3635Y789203D01*
X-3635Y785597D01*
X-5015Y782265D01*
X-7565Y779715D01*
X-10897Y778335D01*
X-14503Y778335D01*
G37*
%LPD*%
%LPC*%
G36*
X-39903Y778335D02*
X-39903Y778335D01*
X-43235Y779715D01*
X-45785Y782265D01*
X-47165Y785597D01*
X-47165Y789203D01*
X-45785Y792535D01*
X-43235Y795085D01*
X-39903Y796465D01*
X-36297Y796465D01*
X-32965Y795085D01*
X-30415Y792535D01*
X-29035Y789203D01*
X-29035Y785597D01*
X-30415Y782265D01*
X-32965Y779715D01*
X-36297Y778335D01*
X-39903Y778335D01*
G37*
%LPD*%
%LPC*%
G36*
X239497Y778335D02*
X239497Y778335D01*
X236165Y779715D01*
X233615Y782265D01*
X232235Y785597D01*
X232235Y789203D01*
X233615Y792535D01*
X236165Y795085D01*
X239497Y796465D01*
X243103Y796465D01*
X246435Y795085D01*
X248985Y792535D01*
X250365Y789203D01*
X250365Y785597D01*
X248985Y782265D01*
X246435Y779715D01*
X243103Y778335D01*
X239497Y778335D01*
G37*
%LPD*%
%LPC*%
G36*
X341097Y930735D02*
X341097Y930735D01*
X337765Y932115D01*
X335215Y934665D01*
X333835Y937997D01*
X333835Y941603D01*
X335215Y944935D01*
X337765Y947485D01*
X341097Y948865D01*
X344703Y948865D01*
X348035Y947485D01*
X350585Y944935D01*
X351965Y941603D01*
X351965Y937997D01*
X350585Y934665D01*
X348035Y932115D01*
X344703Y930735D01*
X341097Y930735D01*
G37*
%LPD*%
%LPC*%
G36*
X468097Y778335D02*
X468097Y778335D01*
X464765Y779715D01*
X462215Y782265D01*
X460835Y785597D01*
X460835Y789203D01*
X462215Y792535D01*
X464765Y795085D01*
X468097Y796465D01*
X471703Y796465D01*
X475035Y795085D01*
X477585Y792535D01*
X478965Y789203D01*
X478965Y785597D01*
X477585Y782265D01*
X475035Y779715D01*
X471703Y778335D01*
X468097Y778335D01*
G37*
%LPD*%
%LPC*%
G36*
X442697Y778335D02*
X442697Y778335D01*
X439365Y779715D01*
X436815Y782265D01*
X435435Y785597D01*
X435435Y789203D01*
X436815Y792535D01*
X439365Y795085D01*
X442697Y796465D01*
X446303Y796465D01*
X449635Y795085D01*
X452185Y792535D01*
X453565Y789203D01*
X453565Y785597D01*
X452185Y782265D01*
X449635Y779715D01*
X446303Y778335D01*
X442697Y778335D01*
G37*
%LPD*%
%LPC*%
G36*
X417297Y778335D02*
X417297Y778335D01*
X413965Y779715D01*
X411415Y782265D01*
X410035Y785597D01*
X410035Y789203D01*
X411415Y792535D01*
X413965Y795085D01*
X417297Y796465D01*
X420903Y796465D01*
X424235Y795085D01*
X426785Y792535D01*
X428165Y789203D01*
X428165Y785597D01*
X426785Y782265D01*
X424235Y779715D01*
X420903Y778335D01*
X417297Y778335D01*
G37*
%LPD*%
%LPC*%
G36*
X61697Y778335D02*
X61697Y778335D01*
X58365Y779715D01*
X55815Y782265D01*
X54435Y785597D01*
X54435Y789203D01*
X55815Y792535D01*
X58365Y795085D01*
X61697Y796465D01*
X65303Y796465D01*
X68635Y795085D01*
X71185Y792535D01*
X72565Y789203D01*
X72565Y785597D01*
X71185Y782265D01*
X68635Y779715D01*
X65303Y778335D01*
X61697Y778335D01*
G37*
%LPD*%
%LPC*%
G36*
X264897Y778335D02*
X264897Y778335D01*
X261565Y779715D01*
X259015Y782265D01*
X257635Y785597D01*
X257635Y789203D01*
X259015Y792535D01*
X261565Y795085D01*
X264897Y796465D01*
X268503Y796465D01*
X271835Y795085D01*
X274385Y792535D01*
X275765Y789203D01*
X275765Y785597D01*
X274385Y782265D01*
X271835Y779715D01*
X268503Y778335D01*
X264897Y778335D01*
G37*
%LPD*%
%LPC*%
G36*
X391897Y930735D02*
X391897Y930735D01*
X388565Y932115D01*
X386015Y934665D01*
X384635Y937997D01*
X384635Y941603D01*
X386015Y944935D01*
X388565Y947485D01*
X391897Y948865D01*
X395503Y948865D01*
X398835Y947485D01*
X401385Y944935D01*
X402765Y941603D01*
X402765Y937997D01*
X401385Y934665D01*
X398835Y932115D01*
X395503Y930735D01*
X391897Y930735D01*
G37*
%LPD*%
%LPC*%
G36*
X87097Y778335D02*
X87097Y778335D01*
X83765Y779715D01*
X81215Y782265D01*
X79835Y785597D01*
X79835Y789203D01*
X81215Y792535D01*
X83765Y795085D01*
X87097Y796465D01*
X90703Y796465D01*
X94035Y795085D01*
X96585Y792535D01*
X97965Y789203D01*
X97965Y785597D01*
X96585Y782265D01*
X94035Y779715D01*
X90703Y778335D01*
X87097Y778335D01*
G37*
%LPD*%
%LPC*%
G36*
X290297Y778335D02*
X290297Y778335D01*
X286965Y779715D01*
X284415Y782265D01*
X283035Y785597D01*
X283035Y789203D01*
X284415Y792535D01*
X286965Y795085D01*
X290297Y796465D01*
X293903Y796465D01*
X297235Y795085D01*
X299785Y792535D01*
X301165Y789203D01*
X301165Y785597D01*
X299785Y782265D01*
X297235Y779715D01*
X293903Y778335D01*
X290297Y778335D01*
G37*
%LPD*%
%LPC*%
G36*
X366497Y778335D02*
X366497Y778335D01*
X363165Y779715D01*
X360615Y782265D01*
X359235Y785597D01*
X359235Y789203D01*
X360615Y792535D01*
X363165Y795085D01*
X366497Y796465D01*
X370103Y796465D01*
X373435Y795085D01*
X375985Y792535D01*
X377365Y789203D01*
X377365Y785597D01*
X375985Y782265D01*
X373435Y779715D01*
X370103Y778335D01*
X366497Y778335D01*
G37*
%LPD*%
%LPC*%
G36*
X341097Y778335D02*
X341097Y778335D01*
X337765Y779715D01*
X335215Y782265D01*
X333835Y785597D01*
X333835Y789203D01*
X335215Y792535D01*
X337765Y795085D01*
X341097Y796465D01*
X344703Y796465D01*
X348035Y795085D01*
X350585Y792535D01*
X351965Y789203D01*
X351965Y785597D01*
X350585Y782265D01*
X348035Y779715D01*
X344703Y778335D01*
X341097Y778335D01*
G37*
%LPD*%
%LPC*%
G36*
X394042Y614453D02*
X394042Y614453D01*
X390933Y617562D01*
X390933Y621958D01*
X393730Y624755D01*
X393783Y624829D01*
X393843Y624899D01*
X393855Y624929D01*
X393874Y624955D01*
X393901Y625042D01*
X393935Y625127D01*
X393939Y625168D01*
X393946Y625190D01*
X393945Y625222D01*
X393953Y625293D01*
X393953Y633737D01*
X393939Y633828D01*
X393931Y633918D01*
X393919Y633948D01*
X393914Y633980D01*
X393871Y634061D01*
X393835Y634145D01*
X393809Y634177D01*
X393798Y634198D01*
X393775Y634220D01*
X393730Y634276D01*
X390916Y637090D01*
X390842Y637143D01*
X390772Y637203D01*
X390742Y637215D01*
X390716Y637234D01*
X390629Y637261D01*
X390544Y637295D01*
X390503Y637299D01*
X390481Y637306D01*
X390449Y637305D01*
X390377Y637313D01*
X386422Y637313D01*
X383313Y640422D01*
X383313Y644818D01*
X386422Y647927D01*
X390818Y647927D01*
X393927Y644818D01*
X393927Y640863D01*
X393941Y640772D01*
X393949Y640682D01*
X393961Y640652D01*
X393966Y640620D01*
X394009Y640539D01*
X394045Y640455D01*
X394071Y640423D01*
X394082Y640402D01*
X394105Y640380D01*
X394150Y640324D01*
X398527Y635947D01*
X398527Y625293D01*
X398541Y625203D01*
X398549Y625112D01*
X398561Y625083D01*
X398566Y625051D01*
X398609Y624970D01*
X398645Y624886D01*
X398671Y624854D01*
X398682Y624833D01*
X398705Y624811D01*
X398750Y624755D01*
X401547Y621958D01*
X401547Y617562D01*
X398438Y614453D01*
X394042Y614453D01*
G37*
%LPD*%
%LPC*%
G36*
X414995Y845735D02*
X414995Y845735D01*
X412398Y846811D01*
X410411Y848798D01*
X409335Y851395D01*
X409335Y854205D01*
X410411Y856802D01*
X412398Y858789D01*
X414995Y859865D01*
X417805Y859865D01*
X420402Y858789D01*
X422389Y856802D01*
X423465Y854205D01*
X423465Y851395D01*
X422389Y848798D01*
X420402Y846811D01*
X417805Y845735D01*
X414995Y845735D01*
G37*
%LPD*%
%LPC*%
G36*
X394995Y805735D02*
X394995Y805735D01*
X392398Y806811D01*
X390411Y808798D01*
X389335Y811395D01*
X389335Y814205D01*
X390411Y816802D01*
X392398Y818789D01*
X394995Y819865D01*
X397805Y819865D01*
X400402Y818789D01*
X402389Y816802D01*
X403465Y814205D01*
X403465Y811395D01*
X402389Y808798D01*
X400402Y806811D01*
X397805Y805735D01*
X394995Y805735D01*
G37*
%LPD*%
%LPC*%
G36*
X414995Y805735D02*
X414995Y805735D01*
X412398Y806811D01*
X410411Y808798D01*
X409335Y811395D01*
X409335Y814205D01*
X410411Y816802D01*
X412398Y818789D01*
X414995Y819865D01*
X417805Y819865D01*
X420402Y818789D01*
X422389Y816802D01*
X423465Y814205D01*
X423465Y811395D01*
X422389Y808798D01*
X420402Y806811D01*
X417805Y805735D01*
X414995Y805735D01*
G37*
%LPD*%
%LPC*%
G36*
X394995Y845735D02*
X394995Y845735D01*
X392398Y846811D01*
X390411Y848798D01*
X389335Y851395D01*
X389335Y854205D01*
X390411Y856802D01*
X392398Y858789D01*
X394995Y859865D01*
X397805Y859865D01*
X400402Y858789D01*
X402389Y856802D01*
X403465Y854205D01*
X403465Y851395D01*
X402389Y848798D01*
X400402Y846811D01*
X397805Y845735D01*
X394995Y845735D01*
G37*
%LPD*%
%LPC*%
G36*
X414995Y825735D02*
X414995Y825735D01*
X412398Y826811D01*
X410411Y828798D01*
X409335Y831395D01*
X409335Y834205D01*
X410411Y836802D01*
X412398Y838789D01*
X414995Y839865D01*
X417805Y839865D01*
X420402Y838789D01*
X422389Y836802D01*
X423465Y834205D01*
X423465Y831395D01*
X422389Y828798D01*
X420402Y826811D01*
X417805Y825735D01*
X414995Y825735D01*
G37*
%LPD*%
%LPC*%
G36*
X394995Y825735D02*
X394995Y825735D01*
X392398Y826811D01*
X390411Y828798D01*
X389335Y831395D01*
X389335Y834205D01*
X390411Y836802D01*
X392398Y838789D01*
X394995Y839865D01*
X397805Y839865D01*
X400402Y838789D01*
X402389Y836802D01*
X403465Y834205D01*
X403465Y831395D01*
X402389Y828798D01*
X400402Y826811D01*
X397805Y825735D01*
X394995Y825735D01*
G37*
%LPD*%
%LPC*%
G36*
X722883Y821943D02*
X722883Y821943D01*
X722883Y832266D01*
X724156Y832065D01*
X725943Y831484D01*
X727617Y830631D01*
X729138Y829526D01*
X730466Y828198D01*
X731571Y826677D01*
X732424Y825003D01*
X733005Y823216D01*
X733206Y821943D01*
X722883Y821943D01*
G37*
%LPD*%
%LPC*%
G36*
X621283Y1042923D02*
X621283Y1042923D01*
X621283Y1053246D01*
X622556Y1053045D01*
X624343Y1052464D01*
X626017Y1051611D01*
X627538Y1050506D01*
X628866Y1049178D01*
X629971Y1047657D01*
X630824Y1045983D01*
X631405Y1044196D01*
X631606Y1042923D01*
X621283Y1042923D01*
G37*
%LPD*%
%LPC*%
G36*
X240283Y1050543D02*
X240283Y1050543D01*
X240283Y1060866D01*
X241556Y1060665D01*
X243343Y1060084D01*
X245017Y1059231D01*
X246538Y1058126D01*
X247866Y1056798D01*
X248971Y1055277D01*
X249824Y1053603D01*
X250405Y1051816D01*
X250606Y1050543D01*
X240283Y1050543D01*
G37*
%LPD*%
%LPC*%
G36*
X14223Y1050543D02*
X14223Y1050543D01*
X14223Y1060866D01*
X15496Y1060665D01*
X17283Y1060084D01*
X18957Y1059231D01*
X20478Y1058126D01*
X21806Y1056798D01*
X22911Y1055277D01*
X23764Y1053603D01*
X24345Y1051816D01*
X24546Y1050543D01*
X14223Y1050543D01*
G37*
%LPD*%
%LPC*%
G36*
X135635Y735075D02*
X135635Y735075D01*
X135635Y745398D01*
X136908Y745197D01*
X138695Y744616D01*
X140369Y743763D01*
X141890Y742658D01*
X143218Y741330D01*
X144323Y739809D01*
X145176Y738135D01*
X145757Y736348D01*
X145958Y735075D01*
X135635Y735075D01*
G37*
%LPD*%
%LPC*%
G36*
X1093723Y639063D02*
X1093723Y639063D01*
X1093723Y649386D01*
X1094996Y649185D01*
X1096783Y648604D01*
X1098457Y647751D01*
X1099978Y646646D01*
X1101306Y645318D01*
X1102411Y643797D01*
X1103264Y642123D01*
X1103845Y640336D01*
X1104046Y639063D01*
X1093723Y639063D01*
G37*
%LPD*%
%LPC*%
G36*
X654875Y663828D02*
X654875Y663828D01*
X654875Y674151D01*
X656147Y673950D01*
X657934Y673369D01*
X659609Y672516D01*
X661129Y671411D01*
X662458Y670083D01*
X663562Y668562D01*
X664416Y666888D01*
X664996Y665101D01*
X665198Y663828D01*
X654875Y663828D01*
G37*
%LPD*%
%LPC*%
G36*
X722883Y969263D02*
X722883Y969263D01*
X722883Y979586D01*
X724156Y979385D01*
X725943Y978804D01*
X727617Y977951D01*
X729138Y976846D01*
X730466Y975518D01*
X731571Y973997D01*
X732424Y972323D01*
X733005Y970536D01*
X733206Y969263D01*
X722883Y969263D01*
G37*
%LPD*%
%LPC*%
G36*
X1093723Y636017D02*
X1093723Y636017D01*
X1104046Y636017D01*
X1103845Y634744D01*
X1103264Y632957D01*
X1102411Y631283D01*
X1101306Y629762D01*
X1099978Y628434D01*
X1098457Y627329D01*
X1096783Y626476D01*
X1094996Y625895D01*
X1093723Y625694D01*
X1093723Y636017D01*
G37*
%LPD*%
%LPC*%
G36*
X122266Y735075D02*
X122266Y735075D01*
X122467Y736348D01*
X123048Y738135D01*
X123901Y739809D01*
X125006Y741330D01*
X126334Y742658D01*
X127855Y743763D01*
X129529Y744616D01*
X131316Y745197D01*
X132589Y745398D01*
X132589Y735075D01*
X122266Y735075D01*
G37*
%LPD*%
%LPC*%
G36*
X1080354Y639063D02*
X1080354Y639063D01*
X1080555Y640336D01*
X1081136Y642123D01*
X1081989Y643797D01*
X1083094Y645318D01*
X1084422Y646646D01*
X1085943Y647751D01*
X1087617Y648604D01*
X1089404Y649185D01*
X1090677Y649386D01*
X1090677Y639063D01*
X1080354Y639063D01*
G37*
%LPD*%
%LPC*%
G36*
X654875Y660782D02*
X654875Y660782D01*
X665198Y660782D01*
X664996Y659509D01*
X664416Y657722D01*
X663562Y656048D01*
X662458Y654527D01*
X661129Y653199D01*
X659609Y652094D01*
X657934Y651241D01*
X656147Y650660D01*
X654875Y650459D01*
X654875Y660782D01*
G37*
%LPD*%
%LPC*%
G36*
X226914Y1050543D02*
X226914Y1050543D01*
X227115Y1051816D01*
X227696Y1053603D01*
X228549Y1055277D01*
X229654Y1056798D01*
X230982Y1058126D01*
X232503Y1059231D01*
X234177Y1060084D01*
X235964Y1060665D01*
X237237Y1060866D01*
X237237Y1050543D01*
X226914Y1050543D01*
G37*
%LPD*%
%LPC*%
G36*
X135635Y732029D02*
X135635Y732029D01*
X145958Y732029D01*
X145757Y730756D01*
X145176Y728969D01*
X144323Y727295D01*
X143218Y725774D01*
X141890Y724446D01*
X140369Y723341D01*
X138695Y722488D01*
X136908Y721907D01*
X135635Y721706D01*
X135635Y732029D01*
G37*
%LPD*%
%LPC*%
G36*
X607914Y1042923D02*
X607914Y1042923D01*
X608115Y1044196D01*
X608696Y1045983D01*
X609549Y1047657D01*
X610654Y1049178D01*
X611982Y1050506D01*
X613503Y1051611D01*
X615177Y1052464D01*
X616964Y1053045D01*
X618237Y1053246D01*
X618237Y1042923D01*
X607914Y1042923D01*
G37*
%LPD*%
%LPC*%
G36*
X240283Y1047497D02*
X240283Y1047497D01*
X250606Y1047497D01*
X250405Y1046224D01*
X249824Y1044437D01*
X248971Y1042763D01*
X247866Y1041242D01*
X246538Y1039914D01*
X245017Y1038809D01*
X243343Y1037956D01*
X241556Y1037375D01*
X240283Y1037174D01*
X240283Y1047497D01*
G37*
%LPD*%
%LPC*%
G36*
X722883Y818897D02*
X722883Y818897D01*
X733206Y818897D01*
X733005Y817624D01*
X732424Y815837D01*
X731571Y814163D01*
X730466Y812642D01*
X729138Y811314D01*
X727617Y810209D01*
X725943Y809356D01*
X724156Y808775D01*
X722883Y808574D01*
X722883Y818897D01*
G37*
%LPD*%
%LPC*%
G36*
X709514Y821943D02*
X709514Y821943D01*
X709715Y823216D01*
X710296Y825003D01*
X711149Y826677D01*
X712254Y828198D01*
X713582Y829526D01*
X715103Y830631D01*
X716777Y831484D01*
X718564Y832065D01*
X719837Y832266D01*
X719837Y821943D01*
X709514Y821943D01*
G37*
%LPD*%
%LPC*%
G36*
X854Y1050543D02*
X854Y1050543D01*
X1055Y1051816D01*
X1636Y1053603D01*
X2489Y1055277D01*
X3594Y1056798D01*
X4922Y1058126D01*
X6443Y1059231D01*
X8117Y1060084D01*
X9904Y1060665D01*
X11177Y1060866D01*
X11177Y1050543D01*
X854Y1050543D01*
G37*
%LPD*%
%LPC*%
G36*
X14223Y1047497D02*
X14223Y1047497D01*
X24546Y1047497D01*
X24345Y1046224D01*
X23764Y1044437D01*
X22911Y1042763D01*
X21806Y1041242D01*
X20478Y1039914D01*
X18957Y1038809D01*
X17283Y1037956D01*
X15496Y1037375D01*
X14223Y1037174D01*
X14223Y1047497D01*
G37*
%LPD*%
%LPC*%
G36*
X722883Y966217D02*
X722883Y966217D01*
X733206Y966217D01*
X733005Y964944D01*
X732424Y963157D01*
X731571Y961483D01*
X730466Y959962D01*
X729138Y958634D01*
X727617Y957529D01*
X725943Y956676D01*
X724156Y956095D01*
X722883Y955894D01*
X722883Y966217D01*
G37*
%LPD*%
%LPC*%
G36*
X709514Y969263D02*
X709514Y969263D01*
X709715Y970536D01*
X710296Y972323D01*
X711149Y973997D01*
X712254Y975518D01*
X713582Y976846D01*
X715103Y977951D01*
X716777Y978804D01*
X718564Y979385D01*
X719837Y979586D01*
X719837Y969263D01*
X709514Y969263D01*
G37*
%LPD*%
%LPC*%
G36*
X641505Y663828D02*
X641505Y663828D01*
X641707Y665101D01*
X642287Y666888D01*
X643141Y668562D01*
X644245Y670083D01*
X645574Y671411D01*
X647094Y672516D01*
X648769Y673369D01*
X650556Y673950D01*
X651828Y674151D01*
X651828Y663828D01*
X641505Y663828D01*
G37*
%LPD*%
%LPC*%
G36*
X621283Y1039877D02*
X621283Y1039877D01*
X631606Y1039877D01*
X631405Y1038604D01*
X630824Y1036817D01*
X629971Y1035143D01*
X628866Y1033622D01*
X627538Y1032294D01*
X626017Y1031189D01*
X624343Y1030336D01*
X622556Y1029755D01*
X621283Y1029554D01*
X621283Y1039877D01*
G37*
%LPD*%
%LPC*%
G36*
X1089404Y625895D02*
X1089404Y625895D01*
X1087617Y626476D01*
X1085943Y627329D01*
X1084422Y628434D01*
X1083094Y629762D01*
X1081989Y631283D01*
X1081136Y632957D01*
X1080555Y634744D01*
X1080354Y636017D01*
X1090677Y636017D01*
X1090677Y625694D01*
X1089404Y625895D01*
G37*
%LPD*%
%LPC*%
G36*
X9904Y1037375D02*
X9904Y1037375D01*
X8117Y1037956D01*
X6443Y1038809D01*
X4922Y1039914D01*
X3594Y1041242D01*
X2489Y1042763D01*
X1636Y1044437D01*
X1055Y1046224D01*
X854Y1047497D01*
X11177Y1047497D01*
X11177Y1037174D01*
X9904Y1037375D01*
G37*
%LPD*%
%LPC*%
G36*
X718564Y956095D02*
X718564Y956095D01*
X716777Y956676D01*
X715103Y957529D01*
X713582Y958634D01*
X712254Y959962D01*
X711149Y961483D01*
X710296Y963157D01*
X709715Y964944D01*
X709514Y966217D01*
X719837Y966217D01*
X719837Y955894D01*
X718564Y956095D01*
G37*
%LPD*%
%LPC*%
G36*
X235964Y1037375D02*
X235964Y1037375D01*
X234177Y1037956D01*
X232503Y1038809D01*
X230982Y1039914D01*
X229654Y1041242D01*
X228549Y1042763D01*
X227696Y1044437D01*
X227115Y1046224D01*
X226914Y1047497D01*
X237237Y1047497D01*
X237237Y1037174D01*
X235964Y1037375D01*
G37*
%LPD*%
%LPC*%
G36*
X616964Y1029755D02*
X616964Y1029755D01*
X615177Y1030336D01*
X613503Y1031189D01*
X611982Y1032294D01*
X610654Y1033622D01*
X609549Y1035143D01*
X608696Y1036817D01*
X608115Y1038604D01*
X607914Y1039877D01*
X618237Y1039877D01*
X618237Y1029554D01*
X616964Y1029755D01*
G37*
%LPD*%
%LPC*%
G36*
X718564Y808775D02*
X718564Y808775D01*
X716777Y809356D01*
X715103Y810209D01*
X713582Y811314D01*
X712254Y812642D01*
X711149Y814163D01*
X710296Y815837D01*
X709715Y817624D01*
X709514Y818897D01*
X719837Y818897D01*
X719837Y808574D01*
X718564Y808775D01*
G37*
%LPD*%
%LPC*%
G36*
X131316Y721907D02*
X131316Y721907D01*
X129529Y722488D01*
X127855Y723341D01*
X126334Y724446D01*
X125006Y725774D01*
X123901Y727295D01*
X123048Y728969D01*
X122467Y730756D01*
X122266Y732029D01*
X132589Y732029D01*
X132589Y721706D01*
X131316Y721907D01*
G37*
%LPD*%
%LPC*%
G36*
X650556Y650660D02*
X650556Y650660D01*
X648769Y651241D01*
X647094Y652094D01*
X645574Y653199D01*
X644245Y654527D01*
X643141Y656048D01*
X642287Y657722D01*
X641707Y659509D01*
X641505Y660782D01*
X651828Y660782D01*
X651828Y650459D01*
X650556Y650660D01*
G37*
%LPD*%
%LPC*%
G36*
X522223Y788923D02*
X522223Y788923D01*
X522223Y797481D01*
X528574Y797481D01*
X529221Y797308D01*
X529800Y796973D01*
X530273Y796500D01*
X530608Y795921D01*
X530781Y795274D01*
X530781Y788923D01*
X522223Y788923D01*
G37*
%LPD*%
%LPC*%
G36*
X90423Y865123D02*
X90423Y865123D01*
X90423Y873681D01*
X96774Y873681D01*
X97421Y873508D01*
X98000Y873173D01*
X98473Y872700D01*
X98808Y872121D01*
X98981Y871474D01*
X98981Y865123D01*
X90423Y865123D01*
G37*
%LPD*%
%LPC*%
G36*
X192023Y788923D02*
X192023Y788923D01*
X192023Y797481D01*
X198374Y797481D01*
X199021Y797308D01*
X199600Y796973D01*
X200073Y796500D01*
X200408Y795921D01*
X200581Y795274D01*
X200581Y788923D01*
X192023Y788923D01*
G37*
%LPD*%
%LPC*%
G36*
X547623Y941323D02*
X547623Y941323D01*
X547623Y949881D01*
X553974Y949881D01*
X554621Y949708D01*
X555200Y949373D01*
X555673Y948900D01*
X556008Y948321D01*
X556181Y947674D01*
X556181Y941323D01*
X547623Y941323D01*
G37*
%LPD*%
%LPC*%
G36*
X180419Y788923D02*
X180419Y788923D01*
X180419Y795274D01*
X180592Y795921D01*
X180927Y796500D01*
X181400Y796973D01*
X181979Y797308D01*
X182626Y797481D01*
X188977Y797481D01*
X188977Y788923D01*
X180419Y788923D01*
G37*
%LPD*%
%LPC*%
G36*
X78819Y865123D02*
X78819Y865123D01*
X78819Y871474D01*
X78992Y872121D01*
X79327Y872700D01*
X79800Y873173D01*
X80379Y873508D01*
X81026Y873681D01*
X87377Y873681D01*
X87377Y865123D01*
X78819Y865123D01*
G37*
%LPD*%
%LPC*%
G36*
X536019Y941323D02*
X536019Y941323D01*
X536019Y947674D01*
X536192Y948321D01*
X536527Y948900D01*
X537000Y949373D01*
X537579Y949708D01*
X538226Y949881D01*
X544577Y949881D01*
X544577Y941323D01*
X536019Y941323D01*
G37*
%LPD*%
%LPC*%
G36*
X522223Y777319D02*
X522223Y777319D01*
X522223Y785877D01*
X530781Y785877D01*
X530781Y779526D01*
X530608Y778879D01*
X530273Y778300D01*
X529800Y777827D01*
X529221Y777492D01*
X528574Y777319D01*
X522223Y777319D01*
G37*
%LPD*%
%LPC*%
G36*
X192023Y777319D02*
X192023Y777319D01*
X192023Y785877D01*
X200581Y785877D01*
X200581Y779526D01*
X200408Y778879D01*
X200073Y778300D01*
X199600Y777827D01*
X199021Y777492D01*
X198374Y777319D01*
X192023Y777319D01*
G37*
%LPD*%
%LPC*%
G36*
X510619Y788923D02*
X510619Y788923D01*
X510619Y795274D01*
X510792Y795921D01*
X511127Y796500D01*
X511600Y796973D01*
X512179Y797308D01*
X512826Y797481D01*
X519177Y797481D01*
X519177Y788923D01*
X510619Y788923D01*
G37*
%LPD*%
%LPC*%
G36*
X90423Y853519D02*
X90423Y853519D01*
X90423Y862077D01*
X98981Y862077D01*
X98981Y855726D01*
X98808Y855079D01*
X98473Y854500D01*
X98000Y854027D01*
X97421Y853692D01*
X96774Y853519D01*
X90423Y853519D01*
G37*
%LPD*%
%LPC*%
G36*
X547623Y929719D02*
X547623Y929719D01*
X547623Y938277D01*
X556181Y938277D01*
X556181Y931926D01*
X556008Y931279D01*
X555673Y930700D01*
X555200Y930227D01*
X554621Y929892D01*
X553974Y929719D01*
X547623Y929719D01*
G37*
%LPD*%
%LPC*%
G36*
X512826Y777319D02*
X512826Y777319D01*
X512179Y777492D01*
X511600Y777827D01*
X511127Y778300D01*
X510792Y778879D01*
X510619Y779526D01*
X510619Y785877D01*
X519177Y785877D01*
X519177Y777319D01*
X512826Y777319D01*
G37*
%LPD*%
%LPC*%
G36*
X182626Y777319D02*
X182626Y777319D01*
X181979Y777492D01*
X181400Y777827D01*
X180927Y778300D01*
X180592Y778879D01*
X180419Y779526D01*
X180419Y785877D01*
X188977Y785877D01*
X188977Y777319D01*
X182626Y777319D01*
G37*
%LPD*%
%LPC*%
G36*
X538226Y929719D02*
X538226Y929719D01*
X537579Y929892D01*
X537000Y930227D01*
X536527Y930700D01*
X536192Y931279D01*
X536019Y931926D01*
X536019Y938277D01*
X544577Y938277D01*
X544577Y929719D01*
X538226Y929719D01*
G37*
%LPD*%
%LPC*%
G36*
X81026Y853519D02*
X81026Y853519D01*
X80379Y853692D01*
X79800Y854027D01*
X79327Y854500D01*
X78992Y855079D01*
X78819Y855726D01*
X78819Y862077D01*
X87377Y862077D01*
X87377Y853519D01*
X81026Y853519D01*
G37*
%LPD*%
%LPC*%
G36*
X354202Y632967D02*
X354202Y632967D01*
X354202Y642776D01*
X355356Y642593D01*
X357067Y642037D01*
X358670Y641220D01*
X360126Y640163D01*
X361398Y638891D01*
X362455Y637435D01*
X363272Y635832D01*
X363828Y634121D01*
X364011Y632967D01*
X354202Y632967D01*
G37*
%LPD*%
%LPC*%
G36*
X341347Y632967D02*
X341347Y632967D01*
X341530Y634121D01*
X342086Y635832D01*
X342903Y637435D01*
X343960Y638891D01*
X345232Y640163D01*
X346688Y641220D01*
X348291Y642037D01*
X350002Y642593D01*
X351156Y642776D01*
X351156Y632967D01*
X341347Y632967D01*
G37*
%LPD*%
%LPC*%
G36*
X354202Y629921D02*
X354202Y629921D01*
X364011Y629921D01*
X363828Y628767D01*
X363272Y627056D01*
X362455Y625453D01*
X361398Y623997D01*
X360126Y622725D01*
X358670Y621668D01*
X357067Y620851D01*
X355356Y620295D01*
X354202Y620112D01*
X354202Y629921D01*
G37*
%LPD*%
%LPC*%
G36*
X350002Y620295D02*
X350002Y620295D01*
X348291Y620851D01*
X346688Y621668D01*
X345232Y622725D01*
X343960Y623997D01*
X342903Y625453D01*
X342086Y627056D01*
X341530Y628767D01*
X341347Y629921D01*
X351156Y629921D01*
X351156Y620112D01*
X350002Y620295D01*
G37*
%LPD*%
%LPC*%
G36*
X888999Y663701D02*
X888999Y663701D01*
X888999Y672996D01*
X890034Y672832D01*
X891669Y672300D01*
X893201Y671520D01*
X894592Y670509D01*
X895807Y669294D01*
X896818Y667903D01*
X897598Y666371D01*
X898130Y664736D01*
X898294Y663701D01*
X888999Y663701D01*
G37*
%LPD*%
%LPC*%
G36*
X888999Y660655D02*
X888999Y660655D01*
X898294Y660655D01*
X898130Y659620D01*
X897598Y657985D01*
X896818Y656453D01*
X895807Y655062D01*
X894592Y653847D01*
X893201Y652836D01*
X891669Y652056D01*
X890034Y651524D01*
X888999Y651360D01*
X888999Y660655D01*
G37*
%LPD*%
%LPC*%
G36*
X876658Y663701D02*
X876658Y663701D01*
X876822Y664736D01*
X877354Y666371D01*
X878134Y667903D01*
X879145Y669294D01*
X880360Y670509D01*
X881751Y671520D01*
X883283Y672300D01*
X884918Y672832D01*
X885953Y672996D01*
X885953Y663701D01*
X876658Y663701D01*
G37*
%LPD*%
%LPC*%
G36*
X884918Y651524D02*
X884918Y651524D01*
X883283Y652056D01*
X881751Y652836D01*
X880360Y653847D01*
X879145Y655062D01*
X878134Y656453D01*
X877354Y657985D01*
X876822Y659620D01*
X876658Y660655D01*
X885953Y660655D01*
X885953Y651360D01*
X884918Y651524D01*
G37*
%LPD*%
%LPC*%
G36*
X382523Y911323D02*
X382523Y911323D01*
X382523Y919765D01*
X383361Y919633D01*
X384870Y919142D01*
X386283Y918422D01*
X387567Y917489D01*
X388689Y916367D01*
X389622Y915083D01*
X390342Y913670D01*
X390833Y912161D01*
X390965Y911323D01*
X382523Y911323D01*
G37*
%LPD*%
%LPC*%
G36*
X407923Y911323D02*
X407923Y911323D01*
X407923Y919765D01*
X408761Y919633D01*
X410270Y919142D01*
X411683Y918422D01*
X412967Y917489D01*
X414089Y916367D01*
X415022Y915083D01*
X415742Y913670D01*
X416233Y912161D01*
X416365Y911323D01*
X407923Y911323D01*
G37*
%LPD*%
%LPC*%
G36*
X396435Y911323D02*
X396435Y911323D01*
X396567Y912161D01*
X397058Y913670D01*
X397778Y915083D01*
X398711Y916367D01*
X399833Y917489D01*
X401117Y918422D01*
X402530Y919142D01*
X404039Y919633D01*
X404877Y919765D01*
X404877Y911323D01*
X396435Y911323D01*
G37*
%LPD*%
%LPC*%
G36*
X371035Y911323D02*
X371035Y911323D01*
X371167Y912161D01*
X371658Y913670D01*
X372378Y915083D01*
X373311Y916367D01*
X374433Y917489D01*
X375717Y918422D01*
X377130Y919142D01*
X378639Y919633D01*
X379477Y919765D01*
X379477Y911323D01*
X371035Y911323D01*
G37*
%LPD*%
%LPC*%
G36*
X407923Y908277D02*
X407923Y908277D01*
X416365Y908277D01*
X416233Y907439D01*
X415742Y905930D01*
X415022Y904517D01*
X414089Y903233D01*
X412967Y902111D01*
X411683Y901178D01*
X410270Y900458D01*
X408761Y899967D01*
X407923Y899835D01*
X407923Y908277D01*
G37*
%LPD*%
%LPC*%
G36*
X382523Y908277D02*
X382523Y908277D01*
X390965Y908277D01*
X390833Y907439D01*
X390342Y905930D01*
X389622Y904517D01*
X388689Y903233D01*
X387567Y902111D01*
X386283Y901178D01*
X384870Y900458D01*
X383361Y899967D01*
X382523Y899835D01*
X382523Y908277D01*
G37*
%LPD*%
%LPC*%
G36*
X404039Y899967D02*
X404039Y899967D01*
X402530Y900458D01*
X401117Y901178D01*
X399833Y902111D01*
X398711Y903233D01*
X397778Y904517D01*
X397058Y905930D01*
X396567Y907439D01*
X396435Y908277D01*
X404877Y908277D01*
X404877Y899835D01*
X404039Y899967D01*
G37*
%LPD*%
%LPC*%
G36*
X378639Y899967D02*
X378639Y899967D01*
X377130Y900458D01*
X375717Y901178D01*
X374433Y902111D01*
X373311Y903233D01*
X372378Y904517D01*
X371658Y905930D01*
X371167Y907439D01*
X371035Y908277D01*
X379477Y908277D01*
X379477Y899835D01*
X378639Y899967D01*
G37*
%LPD*%
%LPC*%
G36*
X406399Y909799D02*
X406399Y909799D01*
X406399Y909801D01*
X406401Y909801D01*
X406401Y909799D01*
X406399Y909799D01*
G37*
%LPD*%
%LPC*%
G36*
X380999Y909799D02*
X380999Y909799D01*
X380999Y909801D01*
X381001Y909801D01*
X381001Y909799D01*
X380999Y909799D01*
G37*
%LPD*%
%LPC*%
G36*
X653351Y662304D02*
X653351Y662304D01*
X653351Y662306D01*
X653352Y662306D01*
X653352Y662304D01*
X653351Y662304D01*
G37*
%LPD*%
%LPC*%
G36*
X352678Y631443D02*
X352678Y631443D01*
X352678Y631445D01*
X352680Y631445D01*
X352680Y631443D01*
X352678Y631443D01*
G37*
%LPD*%
%LPC*%
G36*
X721359Y820419D02*
X721359Y820419D01*
X721359Y820421D01*
X721361Y820421D01*
X721361Y820419D01*
X721359Y820419D01*
G37*
%LPD*%
%LPC*%
G36*
X887475Y662177D02*
X887475Y662177D01*
X887475Y662179D01*
X887477Y662179D01*
X887477Y662177D01*
X887475Y662177D01*
G37*
%LPD*%
%LPC*%
G36*
X1092199Y637539D02*
X1092199Y637539D01*
X1092199Y637541D01*
X1092201Y637541D01*
X1092201Y637539D01*
X1092199Y637539D01*
G37*
%LPD*%
%LPC*%
G36*
X190499Y787399D02*
X190499Y787399D01*
X190499Y787401D01*
X190501Y787401D01*
X190501Y787399D01*
X190499Y787399D01*
G37*
%LPD*%
%LPC*%
G36*
X546099Y939799D02*
X546099Y939799D01*
X546099Y939801D01*
X546101Y939801D01*
X546101Y939799D01*
X546099Y939799D01*
G37*
%LPD*%
%LPC*%
G36*
X520699Y787399D02*
X520699Y787399D01*
X520699Y787401D01*
X520701Y787401D01*
X520701Y787399D01*
X520699Y787399D01*
G37*
%LPD*%
%LPC*%
G36*
X134111Y733551D02*
X134111Y733551D01*
X134111Y733553D01*
X134113Y733553D01*
X134113Y733551D01*
X134111Y733551D01*
G37*
%LPD*%
%LPC*%
G36*
X721359Y967739D02*
X721359Y967739D01*
X721359Y967741D01*
X721361Y967741D01*
X721361Y967739D01*
X721359Y967739D01*
G37*
%LPD*%
%LPC*%
G36*
X482599Y1023619D02*
X482599Y1023619D01*
X482599Y1023621D01*
X482601Y1023621D01*
X482601Y1023619D01*
X482599Y1023619D01*
G37*
%LPD*%
%LPC*%
G36*
X619759Y1041399D02*
X619759Y1041399D01*
X619759Y1041401D01*
X619761Y1041401D01*
X619761Y1041399D01*
X619759Y1041399D01*
G37*
%LPD*%
%LPC*%
G36*
X12699Y1049019D02*
X12699Y1049019D01*
X12699Y1049021D01*
X12701Y1049021D01*
X12701Y1049019D01*
X12699Y1049019D01*
G37*
%LPD*%
%LPC*%
G36*
X238759Y1049019D02*
X238759Y1049019D01*
X238759Y1049021D01*
X238761Y1049021D01*
X238761Y1049019D01*
X238759Y1049019D01*
G37*
%LPD*%
%LPC*%
G36*
X88899Y863599D02*
X88899Y863599D01*
X88899Y863601D01*
X88901Y863601D01*
X88901Y863599D01*
X88899Y863599D01*
G37*
%LPD*%
D10*
X1046580Y789740D03*
X1046580Y1000740D03*
D11*
X12700Y1049020D03*
X38100Y1049020D03*
X63500Y1049020D03*
X88900Y1049020D03*
X139700Y1049020D03*
X165100Y1049020D03*
X190500Y1049020D03*
D12*
X546100Y939800D03*
X88900Y863600D03*
X520700Y787400D03*
D13*
X546100Y787400D03*
D14*
X495300Y787400D03*
X88900Y889000D03*
D15*
X88900Y914400D03*
X88900Y838200D03*
X88900Y812800D03*
X215900Y787400D03*
X215900Y939800D03*
X520700Y939800D03*
X495300Y939800D03*
X469900Y939800D03*
X444500Y939800D03*
X419100Y939800D03*
X393700Y939800D03*
X368300Y939800D03*
X342900Y939800D03*
X317500Y939800D03*
X292100Y939800D03*
X266700Y939800D03*
X241300Y939800D03*
X520700Y812800D03*
X241300Y787400D03*
X266700Y787400D03*
X292100Y787400D03*
X317500Y787400D03*
X342900Y787400D03*
X368300Y787400D03*
X393700Y787400D03*
X419100Y787400D03*
X444500Y787400D03*
X469900Y787400D03*
D14*
X190500Y939800D03*
D15*
X139700Y939800D03*
X114300Y939800D03*
X88900Y939800D03*
X63500Y939800D03*
X38100Y939800D03*
X12700Y939800D03*
X-12700Y939800D03*
X-38100Y939800D03*
X165100Y787400D03*
X139700Y787400D03*
X114300Y787400D03*
X88900Y787400D03*
X63500Y787400D03*
X38100Y787400D03*
X12700Y787400D03*
X-12700Y787400D03*
X-38100Y787400D03*
X482600Y909800D03*
X457200Y909800D03*
X431800Y909800D03*
X406400Y909800D03*
X381000Y909800D03*
X165100Y939800D03*
D12*
X190500Y787400D03*
D15*
X543800Y853600D03*
X543800Y873600D03*
D16*
X416400Y812800D03*
X416400Y832800D03*
X416400Y852800D03*
X396400Y812800D03*
X396400Y832800D03*
X396400Y852800D03*
D13*
X887476Y712978D03*
X887476Y687578D03*
X887476Y662178D03*
X887476Y636778D03*
X887476Y611378D03*
X887476Y585978D03*
X887476Y560578D03*
X887476Y535178D03*
D17*
X1014476Y726948D03*
X1014476Y523748D03*
D11*
X721360Y942340D03*
X721360Y967740D03*
X721360Y993140D03*
X721360Y1018540D03*
X108712Y733552D03*
X134112Y733552D03*
X159512Y733552D03*
X184912Y733552D03*
X210312Y733552D03*
D17*
X57912Y530352D03*
D11*
X653352Y713105D03*
X653352Y687705D03*
X653352Y662305D03*
X653352Y636905D03*
X653352Y611505D03*
X653352Y586105D03*
X653352Y560705D03*
D17*
X781677Y717739D03*
X781304Y549910D03*
D11*
X721360Y795020D03*
X721360Y820420D03*
X721360Y845820D03*
X721360Y871220D03*
D18*
X352679Y682244D03*
X352679Y656844D03*
X352679Y631444D03*
X352679Y606044D03*
X352679Y580644D03*
X352679Y555244D03*
X531114Y684149D03*
X531114Y658749D03*
X531114Y633349D03*
X531114Y607949D03*
X531114Y582549D03*
X531114Y557149D03*
D17*
X531114Y518414D03*
X530479Y722884D03*
X352679Y722884D03*
X352679Y518414D03*
D11*
X1092200Y688340D03*
X1092200Y662940D03*
X1092200Y637540D03*
X1092200Y612140D03*
X1092200Y586740D03*
X1092200Y561340D03*
D17*
X1214493Y728534D03*
X1214493Y525334D03*
X1087493Y525334D03*
X1087493Y728534D03*
D11*
X1219200Y688340D03*
X1219200Y662940D03*
X1219200Y637540D03*
X1219200Y612140D03*
X1219200Y586740D03*
X1219200Y561340D03*
D19*
X482600Y1023620D03*
X533400Y1023620D03*
D11*
X619760Y1041400D03*
X645160Y1041400D03*
X238760Y1049020D03*
X264160Y1049020D03*
X289560Y1049020D03*
D20*
X352679Y682244D02*
X505065Y682244D01*
X543433Y698373D02*
X553720Y708660D01*
X521194Y698373D02*
X505065Y682244D01*
X521194Y698373D02*
X543433Y698373D01*
D21*
X553720Y708660D03*
X1018540Y881380D03*
X383540Y1046480D03*
X378460Y1008380D03*
X205740Y1008380D03*
D22*
X127000Y977900D02*
X127000Y946150D01*
D21*
X127000Y946150D03*
X309880Y693420D03*
D22*
X330200Y673100D01*
D21*
X330200Y673100D03*
X388620Y642620D03*
X396240Y619760D03*
D22*
X396240Y635000D01*
X388620Y642620D01*
D21*
X127000Y977900D03*
D22*
X371475Y598488D02*
X354013Y581025D01*
X352679Y580644D01*
X225425Y930275D02*
X215900Y939800D01*
X225425Y930275D02*
X225425Y919163D01*
X373063Y641350D02*
X371475Y639763D01*
X371475Y598488D01*
D21*
X371475Y598488D03*
X225425Y919163D03*
X373063Y641350D03*
D22*
X484188Y627063D02*
X530225Y581025D01*
X531114Y582549D01*
D21*
X484188Y627063D03*
X226060Y858520D03*
D22*
X254000Y886460D01*
X317500Y886460D02*
X320040Y889000D01*
X317500Y886460D02*
X254000Y886460D01*
D21*
X320040Y889000D03*
X309880Y906780D03*
D22*
X251460Y906780D01*
X226060Y881380D01*
D21*
X226060Y881380D03*
X203200Y911860D03*
D20*
X204506Y910555D01*
X240639Y910555D01*
X249564Y919480D01*
X314960Y919480D02*
X317500Y922020D01*
X314960Y919480D02*
X249564Y919480D01*
D21*
X317500Y922020D03*
X497840Y922020D03*
D20*
X541020Y922020D01*
D21*
X541020Y922020D03*
X683260Y922020D03*
D20*
X741680Y922020D01*
D21*
X741680Y922020D03*
D22*
X426720Y754380D02*
X393700Y787400D01*
X426720Y754380D02*
X429260Y754380D01*
D21*
X429260Y754380D03*
X449580Y627380D03*
D22*
X449580Y591820D01*
D21*
X449580Y591820D03*
X500380Y701040D03*
D22*
X365760Y701040D01*
D21*
X365760Y701040D03*
X695960Y647700D03*
D22*
X762000Y581660D01*
X762000Y579120D01*
D21*
X762000Y579120D03*
X467360Y713740D03*
D22*
X393700Y713740D01*
D21*
X393700Y713740D03*
D22*
X165100Y939800D02*
X163513Y938213D01*
X163513Y898525D01*
D21*
X163513Y898525D03*
M02*
