G04 EAGLE Gerber RS-274X export*
G75*
%MOMM*%
%FSLAX34Y34*%
%LPD*%
%INSoldermask Top*%
%IPPOS*%
%AMOC8*
5,1,8,0,0,1.08239X$1,22.5*%
G01*
%ADD10C,2.703200*%
%ADD11C,2.978200*%
%ADD12R,4.163200X4.163200*%
%ADD13R,1.503200X1.703200*%
%ADD14C,2.082800*%
%ADD15R,1.711200X1.711200*%
%ADD16C,1.879600*%
%ADD17P,1.852186X8X292.500000*%
%ADD18C,1.711200*%
%ADD19C,1.311200*%
%ADD20C,3.719200*%
%ADD21C,1.981200*%
%ADD22C,3.759200*%
%ADD23C,0.353406*%
%ADD24R,1.303200X1.203200*%
%ADD25R,2.003200X1.803200*%
%ADD26C,0.959600*%


D10*
X-38100Y1043940D03*
X-38100Y508000D03*
X1272540Y1043940D03*
X1272540Y508000D03*
D11*
X1046580Y789740D03*
X1046580Y1000740D03*
D12*
X1046580Y895240D03*
D13*
X186080Y1021080D03*
X205080Y1021080D03*
D14*
X12700Y1049020D03*
X38100Y1049020D03*
X63500Y1049020D03*
X88900Y1049020D03*
X139700Y1049020D03*
X165100Y1049020D03*
X190500Y1049020D03*
D15*
X546100Y939800D03*
X88900Y863600D03*
X520700Y787400D03*
D16*
X546100Y787400D03*
D17*
X495300Y787400D03*
X88900Y889000D03*
D18*
X88900Y914400D03*
X88900Y838200D03*
X88900Y812800D03*
X215900Y787400D03*
X215900Y939800D03*
X520700Y939800D03*
X495300Y939800D03*
X469900Y939800D03*
X444500Y939800D03*
X419100Y939800D03*
X393700Y939800D03*
X368300Y939800D03*
X342900Y939800D03*
X317500Y939800D03*
X292100Y939800D03*
X266700Y939800D03*
X241300Y939800D03*
X520700Y812800D03*
X241300Y787400D03*
X266700Y787400D03*
X292100Y787400D03*
X317500Y787400D03*
X342900Y787400D03*
X368300Y787400D03*
X393700Y787400D03*
X419100Y787400D03*
X444500Y787400D03*
X469900Y787400D03*
D17*
X190500Y939800D03*
D18*
X139700Y939800D03*
X114300Y939800D03*
X88900Y939800D03*
X63500Y939800D03*
X38100Y939800D03*
X12700Y939800D03*
X-12700Y939800D03*
X-38100Y939800D03*
X165100Y787400D03*
X139700Y787400D03*
X114300Y787400D03*
X88900Y787400D03*
X63500Y787400D03*
X38100Y787400D03*
X12700Y787400D03*
X-12700Y787400D03*
X-38100Y787400D03*
X482600Y909800D03*
X457200Y909800D03*
X431800Y909800D03*
X406400Y909800D03*
X381000Y909800D03*
X165100Y939800D03*
D15*
X190500Y787400D03*
D18*
X543800Y853600D03*
X543800Y873600D03*
D19*
X416400Y812800D03*
X416400Y832800D03*
X416400Y852800D03*
X396400Y812800D03*
X396400Y832800D03*
X396400Y852800D03*
D16*
X887476Y712978D03*
X887476Y687578D03*
X887476Y662178D03*
X887476Y636778D03*
X887476Y611378D03*
X887476Y585978D03*
X887476Y560578D03*
X887476Y535178D03*
D20*
X1014476Y726948D03*
X1014476Y523748D03*
D14*
X721360Y942340D03*
X721360Y967740D03*
X721360Y993140D03*
X721360Y1018540D03*
X108712Y733552D03*
X134112Y733552D03*
X159512Y733552D03*
X184912Y733552D03*
X210312Y733552D03*
D20*
X57912Y530352D03*
D14*
X653352Y713105D03*
X653352Y687705D03*
X653352Y662305D03*
X653352Y636905D03*
X653352Y611505D03*
X653352Y586105D03*
X653352Y560705D03*
D20*
X781677Y717739D03*
X781304Y549910D03*
D14*
X721360Y795020D03*
X721360Y820420D03*
X721360Y845820D03*
X721360Y871220D03*
D21*
X352679Y682244D03*
X352679Y656844D03*
X352679Y631444D03*
X352679Y606044D03*
X352679Y580644D03*
X352679Y555244D03*
X531114Y684149D03*
X531114Y658749D03*
X531114Y633349D03*
X531114Y607949D03*
X531114Y582549D03*
X531114Y557149D03*
D20*
X531114Y518414D03*
X530479Y722884D03*
X352679Y722884D03*
X352679Y518414D03*
D14*
X1092200Y688340D03*
X1092200Y662940D03*
X1092200Y637540D03*
X1092200Y612140D03*
X1092200Y586740D03*
X1092200Y561340D03*
D20*
X1214493Y728534D03*
X1214493Y525334D03*
X1087493Y525334D03*
X1087493Y728534D03*
D14*
X1219200Y688340D03*
X1219200Y662940D03*
X1219200Y637540D03*
X1219200Y612140D03*
X1219200Y586740D03*
X1219200Y561340D03*
D22*
X482600Y1023620D03*
X533400Y1023620D03*
D23*
X370479Y1017561D02*
X352281Y1017561D01*
X352281Y1022059D01*
X370479Y1022059D01*
X370479Y1017561D01*
X370479Y1020918D02*
X352281Y1020918D01*
X352281Y1004861D02*
X370479Y1004861D01*
X352281Y1004861D02*
X352281Y1009359D01*
X370479Y1009359D01*
X370479Y1004861D01*
X370479Y1008218D02*
X352281Y1008218D01*
X352281Y992161D02*
X370479Y992161D01*
X352281Y992161D02*
X352281Y996659D01*
X370479Y996659D01*
X370479Y992161D01*
X370479Y995518D02*
X352281Y995518D01*
X352281Y979461D02*
X370479Y979461D01*
X352281Y979461D02*
X352281Y983959D01*
X370479Y983959D01*
X370479Y979461D01*
X370479Y982818D02*
X352281Y982818D01*
X401681Y983959D02*
X419879Y983959D01*
X419879Y979461D01*
X401681Y979461D01*
X401681Y983959D01*
X401681Y982818D02*
X419879Y982818D01*
X419879Y996659D02*
X401681Y996659D01*
X419879Y996659D02*
X419879Y992161D01*
X401681Y992161D01*
X401681Y996659D01*
X401681Y995518D02*
X419879Y995518D01*
X419879Y1009359D02*
X401681Y1009359D01*
X419879Y1009359D02*
X419879Y1004861D01*
X401681Y1004861D01*
X401681Y1009359D01*
X401681Y1008218D02*
X419879Y1008218D01*
X419879Y1022059D02*
X401681Y1022059D01*
X419879Y1022059D02*
X419879Y1017561D01*
X401681Y1017561D01*
X401681Y1022059D01*
X401681Y1020918D02*
X419879Y1020918D01*
D24*
X397900Y1046480D03*
X414900Y1046480D03*
D25*
X330200Y1009620D03*
X330200Y1037620D03*
D14*
X619760Y1041400D03*
X645160Y1041400D03*
X238760Y1049020D03*
X264160Y1049020D03*
X289560Y1049020D03*
D26*
X553720Y708660D03*
X1018540Y881380D03*
X383540Y1046480D03*
X378460Y1008380D03*
X205740Y1008380D03*
X127000Y946150D03*
X309880Y693420D03*
X330200Y673100D03*
X388620Y642620D03*
X396240Y619760D03*
X127000Y977900D03*
X371475Y598488D03*
X225425Y919163D03*
X373063Y641350D03*
X484188Y627063D03*
X226060Y858520D03*
X320040Y889000D03*
X309880Y906780D03*
X226060Y881380D03*
X203200Y911860D03*
X317500Y922020D03*
X497840Y922020D03*
X541020Y922020D03*
X683260Y922020D03*
X741680Y922020D03*
X429260Y754380D03*
X449580Y627380D03*
X449580Y591820D03*
X500380Y701040D03*
X365760Y701040D03*
X695960Y647700D03*
X762000Y579120D03*
X467360Y713740D03*
X393700Y713740D03*
X163513Y898525D03*
M02*
