G04 EAGLE Gerber RS-274X export*
G75*
%MOMM*%
%FSLAX34Y34*%
%LPD*%
%INBottom Copper*%
%IPPOS*%
%AMOC8*
5,1,8,0,0,1.08239X$1,22.5*%
G01*
%ADD10R,1.508000X1.508000*%
%ADD11C,1.676400*%
%ADD12P,1.632244X8X292.500000*%
%ADD13C,1.508000*%
%ADD14C,1.108000*%
%ADD15C,3.516000*%
%ADD16C,1.879600*%
%ADD17C,3.556000*%
%ADD18C,0.508000*%
%ADD19C,0.756400*%
%ADD20C,0.254000*%

G36*
X770795Y416693D02*
X770795Y416693D01*
X770866Y416695D01*
X773964Y417116D01*
X773987Y417123D01*
X774109Y417150D01*
X780385Y419310D01*
X780399Y419318D01*
X780414Y419321D01*
X780563Y419399D01*
X782116Y420447D01*
X782132Y420462D01*
X782151Y420472D01*
X782221Y420545D01*
X782295Y420616D01*
X782306Y420634D01*
X782320Y420650D01*
X782363Y420742D01*
X782411Y420832D01*
X782415Y420854D01*
X782424Y420873D01*
X782435Y420974D01*
X782452Y421075D01*
X782449Y421096D01*
X782451Y421117D01*
X782429Y421217D01*
X782413Y421318D01*
X782403Y421337D01*
X782399Y421358D01*
X782346Y421445D01*
X782299Y421536D01*
X782284Y421551D01*
X782273Y421569D01*
X782195Y421635D01*
X782121Y421706D01*
X782102Y421715D01*
X782086Y421729D01*
X781991Y421767D01*
X781899Y421810D01*
X781877Y421813D01*
X781858Y421821D01*
X781691Y421839D01*
X772733Y421839D01*
X764404Y425289D01*
X758029Y431664D01*
X754579Y439993D01*
X754579Y449007D01*
X758029Y457336D01*
X764404Y463711D01*
X772733Y467161D01*
X781747Y467161D01*
X790076Y463711D01*
X793593Y460194D01*
X793651Y460153D01*
X793703Y460103D01*
X793750Y460081D01*
X793792Y460051D01*
X793861Y460030D01*
X793926Y460000D01*
X793978Y459994D01*
X794028Y459978D01*
X794099Y459980D01*
X794170Y459972D01*
X794221Y459983D01*
X794273Y459985D01*
X794341Y460009D01*
X794411Y460025D01*
X794456Y460051D01*
X794504Y460069D01*
X794560Y460114D01*
X794622Y460151D01*
X794656Y460190D01*
X794696Y460223D01*
X794735Y460283D01*
X794782Y460338D01*
X794801Y460386D01*
X794829Y460430D01*
X794847Y460499D01*
X794874Y460566D01*
X794882Y460637D01*
X794890Y460668D01*
X794888Y460692D01*
X794892Y460733D01*
X794892Y903698D01*
X794877Y903794D01*
X794867Y903891D01*
X794857Y903915D01*
X794853Y903941D01*
X794807Y904027D01*
X794767Y904116D01*
X794750Y904135D01*
X794737Y904158D01*
X794667Y904225D01*
X794601Y904297D01*
X794578Y904310D01*
X794559Y904328D01*
X794471Y904369D01*
X794385Y904416D01*
X794360Y904420D01*
X794336Y904431D01*
X794239Y904442D01*
X794143Y904459D01*
X794117Y904456D01*
X794092Y904458D01*
X793996Y904438D01*
X793900Y904424D01*
X793877Y904412D01*
X793851Y904406D01*
X793768Y904356D01*
X793681Y904312D01*
X793662Y904293D01*
X793640Y904280D01*
X793577Y904206D01*
X793509Y904136D01*
X793493Y904108D01*
X793480Y904093D01*
X793468Y904062D01*
X793428Y903990D01*
X791371Y899024D01*
X784996Y892649D01*
X776667Y889199D01*
X767653Y889199D01*
X759324Y892649D01*
X752949Y899024D01*
X749499Y907353D01*
X749499Y916367D01*
X752949Y924696D01*
X759324Y931071D01*
X767653Y934521D01*
X776667Y934521D01*
X784996Y931071D01*
X787881Y928186D01*
X787950Y928136D01*
X788014Y928080D01*
X788050Y928065D01*
X788081Y928042D01*
X788162Y928017D01*
X788241Y927984D01*
X788279Y927981D01*
X788316Y927970D01*
X788401Y927972D01*
X788486Y927966D01*
X788523Y927975D01*
X788562Y927976D01*
X788642Y928006D01*
X788724Y928027D01*
X788757Y928047D01*
X788793Y928061D01*
X788859Y928114D01*
X788931Y928160D01*
X788955Y928190D01*
X788985Y928214D01*
X789031Y928286D01*
X789084Y928353D01*
X789097Y928389D01*
X789118Y928421D01*
X789139Y928504D01*
X789168Y928584D01*
X789169Y928622D01*
X789178Y928660D01*
X789171Y928745D01*
X789173Y928830D01*
X789162Y928867D01*
X789159Y928905D01*
X789126Y928983D01*
X789100Y929065D01*
X789073Y929107D01*
X789063Y929131D01*
X789034Y929167D01*
X789009Y929205D01*
X786486Y932297D01*
X786474Y932307D01*
X786466Y932320D01*
X786341Y932433D01*
X780666Y936523D01*
X780652Y936530D01*
X780640Y936541D01*
X780491Y936617D01*
X773950Y939099D01*
X773927Y939103D01*
X773806Y939138D01*
X770684Y939662D01*
X770651Y939662D01*
X770558Y939672D01*
X191162Y939672D01*
X191133Y939668D01*
X191075Y939667D01*
X187632Y939271D01*
X187601Y939262D01*
X187506Y939246D01*
X180542Y937221D01*
X180541Y937221D01*
X180540Y937220D01*
X180385Y937156D01*
X178211Y935947D01*
X178169Y935914D01*
X178121Y935888D01*
X178073Y935838D01*
X178018Y935795D01*
X177989Y935749D01*
X177952Y935710D01*
X177922Y935647D01*
X177884Y935589D01*
X177871Y935536D01*
X177848Y935487D01*
X177840Y935418D01*
X177823Y935350D01*
X177827Y935296D01*
X177821Y935243D01*
X177836Y935175D01*
X177841Y935105D01*
X177862Y935055D01*
X177873Y935002D01*
X177909Y934942D01*
X177936Y934878D01*
X177972Y934838D01*
X177999Y934791D01*
X178052Y934746D01*
X178098Y934693D01*
X178145Y934666D01*
X178186Y934631D01*
X178251Y934605D01*
X178311Y934570D01*
X178364Y934559D01*
X178414Y934539D01*
X178524Y934527D01*
X178552Y934521D01*
X178563Y934523D01*
X178581Y934521D01*
X187387Y934521D01*
X195716Y931071D01*
X202091Y924696D01*
X205541Y916367D01*
X205541Y907353D01*
X202091Y899024D01*
X195716Y892649D01*
X187387Y889199D01*
X178373Y889199D01*
X170044Y892649D01*
X163669Y899024D01*
X161659Y903877D01*
X161597Y903977D01*
X161534Y904080D01*
X161531Y904083D01*
X161529Y904086D01*
X161437Y904162D01*
X161346Y904239D01*
X161343Y904240D01*
X161340Y904243D01*
X161229Y904285D01*
X161117Y904329D01*
X161114Y904329D01*
X161110Y904331D01*
X160992Y904336D01*
X160872Y904342D01*
X160868Y904341D01*
X160865Y904341D01*
X160750Y904308D01*
X160635Y904276D01*
X160632Y904274D01*
X160628Y904273D01*
X160530Y904204D01*
X160432Y904137D01*
X160429Y904135D01*
X160426Y904132D01*
X160354Y904036D01*
X160283Y903942D01*
X160282Y903938D01*
X160279Y903935D01*
X160242Y903821D01*
X160204Y903708D01*
X160204Y903704D01*
X160203Y903701D01*
X160203Y903688D01*
X160196Y903541D01*
X160250Y902618D01*
X160190Y902446D01*
X160182Y902403D01*
X160166Y902363D01*
X160150Y902216D01*
X160148Y902203D01*
X160148Y902200D01*
X160148Y902196D01*
X160148Y447220D01*
X160151Y447202D01*
X160149Y447171D01*
X160404Y443285D01*
X160409Y443261D01*
X160428Y443137D01*
X162440Y435630D01*
X162446Y435616D01*
X162449Y435600D01*
X162516Y435447D01*
X166402Y428716D01*
X166412Y428704D01*
X166418Y428689D01*
X166523Y428558D01*
X172018Y423063D01*
X172031Y423054D01*
X172041Y423041D01*
X172176Y422942D01*
X178907Y419056D01*
X178921Y419050D01*
X178934Y419041D01*
X179090Y418980D01*
X186597Y416968D01*
X186621Y416966D01*
X186745Y416944D01*
X190631Y416689D01*
X190649Y416691D01*
X190680Y416688D01*
X770763Y416688D01*
X770795Y416693D01*
G37*
%LPC*%
G36*
X183453Y421839D02*
X183453Y421839D01*
X175124Y425289D01*
X168749Y431664D01*
X165299Y439993D01*
X165299Y449007D01*
X168749Y457336D01*
X175124Y463711D01*
X183453Y467161D01*
X192467Y467161D01*
X200796Y463711D01*
X207171Y457336D01*
X210621Y449007D01*
X210621Y439993D01*
X207171Y431664D01*
X200796Y425289D01*
X192467Y421839D01*
X183453Y421839D01*
G37*
%LPD*%
%LPC*%
G36*
X515962Y695733D02*
X515962Y695733D01*
X512853Y698842D01*
X512853Y703238D01*
X515962Y706347D01*
X517403Y706347D01*
X517493Y706361D01*
X517584Y706369D01*
X517614Y706381D01*
X517646Y706386D01*
X517726Y706429D01*
X517810Y706465D01*
X517842Y706491D01*
X517863Y706502D01*
X517885Y706525D01*
X517941Y706570D01*
X518698Y707327D01*
X518751Y707401D01*
X518811Y707470D01*
X518823Y707500D01*
X518842Y707526D01*
X518869Y707613D01*
X518903Y707698D01*
X518907Y707739D01*
X518914Y707762D01*
X518913Y707794D01*
X518921Y707865D01*
X518921Y717624D01*
X518910Y717695D01*
X518908Y717766D01*
X518890Y717815D01*
X518882Y717867D01*
X518848Y717930D01*
X518823Y717997D01*
X518791Y718038D01*
X518766Y718084D01*
X518714Y718133D01*
X518670Y718189D01*
X518626Y718218D01*
X518588Y718253D01*
X518523Y718284D01*
X518463Y718322D01*
X518412Y718335D01*
X518365Y718357D01*
X518294Y718365D01*
X518224Y718383D01*
X518172Y718378D01*
X518121Y718384D01*
X518050Y718369D01*
X517979Y718363D01*
X517931Y718343D01*
X517880Y718332D01*
X517819Y718295D01*
X517753Y718267D01*
X517697Y718222D01*
X517669Y718206D01*
X517654Y718188D01*
X517622Y718162D01*
X515675Y716215D01*
X512343Y714835D01*
X508737Y714835D01*
X505405Y716215D01*
X502855Y718765D01*
X501475Y722097D01*
X501475Y725703D01*
X502855Y729035D01*
X505405Y731585D01*
X508737Y732965D01*
X512343Y732965D01*
X515675Y731585D01*
X517622Y729638D01*
X517680Y729596D01*
X517732Y729547D01*
X517779Y729525D01*
X517821Y729494D01*
X517890Y729473D01*
X517955Y729443D01*
X518007Y729437D01*
X518057Y729422D01*
X518128Y729424D01*
X518199Y729416D01*
X518250Y729427D01*
X518302Y729428D01*
X518370Y729453D01*
X518440Y729468D01*
X518485Y729495D01*
X518533Y729513D01*
X518589Y729558D01*
X518651Y729594D01*
X518685Y729634D01*
X518725Y729666D01*
X518764Y729727D01*
X518811Y729781D01*
X518830Y729829D01*
X518858Y729873D01*
X518876Y729943D01*
X518903Y730009D01*
X518911Y730081D01*
X518919Y730112D01*
X518917Y730135D01*
X518921Y730176D01*
X518921Y770740D01*
X518902Y770855D01*
X518885Y770971D01*
X518883Y770977D01*
X518882Y770983D01*
X518827Y771085D01*
X518774Y771190D01*
X518769Y771195D01*
X518766Y771200D01*
X518682Y771280D01*
X518598Y771362D01*
X518592Y771366D01*
X518588Y771370D01*
X518571Y771377D01*
X518451Y771443D01*
X517374Y771889D01*
X514587Y774676D01*
X513079Y778317D01*
X513079Y782259D01*
X514587Y785900D01*
X517374Y788687D01*
X521015Y790195D01*
X524957Y790195D01*
X528598Y788687D01*
X531385Y785900D01*
X532893Y782259D01*
X532893Y778317D01*
X531385Y774676D01*
X528598Y771889D01*
X527521Y771443D01*
X527421Y771382D01*
X527321Y771322D01*
X527317Y771317D01*
X527312Y771314D01*
X527237Y771224D01*
X527161Y771135D01*
X527159Y771129D01*
X527155Y771124D01*
X527113Y771016D01*
X527069Y770907D01*
X527068Y770899D01*
X527067Y770895D01*
X527066Y770876D01*
X527051Y770740D01*
X527051Y729668D01*
X527062Y729597D01*
X527064Y729526D01*
X527082Y729477D01*
X527090Y729425D01*
X527124Y729362D01*
X527149Y729295D01*
X527181Y729254D01*
X527206Y729208D01*
X527258Y729159D01*
X527302Y729103D01*
X527346Y729074D01*
X527384Y729039D01*
X527449Y729008D01*
X527509Y728970D01*
X527560Y728957D01*
X527607Y728935D01*
X527678Y728927D01*
X527748Y728909D01*
X527800Y728914D01*
X527851Y728908D01*
X527922Y728923D01*
X527993Y728929D01*
X528041Y728949D01*
X528092Y728960D01*
X528153Y728997D01*
X528219Y729025D01*
X528275Y729070D01*
X528303Y729086D01*
X528318Y729104D01*
X528350Y729130D01*
X530805Y731585D01*
X534137Y732965D01*
X537743Y732965D01*
X541075Y731585D01*
X543625Y729035D01*
X545005Y725703D01*
X545005Y722097D01*
X543625Y718765D01*
X541075Y716215D01*
X537743Y714835D01*
X534137Y714835D01*
X530805Y716215D01*
X528350Y718670D01*
X528292Y718712D01*
X528240Y718761D01*
X528193Y718783D01*
X528151Y718814D01*
X528082Y718835D01*
X528017Y718865D01*
X527965Y718871D01*
X527915Y718886D01*
X527844Y718884D01*
X527773Y718892D01*
X527722Y718881D01*
X527670Y718880D01*
X527602Y718855D01*
X527532Y718840D01*
X527487Y718813D01*
X527439Y718795D01*
X527383Y718750D01*
X527321Y718714D01*
X527287Y718674D01*
X527247Y718642D01*
X527208Y718581D01*
X527161Y718527D01*
X527142Y718479D01*
X527114Y718435D01*
X527096Y718365D01*
X527069Y718299D01*
X527061Y718227D01*
X527053Y718196D01*
X527055Y718173D01*
X527051Y718132D01*
X527051Y704182D01*
X523690Y700821D01*
X523637Y700747D01*
X523577Y700678D01*
X523565Y700648D01*
X523546Y700622D01*
X523519Y700535D01*
X523485Y700450D01*
X523481Y700409D01*
X523474Y700386D01*
X523475Y700354D01*
X523467Y700283D01*
X523467Y698842D01*
X520358Y695733D01*
X515962Y695733D01*
G37*
%LPD*%
%LPC*%
G36*
X707360Y493775D02*
X707360Y493775D01*
X700265Y496714D01*
X694834Y502145D01*
X691895Y509240D01*
X691895Y516920D01*
X694834Y524015D01*
X700265Y529446D01*
X707360Y532385D01*
X715040Y532385D01*
X722135Y529446D01*
X727566Y524015D01*
X730505Y516920D01*
X730505Y509240D01*
X727566Y502145D01*
X722135Y496714D01*
X715040Y493775D01*
X707360Y493775D01*
G37*
%LPD*%
%LPC*%
G36*
X708416Y888183D02*
X708416Y888183D01*
X701394Y891092D01*
X696020Y896466D01*
X693111Y903488D01*
X693111Y911088D01*
X696020Y918110D01*
X701394Y923484D01*
X708416Y926393D01*
X716016Y926393D01*
X723038Y923484D01*
X728412Y918110D01*
X731321Y911088D01*
X731321Y903488D01*
X728412Y896466D01*
X723038Y891092D01*
X716016Y888183D01*
X708416Y888183D01*
G37*
%LPD*%
%LPC*%
G36*
X505216Y888183D02*
X505216Y888183D01*
X498194Y891092D01*
X492820Y896466D01*
X489911Y903488D01*
X489911Y911088D01*
X492820Y918110D01*
X498194Y923484D01*
X505216Y926393D01*
X512816Y926393D01*
X519838Y923484D01*
X525212Y918110D01*
X528121Y911088D01*
X528121Y903488D01*
X525212Y896466D01*
X519838Y891092D01*
X512816Y888183D01*
X505216Y888183D01*
G37*
%LPD*%
%LPC*%
G36*
X483337Y714835D02*
X483337Y714835D01*
X480005Y716215D01*
X477455Y718765D01*
X476075Y722097D01*
X476075Y725703D01*
X477455Y729035D01*
X480026Y731605D01*
X480037Y731621D01*
X480053Y731634D01*
X480109Y731721D01*
X480169Y731805D01*
X480175Y731824D01*
X480186Y731841D01*
X480211Y731941D01*
X480242Y732040D01*
X480241Y732060D01*
X480246Y732079D01*
X480238Y732182D01*
X480235Y732286D01*
X480228Y732305D01*
X480227Y732325D01*
X480187Y732419D01*
X480151Y732517D01*
X480138Y732533D01*
X480131Y732551D01*
X480026Y732682D01*
X441705Y771002D01*
X441705Y820475D01*
X441691Y820565D01*
X441683Y820656D01*
X441671Y820685D01*
X441666Y820717D01*
X441623Y820798D01*
X441587Y820882D01*
X441561Y820914D01*
X441550Y820935D01*
X441527Y820957D01*
X441482Y821013D01*
X439193Y823302D01*
X439193Y827698D01*
X442302Y830807D01*
X446698Y830807D01*
X449807Y827698D01*
X449807Y823302D01*
X447518Y821013D01*
X447465Y820939D01*
X447405Y820869D01*
X447393Y820839D01*
X447374Y820813D01*
X447347Y820726D01*
X447313Y820641D01*
X447309Y820600D01*
X447302Y820578D01*
X447303Y820546D01*
X447295Y820475D01*
X447295Y773633D01*
X447309Y773543D01*
X447317Y773452D01*
X447329Y773422D01*
X447334Y773390D01*
X447377Y773310D01*
X447413Y773226D01*
X447439Y773194D01*
X447450Y773173D01*
X447473Y773151D01*
X447518Y773095D01*
X486075Y734538D01*
X488039Y732574D01*
X488092Y732535D01*
X488139Y732489D01*
X488212Y732449D01*
X488238Y732430D01*
X488257Y732424D01*
X488286Y732409D01*
X490275Y731585D01*
X492825Y729035D01*
X494205Y725703D01*
X494205Y722097D01*
X492825Y718765D01*
X490275Y716215D01*
X486943Y714835D01*
X483337Y714835D01*
G37*
%LPD*%
%LPC*%
G36*
X432537Y714835D02*
X432537Y714835D01*
X429205Y716215D01*
X426655Y718765D01*
X425275Y722097D01*
X425275Y725703D01*
X426050Y727573D01*
X426077Y727687D01*
X426105Y727800D01*
X426105Y727807D01*
X426106Y727813D01*
X426095Y727929D01*
X426086Y728046D01*
X426084Y728051D01*
X426083Y728058D01*
X426035Y728165D01*
X425990Y728272D01*
X425985Y728278D01*
X425983Y728282D01*
X425970Y728296D01*
X425885Y728403D01*
X418845Y735442D01*
X418845Y820475D01*
X418831Y820565D01*
X418823Y820656D01*
X418811Y820685D01*
X418806Y820717D01*
X418763Y820798D01*
X418727Y820882D01*
X418701Y820914D01*
X418690Y820935D01*
X418667Y820957D01*
X418622Y821013D01*
X416333Y823302D01*
X416333Y827698D01*
X419442Y830807D01*
X423838Y830807D01*
X426947Y827698D01*
X426947Y823302D01*
X424658Y821013D01*
X424605Y820939D01*
X424545Y820869D01*
X424533Y820839D01*
X424514Y820813D01*
X424487Y820726D01*
X424453Y820641D01*
X424449Y820600D01*
X424442Y820578D01*
X424443Y820546D01*
X424435Y820475D01*
X424435Y738073D01*
X424449Y737983D01*
X424457Y737892D01*
X424469Y737862D01*
X424474Y737830D01*
X424517Y737750D01*
X424553Y737666D01*
X424579Y737634D01*
X424590Y737613D01*
X424613Y737591D01*
X424658Y737535D01*
X429837Y732355D01*
X429932Y732287D01*
X430026Y732217D01*
X430032Y732215D01*
X430037Y732212D01*
X430148Y732177D01*
X430260Y732141D01*
X430266Y732141D01*
X430272Y732139D01*
X430389Y732142D01*
X430506Y732143D01*
X430513Y732145D01*
X430518Y732146D01*
X430535Y732152D01*
X430667Y732190D01*
X432537Y732965D01*
X436143Y732965D01*
X439475Y731585D01*
X442025Y729035D01*
X443405Y725703D01*
X443405Y722097D01*
X442025Y718765D01*
X439475Y716215D01*
X436143Y714835D01*
X432537Y714835D01*
G37*
%LPD*%
%LPC*%
G36*
X405185Y714835D02*
X405185Y714835D01*
X399875Y720145D01*
X399875Y726901D01*
X399861Y726991D01*
X399853Y727082D01*
X399841Y727112D01*
X399836Y727144D01*
X399793Y727224D01*
X399757Y727308D01*
X399731Y727340D01*
X399720Y727361D01*
X399697Y727383D01*
X399652Y727439D01*
X382079Y745012D01*
X382005Y745065D01*
X381936Y745125D01*
X381906Y745137D01*
X381880Y745156D01*
X381793Y745183D01*
X381708Y745217D01*
X381667Y745221D01*
X381644Y745228D01*
X381612Y745227D01*
X381541Y745235D01*
X349195Y745235D01*
X349105Y745221D01*
X349014Y745213D01*
X348985Y745201D01*
X348953Y745196D01*
X348872Y745153D01*
X348788Y745117D01*
X348756Y745091D01*
X348735Y745080D01*
X348713Y745057D01*
X348657Y745012D01*
X347638Y743993D01*
X343242Y743993D01*
X340133Y747102D01*
X340133Y751498D01*
X343242Y754607D01*
X347638Y754607D01*
X348657Y753588D01*
X348731Y753535D01*
X348801Y753475D01*
X348831Y753463D01*
X348857Y753444D01*
X348944Y753417D01*
X349029Y753383D01*
X349070Y753379D01*
X349092Y753372D01*
X349124Y753373D01*
X349195Y753365D01*
X385224Y753365D01*
X387828Y750761D01*
X405401Y733188D01*
X405475Y733135D01*
X405544Y733075D01*
X405574Y733063D01*
X405600Y733044D01*
X405687Y733017D01*
X405772Y732983D01*
X405813Y732979D01*
X405835Y732972D01*
X405868Y732973D01*
X405939Y732965D01*
X412695Y732965D01*
X418005Y727655D01*
X418005Y720145D01*
X412695Y714835D01*
X405185Y714835D01*
G37*
%LPD*%
%LPC*%
G36*
X597215Y770381D02*
X597215Y770381D01*
X593574Y771889D01*
X590787Y774676D01*
X589279Y778317D01*
X589279Y782259D01*
X590251Y784606D01*
X590278Y784719D01*
X590307Y784833D01*
X590306Y784839D01*
X590308Y784845D01*
X590297Y784962D01*
X590288Y785078D01*
X590285Y785084D01*
X590285Y785090D01*
X590237Y785198D01*
X590191Y785304D01*
X590187Y785310D01*
X590185Y785315D01*
X590172Y785328D01*
X590086Y785435D01*
X568862Y806660D01*
X568845Y806672D01*
X568833Y806687D01*
X568746Y806743D01*
X568662Y806804D01*
X568643Y806809D01*
X568626Y806820D01*
X568525Y806846D01*
X568427Y806876D01*
X568407Y806875D01*
X568387Y806880D01*
X568284Y806872D01*
X568181Y806870D01*
X568162Y806863D01*
X568142Y806861D01*
X568047Y806821D01*
X567950Y806785D01*
X567934Y806773D01*
X567916Y806765D01*
X567785Y806660D01*
X566078Y804953D01*
X561682Y804953D01*
X558573Y808062D01*
X558573Y812458D01*
X561682Y815567D01*
X566078Y815567D01*
X568367Y813278D01*
X568441Y813225D01*
X568511Y813165D01*
X568541Y813153D01*
X568567Y813134D01*
X568654Y813107D01*
X568739Y813073D01*
X568780Y813069D01*
X568802Y813062D01*
X568834Y813063D01*
X568905Y813055D01*
X570372Y813055D01*
X594039Y789388D01*
X594133Y789320D01*
X594227Y789250D01*
X594233Y789248D01*
X594239Y789244D01*
X594349Y789210D01*
X594461Y789173D01*
X594468Y789174D01*
X594474Y789172D01*
X594590Y789175D01*
X594707Y789176D01*
X594714Y789178D01*
X594719Y789178D01*
X594737Y789184D01*
X594868Y789223D01*
X597215Y790195D01*
X601157Y790195D01*
X604798Y788687D01*
X607585Y785900D01*
X609093Y782259D01*
X609093Y778317D01*
X607585Y774676D01*
X604798Y771889D01*
X601157Y770381D01*
X597215Y770381D01*
G37*
%LPD*%
%LPC*%
G36*
X769987Y827277D02*
X769987Y827277D01*
X765973Y828940D01*
X762900Y832013D01*
X761237Y836027D01*
X761237Y840373D01*
X762900Y844387D01*
X765973Y847460D01*
X769987Y849123D01*
X774333Y849123D01*
X778347Y847460D01*
X781420Y844387D01*
X783083Y840373D01*
X783083Y836027D01*
X781420Y832013D01*
X778347Y828940D01*
X774333Y827277D01*
X769987Y827277D01*
G37*
%LPD*%
%LPC*%
G36*
X769987Y852677D02*
X769987Y852677D01*
X765973Y854340D01*
X762900Y857413D01*
X761237Y861427D01*
X761237Y865773D01*
X762900Y869787D01*
X765973Y872860D01*
X769987Y874523D01*
X774333Y874523D01*
X778347Y872860D01*
X781420Y869787D01*
X783083Y865773D01*
X783083Y861427D01*
X781420Y857413D01*
X778347Y854340D01*
X774333Y852677D01*
X769987Y852677D01*
G37*
%LPD*%
%LPC*%
G36*
X273671Y895984D02*
X273671Y895984D01*
X269657Y897647D01*
X266584Y900720D01*
X264921Y904734D01*
X264921Y909080D01*
X266584Y913094D01*
X269657Y916167D01*
X273671Y917830D01*
X278017Y917830D01*
X282031Y916167D01*
X285104Y913094D01*
X286767Y909080D01*
X286767Y904734D01*
X285104Y900720D01*
X282031Y897647D01*
X278017Y895984D01*
X273671Y895984D01*
G37*
%LPD*%
%LPC*%
G36*
X349871Y895984D02*
X349871Y895984D01*
X345857Y897647D01*
X342784Y900720D01*
X341121Y904734D01*
X341121Y909080D01*
X342784Y913094D01*
X345857Y916167D01*
X349871Y917830D01*
X354217Y917830D01*
X358231Y916167D01*
X361304Y913094D01*
X362967Y909080D01*
X362967Y904734D01*
X361304Y900720D01*
X358231Y897647D01*
X354217Y895984D01*
X349871Y895984D01*
G37*
%LPD*%
%LPC*%
G36*
X769987Y791717D02*
X769987Y791717D01*
X765973Y793380D01*
X762900Y796453D01*
X761237Y800467D01*
X761237Y804813D01*
X762900Y808827D01*
X765973Y811900D01*
X769987Y813563D01*
X774333Y813563D01*
X778347Y811900D01*
X781420Y808827D01*
X783083Y804813D01*
X783083Y800467D01*
X781420Y796453D01*
X778347Y793380D01*
X774333Y791717D01*
X769987Y791717D01*
G37*
%LPD*%
%LPC*%
G36*
X400671Y895984D02*
X400671Y895984D01*
X396657Y897647D01*
X393584Y900720D01*
X391921Y904734D01*
X391921Y909080D01*
X393584Y913094D01*
X396657Y916167D01*
X400671Y917830D01*
X405017Y917830D01*
X409031Y916167D01*
X412104Y913094D01*
X413767Y909080D01*
X413767Y904734D01*
X412104Y900720D01*
X409031Y897647D01*
X405017Y895984D01*
X400671Y895984D01*
G37*
%LPD*%
%LPC*%
G36*
X599807Y433577D02*
X599807Y433577D01*
X595793Y435240D01*
X592720Y438313D01*
X591057Y442327D01*
X591057Y446673D01*
X592720Y450687D01*
X595793Y453760D01*
X599807Y455423D01*
X604153Y455423D01*
X608167Y453760D01*
X611240Y450687D01*
X612903Y446673D01*
X612903Y442327D01*
X611240Y438313D01*
X608167Y435240D01*
X604153Y433577D01*
X599807Y433577D01*
G37*
%LPD*%
%LPC*%
G36*
X324471Y895984D02*
X324471Y895984D01*
X320457Y897647D01*
X317384Y900720D01*
X315721Y904734D01*
X315721Y909080D01*
X317384Y913094D01*
X320457Y916167D01*
X324471Y917830D01*
X328817Y917830D01*
X332831Y916167D01*
X335904Y913094D01*
X337567Y909080D01*
X337567Y904734D01*
X335904Y900720D01*
X332831Y897647D01*
X328817Y895984D01*
X324471Y895984D01*
G37*
%LPD*%
%LPC*%
G36*
X599807Y458977D02*
X599807Y458977D01*
X595793Y460640D01*
X592720Y463713D01*
X591057Y467727D01*
X591057Y472073D01*
X592720Y476087D01*
X595793Y479160D01*
X599807Y480823D01*
X604153Y480823D01*
X608167Y479160D01*
X611240Y476087D01*
X612903Y472073D01*
X612903Y467727D01*
X611240Y463713D01*
X608167Y460640D01*
X604153Y458977D01*
X599807Y458977D01*
G37*
%LPD*%
%LPC*%
G36*
X400925Y768984D02*
X400925Y768984D01*
X396911Y770647D01*
X393838Y773720D01*
X392175Y777734D01*
X392175Y782080D01*
X393838Y786094D01*
X396911Y789167D01*
X400925Y790830D01*
X405271Y790830D01*
X409285Y789167D01*
X412358Y786094D01*
X414021Y782080D01*
X414021Y777734D01*
X412358Y773720D01*
X409285Y770647D01*
X405271Y768984D01*
X400925Y768984D01*
G37*
%LPD*%
%LPC*%
G36*
X375525Y768984D02*
X375525Y768984D01*
X371511Y770647D01*
X368438Y773720D01*
X366775Y777734D01*
X366775Y782080D01*
X368438Y786094D01*
X371511Y789167D01*
X375525Y790830D01*
X379871Y790830D01*
X383885Y789167D01*
X386958Y786094D01*
X388621Y782080D01*
X388621Y777734D01*
X386958Y773720D01*
X383885Y770647D01*
X379871Y768984D01*
X375525Y768984D01*
G37*
%LPD*%
%LPC*%
G36*
X350125Y768984D02*
X350125Y768984D01*
X346111Y770647D01*
X343038Y773720D01*
X341375Y777734D01*
X341375Y782080D01*
X343038Y786094D01*
X346111Y789167D01*
X350125Y790830D01*
X354471Y790830D01*
X358485Y789167D01*
X361558Y786094D01*
X363221Y782080D01*
X363221Y777734D01*
X361558Y773720D01*
X358485Y770647D01*
X354471Y768984D01*
X350125Y768984D01*
G37*
%LPD*%
%LPC*%
G36*
X299325Y768984D02*
X299325Y768984D01*
X295311Y770647D01*
X292238Y773720D01*
X290575Y777734D01*
X290575Y782080D01*
X292238Y786094D01*
X295311Y789167D01*
X299325Y790830D01*
X303671Y790830D01*
X307685Y789167D01*
X310758Y786094D01*
X312421Y782080D01*
X312421Y777734D01*
X310758Y773720D01*
X307685Y770647D01*
X303671Y768984D01*
X299325Y768984D01*
G37*
%LPD*%
%LPC*%
G36*
X273925Y768984D02*
X273925Y768984D01*
X269911Y770647D01*
X266838Y773720D01*
X265175Y777734D01*
X265175Y782080D01*
X266838Y786094D01*
X269911Y789167D01*
X273925Y790830D01*
X278271Y790830D01*
X282285Y789167D01*
X285358Y786094D01*
X287021Y782080D01*
X287021Y777734D01*
X285358Y773720D01*
X282285Y770647D01*
X278271Y768984D01*
X273925Y768984D01*
G37*
%LPD*%
%LPC*%
G36*
X299071Y895984D02*
X299071Y895984D01*
X295057Y897647D01*
X291984Y900720D01*
X290321Y904734D01*
X290321Y909080D01*
X291984Y913094D01*
X295057Y916167D01*
X299071Y917830D01*
X303417Y917830D01*
X307431Y916167D01*
X310504Y913094D01*
X312167Y909080D01*
X312167Y904734D01*
X310504Y900720D01*
X307431Y897647D01*
X303417Y895984D01*
X299071Y895984D01*
G37*
%LPD*%
%LPC*%
G36*
X375271Y895984D02*
X375271Y895984D01*
X371257Y897647D01*
X368184Y900720D01*
X366521Y904734D01*
X366521Y909080D01*
X368184Y913094D01*
X371257Y916167D01*
X375271Y917830D01*
X379617Y917830D01*
X383631Y916167D01*
X386704Y913094D01*
X388367Y909080D01*
X388367Y904734D01*
X386704Y900720D01*
X383631Y897647D01*
X379617Y895984D01*
X375271Y895984D01*
G37*
%LPD*%
%LPC*%
G36*
X599807Y509777D02*
X599807Y509777D01*
X595793Y511440D01*
X592720Y514513D01*
X591057Y518527D01*
X591057Y522873D01*
X592720Y526887D01*
X595793Y529960D01*
X599807Y531623D01*
X604153Y531623D01*
X608167Y529960D01*
X611240Y526887D01*
X612903Y522873D01*
X612903Y518527D01*
X611240Y514513D01*
X608167Y511440D01*
X604153Y509777D01*
X599807Y509777D01*
G37*
%LPD*%
%LPC*%
G36*
X673415Y770381D02*
X673415Y770381D01*
X669774Y771889D01*
X666987Y774676D01*
X665479Y778317D01*
X665479Y782259D01*
X666987Y785900D01*
X669774Y788687D01*
X673415Y790195D01*
X677357Y790195D01*
X680998Y788687D01*
X683785Y785900D01*
X685293Y782259D01*
X685293Y778317D01*
X683785Y774676D01*
X680998Y771889D01*
X677357Y770381D01*
X673415Y770381D01*
G37*
%LPD*%
%LPC*%
G36*
X698815Y770381D02*
X698815Y770381D01*
X695174Y771889D01*
X692387Y774676D01*
X690879Y778317D01*
X690879Y782259D01*
X692387Y785900D01*
X695174Y788687D01*
X698815Y790195D01*
X702757Y790195D01*
X706398Y788687D01*
X709185Y785900D01*
X710693Y782259D01*
X710693Y778317D01*
X709185Y774676D01*
X706398Y771889D01*
X702757Y770381D01*
X698815Y770381D01*
G37*
%LPD*%
%LPC*%
G36*
X546415Y770381D02*
X546415Y770381D01*
X542774Y771889D01*
X539987Y774676D01*
X538479Y778317D01*
X538479Y782259D01*
X539987Y785900D01*
X542774Y788687D01*
X546415Y790195D01*
X550357Y790195D01*
X553998Y788687D01*
X556785Y785900D01*
X558293Y782259D01*
X558293Y778317D01*
X556785Y774676D01*
X553998Y771889D01*
X550357Y770381D01*
X546415Y770381D01*
G37*
%LPD*%
%LPC*%
G36*
X762569Y561593D02*
X762569Y561593D01*
X758928Y563101D01*
X756141Y565888D01*
X754633Y569529D01*
X754633Y573471D01*
X756141Y577112D01*
X758928Y579899D01*
X762569Y581407D01*
X766511Y581407D01*
X770152Y579899D01*
X772939Y577112D01*
X774447Y573471D01*
X774447Y569529D01*
X772939Y565888D01*
X770152Y563101D01*
X766511Y561593D01*
X762569Y561593D01*
G37*
%LPD*%
%LPC*%
G36*
X622615Y770381D02*
X622615Y770381D01*
X618974Y771889D01*
X616187Y774676D01*
X614679Y778317D01*
X614679Y782259D01*
X616187Y785900D01*
X618974Y788687D01*
X622615Y790195D01*
X626557Y790195D01*
X630198Y788687D01*
X632985Y785900D01*
X634493Y782259D01*
X634493Y778317D01*
X632985Y774676D01*
X630198Y771889D01*
X626557Y770381D01*
X622615Y770381D01*
G37*
%LPD*%
%LPC*%
G36*
X648015Y770381D02*
X648015Y770381D01*
X644374Y771889D01*
X641587Y774676D01*
X640079Y778317D01*
X640079Y782259D01*
X641587Y785900D01*
X644374Y788687D01*
X648015Y790195D01*
X651957Y790195D01*
X655598Y788687D01*
X658385Y785900D01*
X659893Y782259D01*
X659893Y778317D01*
X658385Y774676D01*
X655598Y771889D01*
X651957Y770381D01*
X648015Y770381D01*
G37*
%LPD*%
%LPC*%
G36*
X709985Y562435D02*
X709985Y562435D01*
X704675Y567745D01*
X704675Y575255D01*
X709985Y580565D01*
X717495Y580565D01*
X722805Y575255D01*
X722805Y567745D01*
X717495Y562435D01*
X709985Y562435D01*
G37*
%LPD*%
%LPC*%
G36*
X303585Y664035D02*
X303585Y664035D01*
X298275Y669345D01*
X298275Y676855D01*
X303585Y682165D01*
X311095Y682165D01*
X316405Y676855D01*
X316405Y669345D01*
X311095Y664035D01*
X303585Y664035D01*
G37*
%LPD*%
%LPC*%
G36*
X712723Y463803D02*
X712723Y463803D01*
X712723Y482576D01*
X715173Y482253D01*
X717746Y481564D01*
X720207Y480544D01*
X722514Y479212D01*
X724627Y477591D01*
X726511Y475707D01*
X728132Y473594D01*
X729464Y471287D01*
X730484Y468826D01*
X731173Y466253D01*
X731496Y463803D01*
X712723Y463803D01*
G37*
%LPD*%
%LPC*%
G36*
X690904Y463803D02*
X690904Y463803D01*
X691227Y466253D01*
X691916Y468826D01*
X692936Y471287D01*
X694268Y473594D01*
X695889Y475707D01*
X697773Y477591D01*
X699886Y479212D01*
X702193Y480544D01*
X704654Y481564D01*
X707227Y482253D01*
X709677Y482576D01*
X709677Y463803D01*
X690904Y463803D01*
G37*
%LPD*%
%LPC*%
G36*
X712723Y460757D02*
X712723Y460757D01*
X731496Y460757D01*
X731173Y458307D01*
X730484Y455734D01*
X729464Y453273D01*
X728132Y450966D01*
X726511Y448853D01*
X724627Y446969D01*
X722514Y445348D01*
X720207Y444016D01*
X717746Y442996D01*
X715173Y442307D01*
X712723Y441984D01*
X712723Y460757D01*
G37*
%LPD*%
%LPC*%
G36*
X707227Y442307D02*
X707227Y442307D01*
X704654Y442996D01*
X702193Y444016D01*
X699886Y445348D01*
X697773Y446969D01*
X695889Y448853D01*
X694268Y450966D01*
X692936Y453273D01*
X691916Y455734D01*
X691227Y458307D01*
X690904Y460757D01*
X709677Y460757D01*
X709677Y441984D01*
X707227Y442307D01*
G37*
%LPD*%
%LPC*%
G36*
X673837Y684835D02*
X673837Y684835D01*
X670505Y686215D01*
X667955Y688765D01*
X666575Y692097D01*
X666575Y695703D01*
X667955Y699035D01*
X670505Y701585D01*
X673837Y702965D01*
X677443Y702965D01*
X680775Y701585D01*
X683325Y699035D01*
X684705Y695703D01*
X684705Y692097D01*
X683325Y688765D01*
X680775Y686215D01*
X677443Y684835D01*
X673837Y684835D01*
G37*
%LPD*%
%LPC*%
G36*
X280137Y562435D02*
X280137Y562435D01*
X276805Y563815D01*
X274255Y566365D01*
X272875Y569697D01*
X272875Y573303D01*
X274255Y576635D01*
X276805Y579185D01*
X280137Y580565D01*
X283743Y580565D01*
X287075Y579185D01*
X289625Y576635D01*
X291005Y573303D01*
X291005Y569697D01*
X289625Y566365D01*
X287075Y563815D01*
X283743Y562435D01*
X280137Y562435D01*
G37*
%LPD*%
%LPC*%
G36*
X305537Y587835D02*
X305537Y587835D01*
X302205Y589215D01*
X299655Y591765D01*
X298275Y595097D01*
X298275Y598703D01*
X299655Y602035D01*
X302205Y604585D01*
X305537Y605965D01*
X309143Y605965D01*
X312475Y604585D01*
X315025Y602035D01*
X316405Y598703D01*
X316405Y595097D01*
X315025Y591765D01*
X312475Y589215D01*
X309143Y587835D01*
X305537Y587835D01*
G37*
%LPD*%
%LPC*%
G36*
X737337Y587835D02*
X737337Y587835D01*
X734005Y589215D01*
X731455Y591765D01*
X730075Y595097D01*
X730075Y598703D01*
X731455Y602035D01*
X734005Y604585D01*
X737337Y605965D01*
X740943Y605965D01*
X744275Y604585D01*
X746825Y602035D01*
X748205Y598703D01*
X748205Y595097D01*
X746825Y591765D01*
X744275Y589215D01*
X740943Y587835D01*
X737337Y587835D01*
G37*
%LPD*%
%LPC*%
G36*
X305537Y613235D02*
X305537Y613235D01*
X302205Y614615D01*
X299655Y617165D01*
X298275Y620497D01*
X298275Y624103D01*
X299655Y627435D01*
X302205Y629985D01*
X305537Y631365D01*
X309143Y631365D01*
X312475Y629985D01*
X315025Y627435D01*
X316405Y624103D01*
X316405Y620497D01*
X315025Y617165D01*
X312475Y614615D01*
X309143Y613235D01*
X305537Y613235D01*
G37*
%LPD*%
%LPC*%
G36*
X610337Y714835D02*
X610337Y714835D01*
X607005Y716215D01*
X604455Y718765D01*
X603075Y722097D01*
X603075Y725703D01*
X604455Y729035D01*
X607005Y731585D01*
X610337Y732965D01*
X613943Y732965D01*
X617275Y731585D01*
X619825Y729035D01*
X621205Y725703D01*
X621205Y722097D01*
X619825Y718765D01*
X617275Y716215D01*
X613943Y714835D01*
X610337Y714835D01*
G37*
%LPD*%
%LPC*%
G36*
X457937Y714835D02*
X457937Y714835D01*
X454605Y716215D01*
X452055Y718765D01*
X450675Y722097D01*
X450675Y725703D01*
X452055Y729035D01*
X454605Y731585D01*
X457937Y732965D01*
X461543Y732965D01*
X464875Y731585D01*
X467425Y729035D01*
X468805Y725703D01*
X468805Y722097D01*
X467425Y718765D01*
X464875Y716215D01*
X461543Y714835D01*
X457937Y714835D01*
G37*
%LPD*%
%LPC*%
G36*
X254737Y714835D02*
X254737Y714835D01*
X251405Y716215D01*
X248855Y718765D01*
X247475Y722097D01*
X247475Y725703D01*
X248855Y729035D01*
X251405Y731585D01*
X254737Y732965D01*
X258343Y732965D01*
X261675Y731585D01*
X264225Y729035D01*
X265605Y725703D01*
X265605Y722097D01*
X264225Y718765D01*
X261675Y716215D01*
X258343Y714835D01*
X254737Y714835D01*
G37*
%LPD*%
%LPC*%
G36*
X356337Y714835D02*
X356337Y714835D01*
X353005Y716215D01*
X350455Y718765D01*
X349075Y722097D01*
X349075Y725703D01*
X350455Y729035D01*
X353005Y731585D01*
X356337Y732965D01*
X359943Y732965D01*
X363275Y731585D01*
X365825Y729035D01*
X367205Y725703D01*
X367205Y722097D01*
X365825Y718765D01*
X363275Y716215D01*
X359943Y714835D01*
X356337Y714835D01*
G37*
%LPD*%
%LPC*%
G36*
X381737Y714835D02*
X381737Y714835D01*
X378405Y716215D01*
X375855Y718765D01*
X374475Y722097D01*
X374475Y725703D01*
X375855Y729035D01*
X378405Y731585D01*
X381737Y732965D01*
X385343Y732965D01*
X388675Y731585D01*
X391225Y729035D01*
X392605Y725703D01*
X392605Y722097D01*
X391225Y718765D01*
X388675Y716215D01*
X385343Y714835D01*
X381737Y714835D01*
G37*
%LPD*%
%LPC*%
G36*
X305537Y714835D02*
X305537Y714835D01*
X302205Y716215D01*
X299655Y718765D01*
X298275Y722097D01*
X298275Y725703D01*
X299655Y729035D01*
X302205Y731585D01*
X305537Y732965D01*
X309143Y732965D01*
X312475Y731585D01*
X315025Y729035D01*
X316405Y725703D01*
X316405Y722097D01*
X315025Y718765D01*
X312475Y716215D01*
X309143Y714835D01*
X305537Y714835D01*
G37*
%LPD*%
%LPC*%
G36*
X178537Y714835D02*
X178537Y714835D01*
X175205Y716215D01*
X172655Y718765D01*
X171275Y722097D01*
X171275Y725703D01*
X172655Y729035D01*
X175205Y731585D01*
X178537Y732965D01*
X182143Y732965D01*
X185475Y731585D01*
X188025Y729035D01*
X189405Y725703D01*
X189405Y722097D01*
X188025Y718765D01*
X185475Y716215D01*
X182143Y714835D01*
X178537Y714835D01*
G37*
%LPD*%
%LPC*%
G36*
X280137Y714835D02*
X280137Y714835D01*
X276805Y716215D01*
X274255Y718765D01*
X272875Y722097D01*
X272875Y725703D01*
X274255Y729035D01*
X276805Y731585D01*
X280137Y732965D01*
X283743Y732965D01*
X287075Y731585D01*
X289625Y729035D01*
X291005Y725703D01*
X291005Y722097D01*
X289625Y718765D01*
X287075Y716215D01*
X283743Y714835D01*
X280137Y714835D01*
G37*
%LPD*%
%LPC*%
G36*
X737337Y714835D02*
X737337Y714835D01*
X734005Y716215D01*
X731455Y718765D01*
X730075Y722097D01*
X730075Y725703D01*
X731455Y729035D01*
X734005Y731585D01*
X737337Y732965D01*
X740943Y732965D01*
X744275Y731585D01*
X746825Y729035D01*
X748205Y725703D01*
X748205Y722097D01*
X746825Y718765D01*
X744275Y716215D01*
X740943Y714835D01*
X737337Y714835D01*
G37*
%LPD*%
%LPC*%
G36*
X711937Y714835D02*
X711937Y714835D01*
X708605Y716215D01*
X706055Y718765D01*
X704675Y722097D01*
X704675Y725703D01*
X706055Y729035D01*
X708605Y731585D01*
X711937Y732965D01*
X715543Y732965D01*
X718875Y731585D01*
X721425Y729035D01*
X722805Y725703D01*
X722805Y722097D01*
X721425Y718765D01*
X718875Y716215D01*
X715543Y714835D01*
X711937Y714835D01*
G37*
%LPD*%
%LPC*%
G36*
X686537Y714835D02*
X686537Y714835D01*
X683205Y716215D01*
X680655Y718765D01*
X679275Y722097D01*
X679275Y725703D01*
X680655Y729035D01*
X683205Y731585D01*
X686537Y732965D01*
X690143Y732965D01*
X693475Y731585D01*
X696025Y729035D01*
X697405Y725703D01*
X697405Y722097D01*
X696025Y718765D01*
X693475Y716215D01*
X690143Y714835D01*
X686537Y714835D01*
G37*
%LPD*%
%LPC*%
G36*
X661137Y714835D02*
X661137Y714835D01*
X657805Y716215D01*
X655255Y718765D01*
X653875Y722097D01*
X653875Y725703D01*
X655255Y729035D01*
X657805Y731585D01*
X661137Y732965D01*
X664743Y732965D01*
X668075Y731585D01*
X670625Y729035D01*
X672005Y725703D01*
X672005Y722097D01*
X670625Y718765D01*
X668075Y716215D01*
X664743Y714835D01*
X661137Y714835D01*
G37*
%LPD*%
%LPC*%
G36*
X635737Y714835D02*
X635737Y714835D01*
X632405Y716215D01*
X629855Y718765D01*
X628475Y722097D01*
X628475Y725703D01*
X629855Y729035D01*
X632405Y731585D01*
X635737Y732965D01*
X639343Y732965D01*
X642675Y731585D01*
X645225Y729035D01*
X646605Y725703D01*
X646605Y722097D01*
X645225Y718765D01*
X642675Y716215D01*
X639343Y714835D01*
X635737Y714835D01*
G37*
%LPD*%
%LPC*%
G36*
X584937Y714835D02*
X584937Y714835D01*
X581605Y716215D01*
X579055Y718765D01*
X577675Y722097D01*
X577675Y725703D01*
X579055Y729035D01*
X581605Y731585D01*
X584937Y732965D01*
X588543Y732965D01*
X591875Y731585D01*
X594425Y729035D01*
X595805Y725703D01*
X595805Y722097D01*
X594425Y718765D01*
X591875Y716215D01*
X588543Y714835D01*
X584937Y714835D01*
G37*
%LPD*%
%LPC*%
G36*
X559537Y714835D02*
X559537Y714835D01*
X556205Y716215D01*
X553655Y718765D01*
X552275Y722097D01*
X552275Y725703D01*
X553655Y729035D01*
X556205Y731585D01*
X559537Y732965D01*
X563143Y732965D01*
X566475Y731585D01*
X569025Y729035D01*
X570405Y725703D01*
X570405Y722097D01*
X569025Y718765D01*
X566475Y716215D01*
X563143Y714835D01*
X559537Y714835D01*
G37*
%LPD*%
%LPC*%
G36*
X229337Y714835D02*
X229337Y714835D01*
X226005Y716215D01*
X223455Y718765D01*
X222075Y722097D01*
X222075Y725703D01*
X223455Y729035D01*
X226005Y731585D01*
X229337Y732965D01*
X232943Y732965D01*
X236275Y731585D01*
X238825Y729035D01*
X240205Y725703D01*
X240205Y722097D01*
X238825Y718765D01*
X236275Y716215D01*
X232943Y714835D01*
X229337Y714835D01*
G37*
%LPD*%
%LPC*%
G36*
X203937Y714835D02*
X203937Y714835D01*
X200605Y716215D01*
X198055Y718765D01*
X196675Y722097D01*
X196675Y725703D01*
X198055Y729035D01*
X200605Y731585D01*
X203937Y732965D01*
X207543Y732965D01*
X210875Y731585D01*
X213425Y729035D01*
X214805Y725703D01*
X214805Y722097D01*
X213425Y718765D01*
X210875Y716215D01*
X207543Y714835D01*
X203937Y714835D01*
G37*
%LPD*%
%LPC*%
G36*
X330937Y714835D02*
X330937Y714835D01*
X327605Y716215D01*
X325055Y718765D01*
X323675Y722097D01*
X323675Y725703D01*
X325055Y729035D01*
X327605Y731585D01*
X330937Y732965D01*
X334543Y732965D01*
X337875Y731585D01*
X340425Y729035D01*
X341805Y725703D01*
X341805Y722097D01*
X340425Y718765D01*
X337875Y716215D01*
X334543Y714835D01*
X330937Y714835D01*
G37*
%LPD*%
%LPC*%
G36*
X178537Y562435D02*
X178537Y562435D01*
X175205Y563815D01*
X172655Y566365D01*
X171275Y569697D01*
X171275Y573303D01*
X172655Y576635D01*
X175205Y579185D01*
X178537Y580565D01*
X182143Y580565D01*
X185475Y579185D01*
X188025Y576635D01*
X189405Y573303D01*
X189405Y569697D01*
X188025Y566365D01*
X185475Y563815D01*
X182143Y562435D01*
X178537Y562435D01*
G37*
%LPD*%
%LPC*%
G36*
X203937Y562435D02*
X203937Y562435D01*
X200605Y563815D01*
X198055Y566365D01*
X196675Y569697D01*
X196675Y573303D01*
X198055Y576635D01*
X200605Y579185D01*
X203937Y580565D01*
X207543Y580565D01*
X210875Y579185D01*
X213425Y576635D01*
X214805Y573303D01*
X214805Y569697D01*
X213425Y566365D01*
X210875Y563815D01*
X207543Y562435D01*
X203937Y562435D01*
G37*
%LPD*%
%LPC*%
G36*
X229337Y562435D02*
X229337Y562435D01*
X226005Y563815D01*
X223455Y566365D01*
X222075Y569697D01*
X222075Y573303D01*
X223455Y576635D01*
X226005Y579185D01*
X229337Y580565D01*
X232943Y580565D01*
X236275Y579185D01*
X238825Y576635D01*
X240205Y573303D01*
X240205Y569697D01*
X238825Y566365D01*
X236275Y563815D01*
X232943Y562435D01*
X229337Y562435D01*
G37*
%LPD*%
%LPC*%
G36*
X305537Y689435D02*
X305537Y689435D01*
X302205Y690815D01*
X299655Y693365D01*
X298275Y696697D01*
X298275Y700303D01*
X299655Y703635D01*
X302205Y706185D01*
X305537Y707565D01*
X309143Y707565D01*
X312475Y706185D01*
X315025Y703635D01*
X316405Y700303D01*
X316405Y696697D01*
X315025Y693365D01*
X312475Y690815D01*
X309143Y689435D01*
X305537Y689435D01*
G37*
%LPD*%
%LPC*%
G36*
X254737Y562435D02*
X254737Y562435D01*
X251405Y563815D01*
X248855Y566365D01*
X247475Y569697D01*
X247475Y573303D01*
X248855Y576635D01*
X251405Y579185D01*
X254737Y580565D01*
X258343Y580565D01*
X261675Y579185D01*
X264225Y576635D01*
X265605Y573303D01*
X265605Y569697D01*
X264225Y566365D01*
X261675Y563815D01*
X258343Y562435D01*
X254737Y562435D01*
G37*
%LPD*%
%LPC*%
G36*
X686537Y562435D02*
X686537Y562435D01*
X683205Y563815D01*
X680655Y566365D01*
X679275Y569697D01*
X679275Y573303D01*
X680655Y576635D01*
X683205Y579185D01*
X686537Y580565D01*
X690143Y580565D01*
X693475Y579185D01*
X696025Y576635D01*
X697405Y573303D01*
X697405Y569697D01*
X696025Y566365D01*
X693475Y563815D01*
X690143Y562435D01*
X686537Y562435D01*
G37*
%LPD*%
%LPC*%
G36*
X305537Y562435D02*
X305537Y562435D01*
X302205Y563815D01*
X299655Y566365D01*
X298275Y569697D01*
X298275Y573303D01*
X299655Y576635D01*
X302205Y579185D01*
X305537Y580565D01*
X309143Y580565D01*
X312475Y579185D01*
X315025Y576635D01*
X316405Y573303D01*
X316405Y569697D01*
X315025Y566365D01*
X312475Y563815D01*
X309143Y562435D01*
X305537Y562435D01*
G37*
%LPD*%
%LPC*%
G36*
X330937Y562435D02*
X330937Y562435D01*
X327605Y563815D01*
X325055Y566365D01*
X323675Y569697D01*
X323675Y573303D01*
X325055Y576635D01*
X327605Y579185D01*
X330937Y580565D01*
X334543Y580565D01*
X337875Y579185D01*
X340425Y576635D01*
X341805Y573303D01*
X341805Y569697D01*
X340425Y566365D01*
X337875Y563815D01*
X334543Y562435D01*
X330937Y562435D01*
G37*
%LPD*%
%LPC*%
G36*
X699237Y684835D02*
X699237Y684835D01*
X695905Y686215D01*
X693355Y688765D01*
X691975Y692097D01*
X691975Y695703D01*
X693355Y699035D01*
X695905Y701585D01*
X699237Y702965D01*
X702843Y702965D01*
X706175Y701585D01*
X708725Y699035D01*
X710105Y695703D01*
X710105Y692097D01*
X708725Y688765D01*
X706175Y686215D01*
X702843Y684835D01*
X699237Y684835D01*
G37*
%LPD*%
%LPC*%
G36*
X432537Y562435D02*
X432537Y562435D01*
X429205Y563815D01*
X426655Y566365D01*
X425275Y569697D01*
X425275Y573303D01*
X426655Y576635D01*
X429205Y579185D01*
X432537Y580565D01*
X436143Y580565D01*
X439475Y579185D01*
X442025Y576635D01*
X443405Y573303D01*
X443405Y569697D01*
X442025Y566365D01*
X439475Y563815D01*
X436143Y562435D01*
X432537Y562435D01*
G37*
%LPD*%
%LPC*%
G36*
X648437Y684835D02*
X648437Y684835D01*
X645105Y686215D01*
X642555Y688765D01*
X641175Y692097D01*
X641175Y695703D01*
X642555Y699035D01*
X645105Y701585D01*
X648437Y702965D01*
X652043Y702965D01*
X655375Y701585D01*
X657925Y699035D01*
X659305Y695703D01*
X659305Y692097D01*
X657925Y688765D01*
X655375Y686215D01*
X652043Y684835D01*
X648437Y684835D01*
G37*
%LPD*%
%LPC*%
G36*
X457937Y562435D02*
X457937Y562435D01*
X454605Y563815D01*
X452055Y566365D01*
X450675Y569697D01*
X450675Y573303D01*
X452055Y576635D01*
X454605Y579185D01*
X457937Y580565D01*
X461543Y580565D01*
X464875Y579185D01*
X467425Y576635D01*
X468805Y573303D01*
X468805Y569697D01*
X467425Y566365D01*
X464875Y563815D01*
X461543Y562435D01*
X457937Y562435D01*
G37*
%LPD*%
%LPC*%
G36*
X483337Y562435D02*
X483337Y562435D01*
X480005Y563815D01*
X477455Y566365D01*
X476075Y569697D01*
X476075Y573303D01*
X477455Y576635D01*
X480005Y579185D01*
X483337Y580565D01*
X486943Y580565D01*
X490275Y579185D01*
X492825Y576635D01*
X494205Y573303D01*
X494205Y569697D01*
X492825Y566365D01*
X490275Y563815D01*
X486943Y562435D01*
X483337Y562435D01*
G37*
%LPD*%
%LPC*%
G36*
X508737Y562435D02*
X508737Y562435D01*
X505405Y563815D01*
X502855Y566365D01*
X501475Y569697D01*
X501475Y573303D01*
X502855Y576635D01*
X505405Y579185D01*
X508737Y580565D01*
X512343Y580565D01*
X515675Y579185D01*
X518225Y576635D01*
X519605Y573303D01*
X519605Y569697D01*
X518225Y566365D01*
X515675Y563815D01*
X512343Y562435D01*
X508737Y562435D01*
G37*
%LPD*%
%LPC*%
G36*
X559537Y562435D02*
X559537Y562435D01*
X556205Y563815D01*
X553655Y566365D01*
X552275Y569697D01*
X552275Y573303D01*
X553655Y576635D01*
X556205Y579185D01*
X559537Y580565D01*
X563143Y580565D01*
X566475Y579185D01*
X569025Y576635D01*
X570405Y573303D01*
X570405Y569697D01*
X569025Y566365D01*
X566475Y563815D01*
X563143Y562435D01*
X559537Y562435D01*
G37*
%LPD*%
%LPC*%
G36*
X635737Y562435D02*
X635737Y562435D01*
X632405Y563815D01*
X629855Y566365D01*
X628475Y569697D01*
X628475Y573303D01*
X629855Y576635D01*
X632405Y579185D01*
X635737Y580565D01*
X639343Y580565D01*
X642675Y579185D01*
X645225Y576635D01*
X646605Y573303D01*
X646605Y569697D01*
X645225Y566365D01*
X642675Y563815D01*
X639343Y562435D01*
X635737Y562435D01*
G37*
%LPD*%
%LPC*%
G36*
X661137Y562435D02*
X661137Y562435D01*
X657805Y563815D01*
X655255Y566365D01*
X653875Y569697D01*
X653875Y573303D01*
X655255Y576635D01*
X657805Y579185D01*
X661137Y580565D01*
X664743Y580565D01*
X668075Y579185D01*
X670625Y576635D01*
X672005Y573303D01*
X672005Y569697D01*
X670625Y566365D01*
X668075Y563815D01*
X664743Y562435D01*
X661137Y562435D01*
G37*
%LPD*%
%LPC*%
G36*
X534137Y562435D02*
X534137Y562435D01*
X530805Y563815D01*
X528255Y566365D01*
X526875Y569697D01*
X526875Y573303D01*
X528255Y576635D01*
X530805Y579185D01*
X534137Y580565D01*
X537743Y580565D01*
X541075Y579185D01*
X543625Y576635D01*
X545005Y573303D01*
X545005Y569697D01*
X543625Y566365D01*
X541075Y563815D01*
X537743Y562435D01*
X534137Y562435D01*
G37*
%LPD*%
%LPC*%
G36*
X760437Y648635D02*
X760437Y648635D01*
X757105Y650015D01*
X754555Y652565D01*
X753175Y655897D01*
X753175Y659503D01*
X754555Y662835D01*
X757105Y665385D01*
X760437Y666765D01*
X764043Y666765D01*
X767375Y665385D01*
X769925Y662835D01*
X771305Y659503D01*
X771305Y655897D01*
X769925Y652565D01*
X767375Y650015D01*
X764043Y648635D01*
X760437Y648635D01*
G37*
%LPD*%
%LPC*%
G36*
X356337Y562435D02*
X356337Y562435D01*
X353005Y563815D01*
X350455Y566365D01*
X349075Y569697D01*
X349075Y573303D01*
X350455Y576635D01*
X353005Y579185D01*
X356337Y580565D01*
X359943Y580565D01*
X363275Y579185D01*
X365825Y576635D01*
X367205Y573303D01*
X367205Y569697D01*
X365825Y566365D01*
X363275Y563815D01*
X359943Y562435D01*
X356337Y562435D01*
G37*
%LPD*%
%LPC*%
G36*
X610337Y562435D02*
X610337Y562435D01*
X607005Y563815D01*
X604455Y566365D01*
X603075Y569697D01*
X603075Y573303D01*
X604455Y576635D01*
X607005Y579185D01*
X610337Y580565D01*
X613943Y580565D01*
X617275Y579185D01*
X619825Y576635D01*
X621205Y573303D01*
X621205Y569697D01*
X619825Y566365D01*
X617275Y563815D01*
X613943Y562435D01*
X610337Y562435D01*
G37*
%LPD*%
%LPC*%
G36*
X584937Y562435D02*
X584937Y562435D01*
X581605Y563815D01*
X579055Y566365D01*
X577675Y569697D01*
X577675Y573303D01*
X579055Y576635D01*
X581605Y579185D01*
X584937Y580565D01*
X588543Y580565D01*
X591875Y579185D01*
X594425Y576635D01*
X595805Y573303D01*
X595805Y569697D01*
X594425Y566365D01*
X591875Y563815D01*
X588543Y562435D01*
X584937Y562435D01*
G37*
%LPD*%
%LPC*%
G36*
X760437Y628635D02*
X760437Y628635D01*
X757105Y630015D01*
X754555Y632565D01*
X753175Y635897D01*
X753175Y639503D01*
X754555Y642835D01*
X757105Y645385D01*
X760437Y646765D01*
X764043Y646765D01*
X767375Y645385D01*
X769925Y642835D01*
X771305Y639503D01*
X771305Y635897D01*
X769925Y632565D01*
X767375Y630015D01*
X764043Y628635D01*
X760437Y628635D01*
G37*
%LPD*%
%LPC*%
G36*
X381737Y562435D02*
X381737Y562435D01*
X378405Y563815D01*
X375855Y566365D01*
X374475Y569697D01*
X374475Y573303D01*
X375855Y576635D01*
X378405Y579185D01*
X381737Y580565D01*
X385343Y580565D01*
X388675Y579185D01*
X391225Y576635D01*
X392605Y573303D01*
X392605Y569697D01*
X391225Y566365D01*
X388675Y563815D01*
X385343Y562435D01*
X381737Y562435D01*
G37*
%LPD*%
%LPC*%
G36*
X613435Y609835D02*
X613435Y609835D01*
X610838Y610911D01*
X608851Y612898D01*
X607775Y615495D01*
X607775Y618305D01*
X608851Y620902D01*
X610838Y622889D01*
X613435Y623965D01*
X616245Y623965D01*
X618842Y622889D01*
X620829Y620902D01*
X621905Y618305D01*
X621905Y615495D01*
X620829Y612898D01*
X618842Y610911D01*
X616245Y609835D01*
X613435Y609835D01*
G37*
%LPD*%
%LPC*%
G36*
X633435Y629835D02*
X633435Y629835D01*
X630838Y630911D01*
X628851Y632898D01*
X627775Y635495D01*
X627775Y638305D01*
X628851Y640902D01*
X630838Y642889D01*
X633435Y643965D01*
X636245Y643965D01*
X638842Y642889D01*
X640829Y640902D01*
X641905Y638305D01*
X641905Y635495D01*
X640829Y632898D01*
X638842Y630911D01*
X636245Y629835D01*
X633435Y629835D01*
G37*
%LPD*%
%LPC*%
G36*
X613435Y629835D02*
X613435Y629835D01*
X610838Y630911D01*
X608851Y632898D01*
X607775Y635495D01*
X607775Y638305D01*
X608851Y640902D01*
X610838Y642889D01*
X613435Y643965D01*
X616245Y643965D01*
X618842Y642889D01*
X620829Y640902D01*
X621905Y638305D01*
X621905Y635495D01*
X620829Y632898D01*
X618842Y630911D01*
X616245Y629835D01*
X613435Y629835D01*
G37*
%LPD*%
%LPC*%
G36*
X633435Y589835D02*
X633435Y589835D01*
X630838Y590911D01*
X628851Y592898D01*
X627775Y595495D01*
X627775Y598305D01*
X628851Y600902D01*
X630838Y602889D01*
X633435Y603965D01*
X636245Y603965D01*
X638842Y602889D01*
X640829Y600902D01*
X641905Y598305D01*
X641905Y595495D01*
X640829Y592898D01*
X638842Y590911D01*
X636245Y589835D01*
X633435Y589835D01*
G37*
%LPD*%
%LPC*%
G36*
X633435Y609835D02*
X633435Y609835D01*
X630838Y610911D01*
X628851Y612898D01*
X627775Y615495D01*
X627775Y618305D01*
X628851Y620902D01*
X630838Y622889D01*
X633435Y623965D01*
X636245Y623965D01*
X638842Y622889D01*
X640829Y620902D01*
X641905Y618305D01*
X641905Y615495D01*
X640829Y612898D01*
X638842Y610911D01*
X636245Y609835D01*
X633435Y609835D01*
G37*
%LPD*%
%LPC*%
G36*
X613435Y589835D02*
X613435Y589835D01*
X610838Y590911D01*
X608851Y592898D01*
X607775Y595495D01*
X607775Y598305D01*
X608851Y600902D01*
X610838Y602889D01*
X613435Y603965D01*
X616245Y603965D01*
X618842Y602889D01*
X620829Y600902D01*
X621905Y598305D01*
X621905Y595495D01*
X620829Y592898D01*
X618842Y590911D01*
X616245Y589835D01*
X613435Y589835D01*
G37*
%LPD*%
%LPC*%
G36*
X773683Y778763D02*
X773683Y778763D01*
X773683Y789086D01*
X774956Y788885D01*
X776743Y788304D01*
X778417Y787451D01*
X779938Y786346D01*
X781266Y785018D01*
X782371Y783497D01*
X783224Y781823D01*
X783805Y780036D01*
X784006Y778763D01*
X773683Y778763D01*
G37*
%LPD*%
%LPC*%
G36*
X328421Y781430D02*
X328421Y781430D01*
X328421Y791753D01*
X329694Y791552D01*
X331481Y790971D01*
X333155Y790118D01*
X334676Y789013D01*
X336004Y787685D01*
X337109Y786164D01*
X337962Y784490D01*
X338543Y782703D01*
X338744Y781430D01*
X328421Y781430D01*
G37*
%LPD*%
%LPC*%
G36*
X603503Y496823D02*
X603503Y496823D01*
X603503Y507146D01*
X604776Y506945D01*
X606563Y506364D01*
X608237Y505511D01*
X609758Y504406D01*
X611086Y503078D01*
X612191Y501557D01*
X613044Y499883D01*
X613625Y498096D01*
X613826Y496823D01*
X603503Y496823D01*
G37*
%LPD*%
%LPC*%
G36*
X773683Y775717D02*
X773683Y775717D01*
X784006Y775717D01*
X783805Y774444D01*
X783224Y772657D01*
X782371Y770983D01*
X781266Y769462D01*
X779938Y768134D01*
X778417Y767029D01*
X776743Y766176D01*
X774956Y765595D01*
X773683Y765394D01*
X773683Y775717D01*
G37*
%LPD*%
%LPC*%
G36*
X328421Y778384D02*
X328421Y778384D01*
X338744Y778384D01*
X338543Y777111D01*
X337962Y775324D01*
X337109Y773650D01*
X336004Y772129D01*
X334676Y770801D01*
X333155Y769696D01*
X331481Y768843D01*
X329694Y768262D01*
X328421Y768061D01*
X328421Y778384D01*
G37*
%LPD*%
%LPC*%
G36*
X590134Y496823D02*
X590134Y496823D01*
X590335Y498096D01*
X590916Y499883D01*
X591769Y501557D01*
X592874Y503078D01*
X594202Y504406D01*
X595723Y505511D01*
X597397Y506364D01*
X599184Y506945D01*
X600457Y507146D01*
X600457Y496823D01*
X590134Y496823D01*
G37*
%LPD*%
%LPC*%
G36*
X603503Y493777D02*
X603503Y493777D01*
X613826Y493777D01*
X613625Y492504D01*
X613044Y490717D01*
X612191Y489043D01*
X611086Y487522D01*
X609758Y486194D01*
X608237Y485089D01*
X606563Y484236D01*
X604776Y483655D01*
X603503Y483454D01*
X603503Y493777D01*
G37*
%LPD*%
%LPC*%
G36*
X760314Y778763D02*
X760314Y778763D01*
X760515Y780036D01*
X761096Y781823D01*
X761949Y783497D01*
X763054Y785018D01*
X764382Y786346D01*
X765903Y787451D01*
X767577Y788304D01*
X769364Y788885D01*
X770637Y789086D01*
X770637Y778763D01*
X760314Y778763D01*
G37*
%LPD*%
%LPC*%
G36*
X315052Y781430D02*
X315052Y781430D01*
X315253Y782703D01*
X315834Y784490D01*
X316687Y786164D01*
X317792Y787685D01*
X319120Y789013D01*
X320641Y790118D01*
X322315Y790971D01*
X324102Y791552D01*
X325375Y791753D01*
X325375Y781430D01*
X315052Y781430D01*
G37*
%LPD*%
%LPC*%
G36*
X769364Y765595D02*
X769364Y765595D01*
X767577Y766176D01*
X765903Y767029D01*
X764382Y768134D01*
X763054Y769462D01*
X761949Y770983D01*
X761096Y772657D01*
X760515Y774444D01*
X760314Y775717D01*
X770637Y775717D01*
X770637Y765394D01*
X769364Y765595D01*
G37*
%LPD*%
%LPC*%
G36*
X324102Y768262D02*
X324102Y768262D01*
X322315Y768843D01*
X320641Y769696D01*
X319120Y770801D01*
X317792Y772129D01*
X316687Y773650D01*
X315834Y775324D01*
X315253Y777111D01*
X315052Y778384D01*
X325375Y778384D01*
X325375Y768061D01*
X324102Y768262D01*
G37*
%LPD*%
%LPC*%
G36*
X599184Y483655D02*
X599184Y483655D01*
X597397Y484236D01*
X595723Y485089D01*
X594202Y486194D01*
X592874Y487522D01*
X591769Y489043D01*
X590916Y490717D01*
X590335Y492504D01*
X590134Y493777D01*
X600457Y493777D01*
X600457Y483454D01*
X599184Y483655D01*
G37*
%LPD*%
%LPC*%
G36*
X740663Y573023D02*
X740663Y573023D01*
X740663Y581581D01*
X747014Y581581D01*
X747661Y581408D01*
X748240Y581073D01*
X748713Y580600D01*
X749048Y580021D01*
X749221Y579374D01*
X749221Y573023D01*
X740663Y573023D01*
G37*
%LPD*%
%LPC*%
G36*
X308863Y649223D02*
X308863Y649223D01*
X308863Y657781D01*
X315214Y657781D01*
X315861Y657608D01*
X316440Y657273D01*
X316913Y656800D01*
X317248Y656221D01*
X317421Y655574D01*
X317421Y649223D01*
X308863Y649223D01*
G37*
%LPD*%
%LPC*%
G36*
X410463Y573023D02*
X410463Y573023D01*
X410463Y581581D01*
X416814Y581581D01*
X417461Y581408D01*
X418040Y581073D01*
X418513Y580600D01*
X418848Y580021D01*
X419021Y579374D01*
X419021Y573023D01*
X410463Y573023D01*
G37*
%LPD*%
%LPC*%
G36*
X766063Y725423D02*
X766063Y725423D01*
X766063Y733981D01*
X772414Y733981D01*
X773061Y733808D01*
X773640Y733473D01*
X774113Y733000D01*
X774448Y732421D01*
X774621Y731774D01*
X774621Y725423D01*
X766063Y725423D01*
G37*
%LPD*%
%LPC*%
G36*
X297259Y649223D02*
X297259Y649223D01*
X297259Y655574D01*
X297432Y656221D01*
X297767Y656800D01*
X298240Y657273D01*
X298819Y657608D01*
X299466Y657781D01*
X305817Y657781D01*
X305817Y649223D01*
X297259Y649223D01*
G37*
%LPD*%
%LPC*%
G36*
X398859Y573023D02*
X398859Y573023D01*
X398859Y579374D01*
X399032Y580021D01*
X399367Y580600D01*
X399840Y581073D01*
X400419Y581408D01*
X401066Y581581D01*
X407417Y581581D01*
X407417Y573023D01*
X398859Y573023D01*
G37*
%LPD*%
%LPC*%
G36*
X754459Y725423D02*
X754459Y725423D01*
X754459Y731774D01*
X754632Y732421D01*
X754967Y733000D01*
X755440Y733473D01*
X756019Y733808D01*
X756666Y733981D01*
X763017Y733981D01*
X763017Y725423D01*
X754459Y725423D01*
G37*
%LPD*%
%LPC*%
G36*
X729059Y573023D02*
X729059Y573023D01*
X729059Y579374D01*
X729232Y580021D01*
X729567Y580600D01*
X730040Y581073D01*
X730619Y581408D01*
X731266Y581581D01*
X737617Y581581D01*
X737617Y573023D01*
X729059Y573023D01*
G37*
%LPD*%
%LPC*%
G36*
X410463Y561419D02*
X410463Y561419D01*
X410463Y569977D01*
X419021Y569977D01*
X419021Y563626D01*
X418848Y562979D01*
X418513Y562400D01*
X418040Y561927D01*
X417461Y561592D01*
X416814Y561419D01*
X410463Y561419D01*
G37*
%LPD*%
%LPC*%
G36*
X740663Y561419D02*
X740663Y561419D01*
X740663Y569977D01*
X749221Y569977D01*
X749221Y563626D01*
X749048Y562979D01*
X748713Y562400D01*
X748240Y561927D01*
X747661Y561592D01*
X747014Y561419D01*
X740663Y561419D01*
G37*
%LPD*%
%LPC*%
G36*
X308863Y637619D02*
X308863Y637619D01*
X308863Y646177D01*
X317421Y646177D01*
X317421Y639826D01*
X317248Y639179D01*
X316913Y638600D01*
X316440Y638127D01*
X315861Y637792D01*
X315214Y637619D01*
X308863Y637619D01*
G37*
%LPD*%
%LPC*%
G36*
X766063Y713819D02*
X766063Y713819D01*
X766063Y722377D01*
X774621Y722377D01*
X774621Y716026D01*
X774448Y715379D01*
X774113Y714800D01*
X773640Y714327D01*
X773061Y713992D01*
X772414Y713819D01*
X766063Y713819D01*
G37*
%LPD*%
%LPC*%
G36*
X731266Y561419D02*
X731266Y561419D01*
X730619Y561592D01*
X730040Y561927D01*
X729567Y562400D01*
X729232Y562979D01*
X729059Y563626D01*
X729059Y569977D01*
X737617Y569977D01*
X737617Y561419D01*
X731266Y561419D01*
G37*
%LPD*%
%LPC*%
G36*
X756666Y713819D02*
X756666Y713819D01*
X756019Y713992D01*
X755440Y714327D01*
X754967Y714800D01*
X754632Y715379D01*
X754459Y716026D01*
X754459Y722377D01*
X763017Y722377D01*
X763017Y713819D01*
X756666Y713819D01*
G37*
%LPD*%
%LPC*%
G36*
X299466Y637619D02*
X299466Y637619D01*
X298819Y637792D01*
X298240Y638127D01*
X297767Y638600D01*
X297432Y639179D01*
X297259Y639826D01*
X297259Y646177D01*
X305817Y646177D01*
X305817Y637619D01*
X299466Y637619D01*
G37*
%LPD*%
%LPC*%
G36*
X401066Y561419D02*
X401066Y561419D01*
X400419Y561592D01*
X399840Y561927D01*
X399367Y562400D01*
X399032Y562979D01*
X398859Y563626D01*
X398859Y569977D01*
X407417Y569977D01*
X407417Y561419D01*
X401066Y561419D01*
G37*
%LPD*%
%LPC*%
G36*
X575309Y781811D02*
X575309Y781811D01*
X575309Y791106D01*
X576344Y790942D01*
X577979Y790410D01*
X579511Y789630D01*
X580902Y788619D01*
X582117Y787404D01*
X583128Y786013D01*
X583908Y784481D01*
X584440Y782846D01*
X584604Y781811D01*
X575309Y781811D01*
G37*
%LPD*%
%LPC*%
G36*
X562968Y781811D02*
X562968Y781811D01*
X563132Y782846D01*
X563664Y784481D01*
X564444Y786013D01*
X565455Y787404D01*
X566670Y788619D01*
X568061Y789630D01*
X569593Y790410D01*
X571228Y790942D01*
X572263Y791106D01*
X572263Y781811D01*
X562968Y781811D01*
G37*
%LPD*%
%LPC*%
G36*
X575309Y778765D02*
X575309Y778765D01*
X584604Y778765D01*
X584440Y777730D01*
X583908Y776095D01*
X583128Y774563D01*
X582117Y773172D01*
X580902Y771957D01*
X579511Y770946D01*
X577979Y770166D01*
X576344Y769634D01*
X575309Y769470D01*
X575309Y778765D01*
G37*
%LPD*%
%LPC*%
G36*
X571228Y769634D02*
X571228Y769634D01*
X569593Y770166D01*
X568061Y770946D01*
X566670Y771957D01*
X565455Y773172D01*
X564444Y774563D01*
X563664Y776095D01*
X563132Y777730D01*
X562968Y778765D01*
X572263Y778765D01*
X572263Y769470D01*
X571228Y769634D01*
G37*
%LPD*%
%LPC*%
G36*
X600963Y695423D02*
X600963Y695423D01*
X600963Y703865D01*
X601801Y703733D01*
X603310Y703242D01*
X604723Y702522D01*
X606007Y701589D01*
X607129Y700467D01*
X608062Y699183D01*
X608782Y697770D01*
X609273Y696261D01*
X609405Y695423D01*
X600963Y695423D01*
G37*
%LPD*%
%LPC*%
G36*
X626363Y695423D02*
X626363Y695423D01*
X626363Y703865D01*
X627201Y703733D01*
X628710Y703242D01*
X630123Y702522D01*
X631407Y701589D01*
X632529Y700467D01*
X633462Y699183D01*
X634182Y697770D01*
X634673Y696261D01*
X634805Y695423D01*
X626363Y695423D01*
G37*
%LPD*%
%LPC*%
G36*
X626363Y692377D02*
X626363Y692377D01*
X634805Y692377D01*
X634673Y691539D01*
X634182Y690030D01*
X633462Y688617D01*
X632529Y687333D01*
X631407Y686211D01*
X630123Y685278D01*
X628710Y684558D01*
X627201Y684067D01*
X626363Y683935D01*
X626363Y692377D01*
G37*
%LPD*%
%LPC*%
G36*
X600963Y692377D02*
X600963Y692377D01*
X609405Y692377D01*
X609273Y691539D01*
X608782Y690030D01*
X608062Y688617D01*
X607129Y687333D01*
X606007Y686211D01*
X604723Y685278D01*
X603310Y684558D01*
X601801Y684067D01*
X600963Y683935D01*
X600963Y692377D01*
G37*
%LPD*%
%LPC*%
G36*
X589475Y695423D02*
X589475Y695423D01*
X589607Y696261D01*
X590098Y697770D01*
X590818Y699183D01*
X591751Y700467D01*
X592873Y701589D01*
X594157Y702522D01*
X595570Y703242D01*
X597079Y703733D01*
X597917Y703865D01*
X597917Y695423D01*
X589475Y695423D01*
G37*
%LPD*%
%LPC*%
G36*
X614875Y695423D02*
X614875Y695423D01*
X615007Y696261D01*
X615498Y697770D01*
X616218Y699183D01*
X617151Y700467D01*
X618273Y701589D01*
X619557Y702522D01*
X620970Y703242D01*
X622479Y703733D01*
X623317Y703865D01*
X623317Y695423D01*
X614875Y695423D01*
G37*
%LPD*%
%LPC*%
G36*
X597079Y684067D02*
X597079Y684067D01*
X595570Y684558D01*
X594157Y685278D01*
X592873Y686211D01*
X591751Y687333D01*
X590818Y688617D01*
X590098Y690030D01*
X589607Y691539D01*
X589475Y692377D01*
X597917Y692377D01*
X597917Y683935D01*
X597079Y684067D01*
G37*
%LPD*%
%LPC*%
G36*
X622479Y684067D02*
X622479Y684067D01*
X620970Y684558D01*
X619557Y685278D01*
X618273Y686211D01*
X617151Y687333D01*
X616218Y688617D01*
X615498Y690030D01*
X615007Y691539D01*
X614875Y692377D01*
X623317Y692377D01*
X623317Y683935D01*
X622479Y684067D01*
G37*
%LPD*%
%LPC*%
G36*
X601979Y495299D02*
X601979Y495299D01*
X601979Y495301D01*
X601981Y495301D01*
X601981Y495299D01*
X601979Y495299D01*
G37*
%LPD*%
%LPC*%
G36*
X624839Y693899D02*
X624839Y693899D01*
X624839Y693901D01*
X624841Y693901D01*
X624841Y693899D01*
X624839Y693899D01*
G37*
%LPD*%
%LPC*%
G36*
X408939Y571499D02*
X408939Y571499D01*
X408939Y571501D01*
X408941Y571501D01*
X408941Y571499D01*
X408939Y571499D01*
G37*
%LPD*%
%LPC*%
G36*
X599439Y693899D02*
X599439Y693899D01*
X599439Y693901D01*
X599441Y693901D01*
X599441Y693899D01*
X599439Y693899D01*
G37*
%LPD*%
%LPC*%
G36*
X739139Y571499D02*
X739139Y571499D01*
X739139Y571501D01*
X739141Y571501D01*
X739141Y571499D01*
X739139Y571499D01*
G37*
%LPD*%
%LPC*%
G36*
X764539Y723899D02*
X764539Y723899D01*
X764539Y723901D01*
X764541Y723901D01*
X764541Y723899D01*
X764539Y723899D01*
G37*
%LPD*%
%LPC*%
G36*
X573785Y780287D02*
X573785Y780287D01*
X573785Y780289D01*
X573787Y780289D01*
X573787Y780287D01*
X573785Y780287D01*
G37*
%LPD*%
%LPC*%
G36*
X711199Y462279D02*
X711199Y462279D01*
X711199Y462281D01*
X711201Y462281D01*
X711201Y462279D01*
X711199Y462279D01*
G37*
%LPD*%
%LPC*%
G36*
X326897Y779906D02*
X326897Y779906D01*
X326897Y779908D01*
X326899Y779908D01*
X326899Y779906D01*
X326897Y779906D01*
G37*
%LPD*%
%LPC*%
G36*
X772159Y777239D02*
X772159Y777239D01*
X772159Y777241D01*
X772161Y777241D01*
X772161Y777239D01*
X772159Y777239D01*
G37*
%LPD*%
%LPC*%
G36*
X307339Y647699D02*
X307339Y647699D01*
X307339Y647701D01*
X307341Y647701D01*
X307341Y647699D01*
X307339Y647699D01*
G37*
%LPD*%
D10*
X764540Y723900D03*
X307340Y647700D03*
X739140Y571500D03*
D11*
X764540Y571500D03*
D12*
X713740Y571500D03*
X307340Y673100D03*
D13*
X307340Y698500D03*
X307340Y622300D03*
X307340Y596900D03*
X434340Y571500D03*
X434340Y723900D03*
X739140Y723900D03*
X713740Y723900D03*
X688340Y723900D03*
X662940Y723900D03*
X637540Y723900D03*
X612140Y723900D03*
X586740Y723900D03*
X561340Y723900D03*
X535940Y723900D03*
X510540Y723900D03*
X485140Y723900D03*
X459740Y723900D03*
X739140Y596900D03*
X459740Y571500D03*
X485140Y571500D03*
X510540Y571500D03*
X535940Y571500D03*
X561340Y571500D03*
X586740Y571500D03*
X612140Y571500D03*
X637540Y571500D03*
X662940Y571500D03*
X688340Y571500D03*
D12*
X408940Y723900D03*
D13*
X358140Y723900D03*
X332740Y723900D03*
X307340Y723900D03*
X281940Y723900D03*
X256540Y723900D03*
X231140Y723900D03*
X205740Y723900D03*
X180340Y723900D03*
X383540Y571500D03*
X358140Y571500D03*
X332740Y571500D03*
X307340Y571500D03*
X281940Y571500D03*
X256540Y571500D03*
X231140Y571500D03*
X205740Y571500D03*
X180340Y571500D03*
X701040Y693900D03*
X675640Y693900D03*
X650240Y693900D03*
X624840Y693900D03*
X599440Y693900D03*
X383540Y723900D03*
D10*
X408940Y571500D03*
D13*
X762240Y637700D03*
X762240Y657700D03*
D14*
X634840Y596900D03*
X634840Y616900D03*
X634840Y636900D03*
X614840Y596900D03*
X614840Y616900D03*
X614840Y636900D03*
D11*
X522986Y780288D03*
X548386Y780288D03*
X573786Y780288D03*
X599186Y780288D03*
X624586Y780288D03*
X649986Y780288D03*
X675386Y780288D03*
X700786Y780288D03*
D15*
X509016Y907288D03*
X712216Y907288D03*
D16*
X601980Y520700D03*
X601980Y495300D03*
X601980Y469900D03*
X601980Y444500D03*
X772160Y777240D03*
X772160Y802640D03*
X275844Y906907D03*
X301244Y906907D03*
X326644Y906907D03*
X352044Y906907D03*
X377444Y906907D03*
X402844Y906907D03*
X276098Y779907D03*
X301498Y779907D03*
X326898Y779907D03*
X352298Y779907D03*
X377698Y779907D03*
X403098Y779907D03*
X772160Y863600D03*
X772160Y838200D03*
D17*
X711200Y462280D03*
X711200Y513080D03*
D18*
X408940Y723900D02*
X383540Y749300D01*
X345440Y749300D01*
D19*
X345440Y749300D03*
D18*
X522986Y780288D02*
X523240Y780034D01*
X522986Y705866D02*
X518160Y701040D01*
X522986Y705866D02*
X522986Y780288D01*
D19*
X518160Y701040D03*
X563880Y810260D03*
D20*
X569214Y810260D01*
X599186Y780288D01*
D19*
X421640Y825500D03*
D20*
X421640Y736600D01*
X434340Y723900D01*
D19*
X444500Y825500D03*
D20*
X444500Y772160D02*
X485140Y731520D01*
X485140Y723900D01*
X444500Y772160D02*
X444500Y825500D01*
M02*
