G04 EAGLE Gerber RS-274X export*
G75*
%MOMM*%
%FSLAX34Y34*%
%LPD*%
%IN*%
%IPPOS*%
%AMOC8*
5,1,8,0,0,1.08239X$1,22.5*%
G01*
%ADD10C,0.254000*%


D10*
X149860Y447220D02*
X150015Y443663D01*
X150480Y440132D01*
X151251Y436655D01*
X152322Y433259D01*
X153685Y429969D01*
X155329Y426810D01*
X157242Y423807D01*
X159410Y420982D01*
X161816Y418356D01*
X164442Y415950D01*
X167267Y413782D01*
X170270Y411869D01*
X173429Y410225D01*
X176719Y408862D01*
X180115Y407791D01*
X183592Y407020D01*
X187123Y406555D01*
X190680Y406400D01*
X771336Y406400D01*
X774497Y406760D01*
X777615Y407394D01*
X780666Y408297D01*
X783627Y409463D01*
X786474Y410882D01*
X789188Y412545D01*
X791745Y414437D01*
X794129Y416545D01*
X796319Y418853D01*
X798300Y421343D01*
X800057Y423996D01*
X801575Y426792D01*
X802845Y429710D01*
X803854Y432727D01*
X804598Y435821D01*
X805068Y438968D01*
X805263Y442144D01*
X805180Y445324D01*
X805180Y908496D01*
X805369Y911792D01*
X805270Y915092D01*
X804883Y918371D01*
X804212Y921604D01*
X803262Y924766D01*
X802040Y927833D01*
X800556Y930782D01*
X798820Y933591D01*
X796845Y936237D01*
X794648Y938702D01*
X792244Y940965D01*
X789652Y943010D01*
X786892Y944822D01*
X783984Y946386D01*
X780951Y947691D01*
X777816Y948726D01*
X774603Y949485D01*
X771336Y949960D01*
X190680Y949960D01*
X186911Y949574D01*
X183190Y948860D01*
X179544Y947825D01*
X176003Y946476D01*
X172594Y944824D01*
X169341Y942881D01*
X166269Y940661D01*
X163403Y938183D01*
X160764Y935464D01*
X158372Y932525D01*
X156245Y929389D01*
X154399Y926080D01*
X152849Y922622D01*
X151606Y919043D01*
X150680Y915369D01*
X150078Y911628D01*
X149804Y907848D01*
X149860Y904060D01*
X149860Y447220D01*
X195380Y911369D02*
X195303Y910390D01*
X195149Y909420D01*
X194920Y908464D01*
X194616Y907530D01*
X194241Y906623D01*
X193795Y905748D01*
X193281Y904910D01*
X192704Y904115D01*
X192066Y903368D01*
X191372Y902674D01*
X190625Y902036D01*
X189830Y901459D01*
X188992Y900945D01*
X188117Y900499D01*
X187210Y900124D01*
X186276Y899820D01*
X185321Y899591D01*
X184350Y899437D01*
X183371Y899360D01*
X182389Y899360D01*
X181410Y899437D01*
X180440Y899591D01*
X179484Y899820D01*
X178550Y900124D01*
X177643Y900499D01*
X176768Y900945D01*
X175930Y901459D01*
X175135Y902036D01*
X174388Y902674D01*
X173694Y903368D01*
X173056Y904115D01*
X172479Y904910D01*
X171965Y905748D01*
X171519Y906623D01*
X171144Y907530D01*
X170840Y908464D01*
X170611Y909420D01*
X170457Y910390D01*
X170380Y911369D01*
X170380Y912351D01*
X170457Y913330D01*
X170611Y914301D01*
X170840Y915256D01*
X171144Y916190D01*
X171519Y917097D01*
X171965Y917972D01*
X172479Y918810D01*
X173056Y919605D01*
X173694Y920352D01*
X174388Y921046D01*
X175135Y921684D01*
X175930Y922261D01*
X176768Y922775D01*
X177643Y923221D01*
X178550Y923596D01*
X179484Y923900D01*
X180440Y924129D01*
X181410Y924283D01*
X182389Y924360D01*
X183371Y924360D01*
X184350Y924283D01*
X185321Y924129D01*
X186276Y923900D01*
X187210Y923596D01*
X188117Y923221D01*
X188992Y922775D01*
X189830Y922261D01*
X190625Y921684D01*
X191372Y921046D01*
X192066Y920352D01*
X192704Y919605D01*
X193281Y918810D01*
X193795Y917972D01*
X194241Y917097D01*
X194616Y916190D01*
X194920Y915256D01*
X195149Y914301D01*
X195303Y913330D01*
X195380Y912351D01*
X195380Y911369D01*
X200460Y444009D02*
X200383Y443030D01*
X200229Y442060D01*
X200000Y441104D01*
X199696Y440170D01*
X199321Y439263D01*
X198875Y438388D01*
X198361Y437550D01*
X197784Y436755D01*
X197146Y436008D01*
X196452Y435314D01*
X195705Y434676D01*
X194910Y434099D01*
X194072Y433585D01*
X193197Y433139D01*
X192290Y432764D01*
X191356Y432460D01*
X190401Y432231D01*
X189430Y432077D01*
X188451Y432000D01*
X187469Y432000D01*
X186490Y432077D01*
X185520Y432231D01*
X184564Y432460D01*
X183630Y432764D01*
X182723Y433139D01*
X181848Y433585D01*
X181010Y434099D01*
X180215Y434676D01*
X179468Y435314D01*
X178774Y436008D01*
X178136Y436755D01*
X177559Y437550D01*
X177045Y438388D01*
X176599Y439263D01*
X176224Y440170D01*
X175920Y441104D01*
X175691Y442060D01*
X175537Y443030D01*
X175460Y444009D01*
X175460Y444991D01*
X175537Y445970D01*
X175691Y446941D01*
X175920Y447896D01*
X176224Y448830D01*
X176599Y449737D01*
X177045Y450612D01*
X177559Y451450D01*
X178136Y452245D01*
X178774Y452992D01*
X179468Y453686D01*
X180215Y454324D01*
X181010Y454901D01*
X181848Y455415D01*
X182723Y455861D01*
X183630Y456236D01*
X184564Y456540D01*
X185520Y456769D01*
X186490Y456923D01*
X187469Y457000D01*
X188451Y457000D01*
X189430Y456923D01*
X190401Y456769D01*
X191356Y456540D01*
X192290Y456236D01*
X193197Y455861D01*
X194072Y455415D01*
X194910Y454901D01*
X195705Y454324D01*
X196452Y453686D01*
X197146Y452992D01*
X197784Y452245D01*
X198361Y451450D01*
X198875Y450612D01*
X199321Y449737D01*
X199696Y448830D01*
X200000Y447896D01*
X200229Y446941D01*
X200383Y445970D01*
X200460Y444991D01*
X200460Y444009D01*
X784660Y911369D02*
X784583Y910390D01*
X784429Y909420D01*
X784200Y908464D01*
X783896Y907530D01*
X783521Y906623D01*
X783075Y905748D01*
X782561Y904910D01*
X781984Y904115D01*
X781346Y903368D01*
X780652Y902674D01*
X779905Y902036D01*
X779110Y901459D01*
X778272Y900945D01*
X777397Y900499D01*
X776490Y900124D01*
X775556Y899820D01*
X774601Y899591D01*
X773630Y899437D01*
X772651Y899360D01*
X771669Y899360D01*
X770690Y899437D01*
X769720Y899591D01*
X768764Y899820D01*
X767830Y900124D01*
X766923Y900499D01*
X766048Y900945D01*
X765210Y901459D01*
X764415Y902036D01*
X763668Y902674D01*
X762974Y903368D01*
X762336Y904115D01*
X761759Y904910D01*
X761245Y905748D01*
X760799Y906623D01*
X760424Y907530D01*
X760120Y908464D01*
X759891Y909420D01*
X759737Y910390D01*
X759660Y911369D01*
X759660Y912351D01*
X759737Y913330D01*
X759891Y914301D01*
X760120Y915256D01*
X760424Y916190D01*
X760799Y917097D01*
X761245Y917972D01*
X761759Y918810D01*
X762336Y919605D01*
X762974Y920352D01*
X763668Y921046D01*
X764415Y921684D01*
X765210Y922261D01*
X766048Y922775D01*
X766923Y923221D01*
X767830Y923596D01*
X768764Y923900D01*
X769720Y924129D01*
X770690Y924283D01*
X771669Y924360D01*
X772651Y924360D01*
X773630Y924283D01*
X774601Y924129D01*
X775556Y923900D01*
X776490Y923596D01*
X777397Y923221D01*
X778272Y922775D01*
X779110Y922261D01*
X779905Y921684D01*
X780652Y921046D01*
X781346Y920352D01*
X781984Y919605D01*
X782561Y918810D01*
X783075Y917972D01*
X783521Y917097D01*
X783896Y916190D01*
X784200Y915256D01*
X784429Y914301D01*
X784583Y913330D01*
X784660Y912351D01*
X784660Y911369D01*
X789740Y444009D02*
X789663Y443030D01*
X789509Y442060D01*
X789280Y441104D01*
X788976Y440170D01*
X788601Y439263D01*
X788155Y438388D01*
X787641Y437550D01*
X787064Y436755D01*
X786426Y436008D01*
X785732Y435314D01*
X784985Y434676D01*
X784190Y434099D01*
X783352Y433585D01*
X782477Y433139D01*
X781570Y432764D01*
X780636Y432460D01*
X779681Y432231D01*
X778710Y432077D01*
X777731Y432000D01*
X776749Y432000D01*
X775770Y432077D01*
X774800Y432231D01*
X773844Y432460D01*
X772910Y432764D01*
X772003Y433139D01*
X771128Y433585D01*
X770290Y434099D01*
X769495Y434676D01*
X768748Y435314D01*
X768054Y436008D01*
X767416Y436755D01*
X766839Y437550D01*
X766325Y438388D01*
X765879Y439263D01*
X765504Y440170D01*
X765200Y441104D01*
X764971Y442060D01*
X764817Y443030D01*
X764740Y444009D01*
X764740Y444991D01*
X764817Y445970D01*
X764971Y446941D01*
X765200Y447896D01*
X765504Y448830D01*
X765879Y449737D01*
X766325Y450612D01*
X766839Y451450D01*
X767416Y452245D01*
X768054Y452992D01*
X768748Y453686D01*
X769495Y454324D01*
X770290Y454901D01*
X771128Y455415D01*
X772003Y455861D01*
X772910Y456236D01*
X773844Y456540D01*
X774800Y456769D01*
X775770Y456923D01*
X776749Y457000D01*
X777731Y457000D01*
X778710Y456923D01*
X779681Y456769D01*
X780636Y456540D01*
X781570Y456236D01*
X782477Y455861D01*
X783352Y455415D01*
X784190Y454901D01*
X784985Y454324D01*
X785732Y453686D01*
X786426Y452992D01*
X787064Y452245D01*
X787641Y451450D01*
X788155Y450612D01*
X788601Y449737D01*
X788976Y448830D01*
X789280Y447896D01*
X789509Y446941D01*
X789663Y445970D01*
X789740Y444991D01*
X789740Y444009D01*
M02*
