M48
;GenerationSoftware,Autodesk,EAGLE,9.6.2*%
;CreationDate,2021-10-13T19:28:23Z*%
FMAT,2
ICI,OFF
METRIC,TZ,000.000
T6C0.350
T5C0.600
T4C1.000
T3C1.016
T2C2.057
T1C2.500
%
G90
M71
T1
X18288Y91186
X18796Y44450
X77216Y91186
X77724Y44450
X71222Y90729
X50902Y90729
T2
X71120Y51308
X71120Y46228
T3
X77216Y83820
X77216Y86360
X40310Y77991
X37770Y77991
X35230Y77991
X32690Y77991
X30150Y77991
X27610Y77991
X40284Y90691
X37744Y90691
X35204Y90691
X32664Y90691
X30124Y90691
X27584Y90691
X77216Y80264
X77216Y77724
X60198Y44450
X60198Y46990
X60198Y49530
X60198Y52070
T4
X53594Y72390
X51054Y72390
X48514Y72390
X45974Y72390
X73914Y59690
X45974Y57150
X48514Y57150
X51054Y57150
X53594Y57150
X56134Y57150
X58674Y57150
X61214Y57150
X63754Y57150
X66294Y57150
X68834Y57150
X40894Y72390
X35814Y72390
X33274Y72390
X30734Y72390
X28194Y72390
X25654Y72390
X23114Y72390
X20574Y72390
X18034Y72390
X38354Y57150
X35814Y57150
X33274Y57150
X30734Y57150
X28194Y57150
X25654Y57150
X23114Y57150
X20574Y57150
X18034Y57150
X70104Y69390
X67564Y69390
X65024Y69390
X62484Y69390
X59944Y69390
X38354Y72390
X40894Y57150
X76224Y63770
X76224Y65770
X76454Y72390
X30734Y64770
X73914Y57150
X76454Y57150
X71374Y57150
X30734Y67310
X52299Y78029
X54839Y78029
X57379Y78029
X59919Y78029
X62459Y78029
X64999Y78029
X67539Y78029
X70079Y78029
X56134Y72390
X58674Y72390
X61214Y72390
X63754Y72390
X66294Y72390
X68834Y72390
X71374Y72390
X73914Y72390
X43434Y72390
X43434Y57150
X30734Y59690
X30734Y62230
X30734Y69850
T5
X61484Y63690
X61484Y61690
X61484Y59690
X63484Y63690
X63484Y61690
X63484Y59690
T6
X44450Y82550
X42164Y82550
X56388Y81026
X51816Y70104
X34544Y74930
M30