M48
;GenerationSoftware,Autodesk,EAGLE,9.6.2*%
;CreationDate,2021-09-02T17:09:15Z*%
FMAT,2
ICI,OFF
METRIC,TZ,000.000
T7C0.350
T6C0.600
T5C1.000
T4C1.016
T3C1.850
T2C2.057
T1C2.500
%
G90
M71
T1
X78168Y71774
X101448Y52375
X5791Y53035
X127254Y50800
X127254Y104394
X-3810Y50800
X-3810Y104394
X101448Y72695
X78130Y54991
X53111Y51841
X53048Y72288
X35268Y72288
X35268Y51841
X108749Y72853
X108749Y52533
X121449Y52533
X121449Y72853
T2
X53340Y102362
X48260Y102362
T3
X104658Y100074
X104658Y78974
T4
X109220Y66294
X109220Y68834
X121920Y68834
X121920Y66294
X121920Y63754
X121920Y61214
X72136Y87122
X72136Y84582
X72136Y82042
X72136Y79502
X121920Y58674
X121920Y56134
X65335Y56070
X65335Y58610
X109220Y63754
X109220Y61214
X61976Y104140
X64516Y104140
X109220Y58674
X109220Y56134
X1270Y104902
X3810Y104902
X6350Y104902
X8890Y104902
X13970Y104902
X16510Y104902
X19050Y104902
X65335Y61150
X65335Y63690
X65335Y66231
X65335Y68771
X65335Y71311
X23876Y104902
X21031Y73355
X18491Y73355
X15951Y73355
X13411Y73355
X10871Y73355
X72136Y101854
X72136Y99314
X72136Y96774
X72136Y94234
X26416Y104902
X28956Y104902
T5
X36830Y93980
X34290Y93980
X31750Y93980
X29210Y93980
X26670Y93980
X24130Y93980
X52070Y81280
X24130Y78740
X26670Y78740
X29210Y78740
X31750Y78740
X34290Y78740
X36830Y78740
X39370Y78740
X41910Y78740
X44450Y78740
X46990Y78740
X19050Y93980
X13970Y93980
X11430Y93980
X8890Y93980
X6350Y93980
X3810Y93980
X1270Y93980
X-1270Y93980
X-3810Y93980
X16510Y78740
X13970Y78740
X11430Y78740
X8890Y78740
X6350Y78740
X3810Y78740
X1270Y78740
X-1270Y78740
X-3810Y78740
X48260Y90980
X45720Y90980
X43180Y90980
X40640Y90980
X38100Y90980
X16510Y93980
X19050Y78740
X54380Y85360
X54380Y87360
X53111Y55715
X53111Y58255
X53111Y60795
X53111Y63335
X53111Y65875
X53111Y68415
X88748Y71298
X88748Y68758
X88748Y66218
X88748Y63678
X88748Y61138
X88748Y58598
X88748Y56058
X88748Y53518
X39370Y93980
X41910Y93980
X44450Y93980
X46990Y93980
X49530Y93980
X52070Y93980
X21590Y93980
X21590Y78740
X8890Y81280
X8890Y83820
X8890Y91440
X8890Y88900
X49530Y78740
X54610Y78740
X52070Y78740
X8890Y86360
X54610Y93980
X35268Y55524
X35268Y58064
X35268Y60604
X35268Y63144
X35268Y65684
X35268Y68224
T6
X41640Y81280
X41640Y83280
X41640Y85280
X39640Y81280
X39640Y83280
X39640Y85280
T7
X39370Y71374
X16351Y89852
X46736Y71374
X76200Y57912
X69596Y64770
X36576Y70104
X44958Y59182
X50038Y70104
X44958Y62738
X42926Y75438
X74168Y92202
X68326Y92202
X54102Y92202
X49784Y92202
X31750Y92202
X20320Y91186
X22606Y88138
X30988Y90678
X32004Y88900
X22606Y85852
X48419Y62706
X37306Y64135
X22542Y91916
X37148Y59849
X12700Y97790
X39624Y61976
X38862Y64262
X33020Y67310
X30988Y69342
X12700Y94615
X20574Y100838
X37846Y100838
X38354Y104648
X101854Y88138
X55372Y70866
M30